%TF.GenerationSoftware,KiCad,Pcbnew,(5.1.2)-2*%
%TF.CreationDate,2019-08-12T21:21:20-05:00*%
%TF.ProjectId,bms,626d732e-6b69-4636-9164-5f7063625858,rev?*%
%TF.SameCoordinates,Original*%
%TF.FileFunction,Profile,NP*%
%FSLAX46Y46*%
G04 Gerber Fmt 4.6, Leading zero omitted, Abs format (unit mm)*
G04 Created by KiCad (PCBNEW (5.1.2)-2) date 2019-08-12 21:21:20*
%MOMM*%
%LPD*%
G04 APERTURE LIST*
%ADD10C,0.050000*%
%ADD11C,0.120000*%
G04 APERTURE END LIST*
D10*
X376999986Y-224100000D02*
G75*
G02X371000000Y-230000000I-5999153J99986D01*
G01*
X69900000Y-230000000D02*
G75*
G02X63999986Y-224000833I99986J5999167D01*
G01*
X64000000Y-25000000D02*
G75*
G02X70000000Y-19000000I6000000J0D01*
G01*
X371099986Y-19000833D02*
G75*
G02X377000000Y-25000000I-99986J-5999167D01*
G01*
X377000000Y-25000000D02*
X377000000Y-224100000D01*
X69900000Y-230000000D02*
X371000000Y-230000000D01*
X64000000Y-25000000D02*
X63999986Y-224000833D01*
X70000000Y-19000000D02*
X371100000Y-19000000D01*
D11*
X74250000Y-212500000D02*
X76500000Y-212500000D01*
X76500000Y-212500000D02*
X76500000Y-203750000D01*
X76500000Y-203750000D02*
X74250000Y-203750000D01*
X74250000Y-203750000D02*
X74250000Y-212500000D01*
X69000000Y-212500000D02*
X71250000Y-212500000D01*
X69000000Y-203750000D02*
X69000000Y-212500000D01*
X71250000Y-203750000D02*
X69000000Y-203750000D01*
X71250000Y-212500000D02*
X71250000Y-203750000D01*
X99000000Y-200500000D02*
X104250000Y-200500000D01*
X99000000Y-200500000D02*
X93750000Y-200500000D01*
X93750000Y-200500000D02*
X93750000Y-223500000D01*
X93750000Y-223500000D02*
X104250000Y-223500000D01*
X104250000Y-223500000D02*
X104250000Y-200500000D01*
X357750000Y-135900000D02*
X352500000Y-135900000D01*
X357750000Y-135900000D02*
X363000000Y-135900000D01*
X363000000Y-135900000D02*
X363000000Y-112900000D01*
X363000000Y-112900000D02*
X352500000Y-112900000D01*
X352500000Y-112900000D02*
X352500000Y-135900000D01*
X139500000Y-200500000D02*
X144750000Y-200500000D01*
X139500000Y-200500000D02*
X134250000Y-200500000D01*
X134250000Y-200500000D02*
X134250000Y-223500000D01*
X134250000Y-223500000D02*
X144750000Y-223500000D01*
X144750000Y-223500000D02*
X144750000Y-200500000D01*
X180000000Y-200500000D02*
X185250000Y-200500000D01*
X180000000Y-200500000D02*
X174750000Y-200500000D01*
X174750000Y-200500000D02*
X174750000Y-223500000D01*
X174750000Y-223500000D02*
X185250000Y-223500000D01*
X185250000Y-223500000D02*
X185250000Y-200500000D01*
X221000000Y-200500000D02*
X226250000Y-200500000D01*
X221000000Y-200500000D02*
X215750000Y-200500000D01*
X215750000Y-200500000D02*
X215750000Y-223500000D01*
X215750000Y-223500000D02*
X226250000Y-223500000D01*
X226250000Y-223500000D02*
X226250000Y-200500000D01*
X261500000Y-200500000D02*
X266750000Y-200500000D01*
X261500000Y-200500000D02*
X256250000Y-200500000D01*
X256250000Y-200500000D02*
X256250000Y-223500000D01*
X256250000Y-223500000D02*
X266750000Y-223500000D01*
X266750000Y-223500000D02*
X266750000Y-200500000D01*
X302250000Y-200500000D02*
X307500000Y-200500000D01*
X302250000Y-200500000D02*
X297000000Y-200500000D01*
X297000000Y-200500000D02*
X297000000Y-223500000D01*
X297000000Y-223500000D02*
X307500000Y-223500000D01*
X307500000Y-223500000D02*
X307500000Y-200500000D01*
X343000000Y-200500000D02*
X348250000Y-200500000D01*
X343000000Y-200500000D02*
X337750000Y-200500000D01*
X337750000Y-200500000D02*
X337750000Y-223500000D01*
X337750000Y-223500000D02*
X348250000Y-223500000D01*
X348250000Y-223500000D02*
X348250000Y-200500000D01*
X338250000Y-48500000D02*
X333000000Y-48500000D01*
X338250000Y-48500000D02*
X343500000Y-48500000D01*
X343500000Y-48500000D02*
X343500000Y-25500000D01*
X343500000Y-25500000D02*
X333000000Y-25500000D01*
X333000000Y-25500000D02*
X333000000Y-48500000D01*
X297250000Y-48500000D02*
X292000000Y-48500000D01*
X297250000Y-48500000D02*
X302500000Y-48500000D01*
X302500000Y-48500000D02*
X302500000Y-25500000D01*
X302500000Y-25500000D02*
X292000000Y-25500000D01*
X292000000Y-25500000D02*
X292000000Y-48500000D01*
X256250000Y-48500000D02*
X251000000Y-48500000D01*
X256250000Y-48500000D02*
X261500000Y-48500000D01*
X261500000Y-48500000D02*
X261500000Y-25500000D01*
X261500000Y-25500000D02*
X251000000Y-25500000D01*
X251000000Y-25500000D02*
X251000000Y-48500000D01*
X215500000Y-48500000D02*
X210250000Y-48500000D01*
X215500000Y-48500000D02*
X220750000Y-48500000D01*
X220750000Y-48500000D02*
X220750000Y-25500000D01*
X220750000Y-25500000D02*
X210250000Y-25500000D01*
X210250000Y-25500000D02*
X210250000Y-48500000D01*
X174750000Y-48500000D02*
X169500000Y-48500000D01*
X174750000Y-48500000D02*
X180000000Y-48500000D01*
X180000000Y-48500000D02*
X180000000Y-25500000D01*
X180000000Y-25500000D02*
X169500000Y-25500000D01*
X169500000Y-25500000D02*
X169500000Y-48500000D01*
X134000000Y-48500000D02*
X128750000Y-48500000D01*
X134000000Y-48500000D02*
X139250000Y-48500000D01*
X139250000Y-48500000D02*
X139250000Y-25500000D01*
X139250000Y-25500000D02*
X128750000Y-25500000D01*
X128750000Y-25500000D02*
X128750000Y-48500000D01*
X93250000Y-48500000D02*
X88000000Y-48500000D01*
X93250000Y-48500000D02*
X98500000Y-48500000D01*
X98500000Y-48500000D02*
X98500000Y-25500000D01*
X98500000Y-25500000D02*
X88000000Y-25500000D01*
X88000000Y-25500000D02*
X88000000Y-48500000D01*
X187250000Y-125000001D02*
X171250000Y-125000000D01*
X187250000Y-125000001D02*
G75*
G02X171250001Y-125000001I-8000000J-17249999D01*
G01*
X125950000Y-176300000D02*
X125950000Y-174050000D01*
X125950000Y-174050000D02*
X117200000Y-174050000D01*
X117200000Y-174050000D02*
X117200000Y-176300000D01*
X117200000Y-176300000D02*
X125950000Y-176300000D01*
X125950000Y-181550000D02*
X125950000Y-179300000D01*
X117200000Y-181550000D02*
X125950000Y-181550000D01*
X117200000Y-179300000D02*
X117200000Y-181550000D01*
X125950000Y-179300000D02*
X117200000Y-179300000D01*
X71250000Y-36500000D02*
X69000000Y-36500000D01*
X69000000Y-36500000D02*
X69000000Y-45250000D01*
X69000000Y-45250000D02*
X71250000Y-45250000D01*
X71250000Y-45250000D02*
X71250000Y-36500000D01*
X76500000Y-36500000D02*
X74250000Y-36500000D01*
X76500000Y-45250000D02*
X76500000Y-36500000D01*
X74250000Y-45250000D02*
X76500000Y-45250000D01*
X74250000Y-36500000D02*
X74250000Y-45250000D01*
X112250000Y-212500000D02*
X114500000Y-212500000D01*
X114500000Y-212500000D02*
X114500000Y-203750000D01*
X114500000Y-203750000D02*
X112250000Y-203750000D01*
X112250000Y-203750000D02*
X112250000Y-212500000D01*
X107000000Y-212500000D02*
X109250000Y-212500000D01*
X107000000Y-203750000D02*
X107000000Y-212500000D01*
X109250000Y-203750000D02*
X107000000Y-203750000D01*
X109250000Y-212500000D02*
X109250000Y-203750000D01*
X152750000Y-212500000D02*
X155000000Y-212500000D01*
X155000000Y-212500000D02*
X155000000Y-203750000D01*
X155000000Y-203750000D02*
X152750000Y-203750000D01*
X152750000Y-203750000D02*
X152750000Y-212500000D01*
X147500000Y-212500000D02*
X149750000Y-212500000D01*
X147500000Y-203750000D02*
X147500000Y-212500000D01*
X149750000Y-203750000D02*
X147500000Y-203750000D01*
X149750000Y-212500000D02*
X149750000Y-203750000D01*
X193250000Y-212500000D02*
X195500000Y-212500000D01*
X195500000Y-212500000D02*
X195500000Y-203750000D01*
X195500000Y-203750000D02*
X193250000Y-203750000D01*
X193250000Y-203750000D02*
X193250000Y-212500000D01*
X188000000Y-212500000D02*
X190250000Y-212500000D01*
X188000000Y-203750000D02*
X188000000Y-212500000D01*
X190250000Y-203750000D02*
X188000000Y-203750000D01*
X190250000Y-212500000D02*
X190250000Y-203750000D01*
X234250000Y-212500000D02*
X236500000Y-212500000D01*
X236500000Y-212500000D02*
X236500000Y-203750000D01*
X236500000Y-203750000D02*
X234250000Y-203750000D01*
X234250000Y-203750000D02*
X234250000Y-212500000D01*
X229000000Y-212500000D02*
X231250000Y-212500000D01*
X229000000Y-203750000D02*
X229000000Y-212500000D01*
X231250000Y-203750000D02*
X229000000Y-203750000D01*
X231250000Y-212500000D02*
X231250000Y-203750000D01*
X274750000Y-212500000D02*
X277000000Y-212500000D01*
X277000000Y-212500000D02*
X277000000Y-203750000D01*
X277000000Y-203750000D02*
X274750000Y-203750000D01*
X274750000Y-203750000D02*
X274750000Y-212500000D01*
X269500000Y-212500000D02*
X271750000Y-212500000D01*
X269500000Y-203750000D02*
X269500000Y-212500000D01*
X271750000Y-203750000D02*
X269500000Y-203750000D01*
X271750000Y-212500000D02*
X271750000Y-203750000D01*
X315500000Y-212500000D02*
X317750000Y-212500000D01*
X317750000Y-212500000D02*
X317750000Y-203750000D01*
X317750000Y-203750000D02*
X315500000Y-203750000D01*
X315500000Y-203750000D02*
X315500000Y-212500000D01*
X310250000Y-212500000D02*
X312500000Y-212500000D01*
X310250000Y-203750000D02*
X310250000Y-212500000D01*
X312500000Y-203750000D02*
X310250000Y-203750000D01*
X312500000Y-212500000D02*
X312500000Y-203750000D01*
X369750000Y-212500000D02*
X372000000Y-212500000D01*
X372000000Y-212500000D02*
X372000000Y-203750000D01*
X372000000Y-203750000D02*
X369750000Y-203750000D01*
X369750000Y-203750000D02*
X369750000Y-212500000D01*
X364500000Y-212500000D02*
X366750000Y-212500000D01*
X364500000Y-203750000D02*
X364500000Y-212500000D01*
X366750000Y-203750000D02*
X364500000Y-203750000D01*
X366750000Y-212500000D02*
X366750000Y-203750000D01*
X366750000Y-36500000D02*
X364500000Y-36500000D01*
X364500000Y-36500000D02*
X364500000Y-45250000D01*
X364500000Y-45250000D02*
X366750000Y-45250000D01*
X366750000Y-45250000D02*
X366750000Y-36500000D01*
X372000000Y-36500000D02*
X369750000Y-36500000D01*
X372000000Y-45250000D02*
X372000000Y-36500000D01*
X369750000Y-45250000D02*
X372000000Y-45250000D01*
X369750000Y-36500000D02*
X369750000Y-45250000D01*
X307250000Y-36500000D02*
X305000000Y-36500000D01*
X305000000Y-36500000D02*
X305000000Y-45250000D01*
X305000000Y-45250000D02*
X307250000Y-45250000D01*
X307250000Y-45250000D02*
X307250000Y-36500000D01*
X312500000Y-36500000D02*
X310250000Y-36500000D01*
X312500000Y-45250000D02*
X312500000Y-36500000D01*
X310250000Y-45250000D02*
X312500000Y-45250000D01*
X310250000Y-36500000D02*
X310250000Y-45250000D01*
X266250000Y-36500000D02*
X264000000Y-36500000D01*
X264000000Y-36500000D02*
X264000000Y-45250000D01*
X264000000Y-45250000D02*
X266250000Y-45250000D01*
X266250000Y-45250000D02*
X266250000Y-36500000D01*
X271500000Y-36500000D02*
X269250000Y-36500000D01*
X271500000Y-45250000D02*
X271500000Y-36500000D01*
X269250000Y-45250000D02*
X271500000Y-45250000D01*
X269250000Y-36500000D02*
X269250000Y-45250000D01*
X225500000Y-36500000D02*
X223250000Y-36500000D01*
X223250000Y-36500000D02*
X223250000Y-45250000D01*
X223250000Y-45250000D02*
X225500000Y-45250000D01*
X225500000Y-45250000D02*
X225500000Y-36500000D01*
X230750000Y-36500000D02*
X228500000Y-36500000D01*
X230750000Y-45250000D02*
X230750000Y-36500000D01*
X228500000Y-45250000D02*
X230750000Y-45250000D01*
X228500000Y-36500000D02*
X228500000Y-45250000D01*
X185000000Y-36500000D02*
X182750000Y-36500000D01*
X182750000Y-36500000D02*
X182750000Y-45250000D01*
X182750000Y-45250000D02*
X185000000Y-45250000D01*
X185000000Y-45250000D02*
X185000000Y-36500000D01*
X190250000Y-36500000D02*
X188000000Y-36500000D01*
X190250000Y-45250000D02*
X190250000Y-36500000D01*
X188000000Y-45250000D02*
X190250000Y-45250000D01*
X188000000Y-36500000D02*
X188000000Y-45250000D01*
X144250000Y-36500000D02*
X142000000Y-36500000D01*
X142000000Y-36500000D02*
X142000000Y-45250000D01*
X142000000Y-45250000D02*
X144250000Y-45250000D01*
X144250000Y-45250000D02*
X144250000Y-36500000D01*
X149500000Y-36500000D02*
X147250000Y-36500000D01*
X149500000Y-45250000D02*
X149500000Y-36500000D01*
X147250000Y-45250000D02*
X149500000Y-45250000D01*
X147250000Y-36500000D02*
X147250000Y-45250000D01*
X103500000Y-36500000D02*
X101250000Y-36500000D01*
X101250000Y-36500000D02*
X101250000Y-45250000D01*
X101250000Y-45250000D02*
X103500000Y-45250000D01*
X103500000Y-45250000D02*
X103500000Y-36500000D01*
X108750000Y-36500000D02*
X106500000Y-36500000D01*
X108750000Y-45250000D02*
X108750000Y-36500000D01*
X106500000Y-45250000D02*
X108750000Y-45250000D01*
X106500000Y-36500000D02*
X106500000Y-45250000D01*
X92250000Y-136071999D02*
X85250000Y-136071999D01*
X92250000Y-113071999D02*
X77750000Y-113071999D01*
X85250000Y-136071999D02*
X77750000Y-136071999D01*
X92250000Y-136071999D02*
X92250000Y-113071999D01*
X77750000Y-113071999D02*
X77750000Y-136071999D01*
M02*
