M48
; DRILL file {KiCad (5.1.2)-2} date 8/12/2019 9:21:22 PM
; FORMAT={-:-/ absolute / inch / decimal}
; #@! TF.CreationDate,2019-08-12T21:21:22-05:00
; #@! TF.GenerationSoftware,Kicad,Pcbnew,(5.1.2)-2
FMAT,2
INCH
T1C0.0236
T2C0.0394
T3C0.0472
T4C0.0787
T5C0.0906
T6C0.1181
T7C0.1480
T8C0.1693
T9C0.1772
T10C0.1693
%
G90
G05
T1
X4.4488Y-0.8169
X4.4488Y-0.8858
X4.4488Y-0.9744
X4.4488Y-1.063
X4.4488Y-1.1516
X4.4488Y-1.2402
X4.4488Y-1.3091
X4.5177Y-1.0138
X4.5177Y-1.1024
X4.5276Y-0.8169
X4.5276Y-0.935
X4.5276Y-1.1811
X4.5276Y-1.3091
X4.5472Y-1.2402
X4.5571Y-0.8858
X4.5768Y-0.935
X4.5768Y-1.0138
X4.5768Y-1.1024
X4.5768Y-1.1811
X4.5965Y-0.8366
X4.5965Y-1.2894
X4.7539Y-0.8366
X4.7539Y-1.2894
X4.7736Y-0.935
X4.7736Y-1.0138
X4.7736Y-1.1024
X4.7736Y-1.1811
X4.7933Y-0.876
X4.7933Y-1.2402
X4.8228Y-0.935
X4.8228Y-1.1811
X4.8327Y-0.8169
X4.8327Y-1.0138
X4.8327Y-1.1024
X4.8327Y-1.3091
X4.9016Y-0.8169
X4.9016Y-0.8858
X4.9016Y-0.9744
X4.9016Y-1.063
X4.9016Y-1.1516
X4.9016Y-1.2402
X4.9016Y-1.3091
X2.5889Y-0.9885
X2.6183Y-0.8896
X2.6233Y-1.0859
X2.6436Y-0.9478
X2.6436Y-1.0208
X2.6865Y-0.8887
X2.6865Y-1.0798
X2.7002Y-0.8268
X2.7084Y-1.1444
X2.7559Y-0.8661
X2.7559Y-1.1024
X2.8034Y-0.8241
X2.8116Y-1.1417
X2.8253Y-0.8887
X2.8253Y-1.0798
X2.8682Y-0.9478
X2.8682Y-1.0208
X2.8885Y-0.8826
X2.8935Y-1.0789
X2.9229Y-0.98
X7.8642Y-8.4941
X7.8642Y-8.563
X7.8642Y-8.6516
X7.8642Y-8.7402
X7.8642Y-8.8287
X7.8642Y-8.9173
X7.8642Y-8.9862
X7.9331Y-8.6909
X7.9331Y-8.7795
X7.9429Y-8.4941
X7.9429Y-8.6122
X7.9429Y-8.8583
X7.9429Y-8.9862
X7.9626Y-8.9173
X7.9724Y-8.563
X7.9921Y-8.6122
X7.9921Y-8.6909
X7.9921Y-8.7795
X7.9921Y-8.8583
X8.0118Y-8.5138
X8.0118Y-8.9665
X8.1693Y-8.5138
X8.1693Y-8.9665
X8.189Y-8.6122
X8.189Y-8.6909
X8.189Y-8.7795
X8.189Y-8.8583
X8.2087Y-8.5531
X8.2087Y-8.9173
X8.2382Y-8.6122
X8.2382Y-8.8583
X8.248Y-8.4941
X8.248Y-8.6909
X8.248Y-8.7795
X8.248Y-8.9862
X8.3169Y-8.4941
X8.3169Y-8.563
X8.3169Y-8.6516
X8.3169Y-8.7402
X8.3169Y-8.8287
X8.3169Y-8.9173
X8.3169Y-8.9862
X14.4393Y-0.9885
X14.4687Y-0.8896
X14.4737Y-1.0859
X14.494Y-0.9478
X14.494Y-1.0208
X14.5369Y-0.8887
X14.5369Y-1.0798
X14.5506Y-0.8268
X14.5588Y-1.1444
X14.6063Y-0.8661
X14.6063Y-1.1024
X14.6538Y-0.8241
X14.662Y-1.1417
X14.6757Y-0.8887
X14.6757Y-1.0798
X14.7186Y-0.9478
X14.7186Y-1.0208
X14.7389Y-0.8826
X14.7439Y-1.0789
X14.7733Y-0.98
X9.4783Y-8.4941
X9.4783Y-8.563
X9.4783Y-8.6516
X9.4783Y-8.7402
X9.4783Y-8.8287
X9.4783Y-8.9173
X9.4783Y-8.9862
X9.5472Y-8.6909
X9.5472Y-8.7795
X9.5571Y-8.4941
X9.5571Y-8.6122
X9.5571Y-8.8583
X9.5571Y-8.9862
X9.5768Y-8.9173
X9.5866Y-8.563
X9.6063Y-8.6122
X9.6063Y-8.6909
X9.6063Y-8.7795
X9.6063Y-8.8583
X9.626Y-8.5138
X9.626Y-8.9665
X9.7835Y-8.5138
X9.7835Y-8.9665
X9.8031Y-8.6122
X9.8031Y-8.6909
X9.8031Y-8.7795
X9.8031Y-8.8583
X9.8228Y-8.5531
X9.8228Y-8.9173
X9.8524Y-8.6122
X9.8524Y-8.8583
X9.8622Y-8.4941
X9.8622Y-8.6909
X9.8622Y-8.7795
X9.8622Y-8.9862
X9.9311Y-8.4941
X9.9311Y-8.563
X9.9311Y-8.6516
X9.9311Y-8.7402
X9.9311Y-8.8287
X9.9311Y-8.9173
X9.9311Y-8.9862
X12.6772Y-8.4941
X12.6772Y-8.563
X12.6772Y-8.6516
X12.6772Y-8.7402
X12.6772Y-8.8287
X12.6772Y-8.9173
X12.6772Y-8.9862
X12.7461Y-8.6909
X12.7461Y-8.7795
X12.7559Y-8.4941
X12.7559Y-8.6122
X12.7559Y-8.8583
X12.7559Y-8.9862
X12.7756Y-8.9173
X12.7854Y-8.563
X12.8051Y-8.6122
X12.8051Y-8.6909
X12.8051Y-8.7795
X12.8051Y-8.8583
X12.8248Y-8.5138
X12.8248Y-8.9665
X12.9823Y-8.5138
X12.9823Y-8.9665
X13.002Y-8.6122
X13.002Y-8.6909
X13.002Y-8.7795
X13.002Y-8.8583
X13.0217Y-8.5531
X13.0217Y-8.9173
X13.0512Y-8.6122
X13.0512Y-8.8583
X13.061Y-8.4941
X13.061Y-8.6909
X13.061Y-8.7795
X13.061Y-8.9862
X13.1299Y-8.4941
X13.1299Y-8.563
X13.1299Y-8.6516
X13.1299Y-8.7402
X13.1299Y-8.8287
X13.1299Y-8.9173
X13.1299Y-8.9862
X5.5692Y-0.9925
X5.5986Y-0.8935
X5.6037Y-1.0898
X5.6239Y-0.9517
X5.6239Y-1.0247
X5.6668Y-0.8926
X5.6668Y-1.0837
X5.6805Y-0.8307
X5.6887Y-1.1483
X5.7362Y-0.8701
X5.7362Y-1.1063
X5.7837Y-0.8281
X5.7919Y-1.1457
X5.8056Y-0.8926
X5.8056Y-1.0837
X5.8485Y-0.9517
X5.8485Y-1.0247
X5.8688Y-0.8866
X5.8738Y-1.0829
X5.9032Y-0.9839
X9.252Y-0.8169
X9.252Y-0.8858
X9.252Y-0.9744
X9.252Y-1.063
X9.252Y-1.1516
X9.252Y-1.2402
X9.252Y-1.3091
X9.3209Y-1.0138
X9.3209Y-1.1024
X9.3307Y-0.8169
X9.3307Y-0.935
X9.3307Y-1.1811
X9.3307Y-1.3091
X9.3504Y-1.2402
X9.3602Y-0.8858
X9.3799Y-0.935
X9.3799Y-1.0138
X9.3799Y-1.1024
X9.3799Y-1.1811
X9.3996Y-0.8366
X9.3996Y-1.2894
X9.5571Y-0.8366
X9.5571Y-1.2894
X9.5768Y-0.935
X9.5768Y-1.0138
X9.5768Y-1.1024
X9.5768Y-1.1811
X9.5965Y-0.876
X9.5965Y-1.2402
X9.626Y-0.935
X9.626Y-1.1811
X9.6358Y-0.8169
X9.6358Y-1.0138
X9.6358Y-1.1024
X9.6358Y-1.3091
X9.7047Y-0.8169
X9.7047Y-0.8858
X9.7047Y-0.9744
X9.7047Y-1.063
X9.7047Y-1.1516
X9.7047Y-1.2402
X9.7047Y-1.3091
X12.1913Y-8.8232
X12.2207Y-8.7242
X12.2257Y-8.9205
X12.2459Y-8.7824
X12.2459Y-8.8554
X12.2888Y-8.7233
X12.2888Y-8.9145
X12.3026Y-8.6614
X12.3107Y-8.979
X12.3583Y-8.7008
X12.3583Y-8.937
X12.4058Y-8.6588
X12.4139Y-8.9764
X12.4277Y-8.7233
X12.4277Y-8.9145
X12.4706Y-8.7824
X12.4706Y-8.8554
X12.4908Y-8.7173
X12.4959Y-8.9136
X12.5252Y-8.8146
X4.1913Y-8.8232
X4.2207Y-8.7242
X4.2257Y-8.9205
X4.2459Y-8.7824
X4.2459Y-8.8554
X4.2888Y-8.7233
X4.2888Y-8.9145
X4.3026Y-8.6614
X4.3107Y-8.979
X4.3583Y-8.7008
X4.3583Y-8.937
X4.4058Y-8.6588
X4.4139Y-8.9764
X4.4277Y-8.7233
X4.4277Y-8.9145
X4.4706Y-8.7824
X4.4706Y-8.8554
X4.4908Y-8.7173
X4.4959Y-8.9136
X4.5252Y-8.8146
X13.8386Y-0.8169
X13.8386Y-0.8858
X13.8386Y-0.9744
X13.8386Y-1.063
X13.8386Y-1.1516
X13.8386Y-1.2402
X13.8386Y-1.3091
X13.9075Y-1.0138
X13.9075Y-1.1024
X13.9173Y-0.8169
X13.9173Y-0.935
X13.9173Y-1.1811
X13.9173Y-1.3091
X13.937Y-1.2402
X13.9469Y-0.8858
X13.9665Y-0.935
X13.9665Y-1.0138
X13.9665Y-1.1024
X13.9665Y-1.1811
X13.9862Y-0.8366
X13.9862Y-1.2894
X14.1437Y-0.8366
X14.1437Y-1.2894
X14.1634Y-0.935
X14.1634Y-1.0138
X14.1634Y-1.1024
X14.1634Y-1.1811
X14.1831Y-0.876
X14.1831Y-1.2402
X14.2126Y-0.935
X14.2126Y-1.1811
X14.2224Y-0.8169
X14.2224Y-1.0138
X14.2224Y-1.1024
X14.2224Y-1.3091
X14.2913Y-0.8169
X14.2913Y-0.8858
X14.2913Y-0.9744
X14.2913Y-1.063
X14.2913Y-1.1516
X14.2913Y-1.2402
X14.2913Y-1.3091
X13.8386Y-8.4941
X13.8386Y-8.563
X13.8386Y-8.6516
X13.8386Y-8.7402
X13.8386Y-8.8287
X13.8386Y-8.9173
X13.8386Y-8.9862
X13.9075Y-8.6909
X13.9075Y-8.7795
X13.9173Y-8.4941
X13.9173Y-8.6122
X13.9173Y-8.8583
X13.9173Y-8.9862
X13.937Y-8.9173
X13.9469Y-8.563
X13.9665Y-8.6122
X13.9665Y-8.6909
X13.9665Y-8.7795
X13.9665Y-8.8583
X13.9862Y-8.5138
X13.9862Y-8.9665
X14.1437Y-8.5138
X14.1437Y-8.9665
X14.1634Y-8.6122
X14.1634Y-8.6909
X14.1634Y-8.7795
X14.1634Y-8.8583
X14.1831Y-8.5531
X14.1831Y-8.9173
X14.2126Y-8.6122
X14.2126Y-8.8583
X14.2224Y-8.4941
X14.2224Y-8.6909
X14.2224Y-8.7795
X14.2224Y-8.9862
X14.2913Y-8.4941
X14.2913Y-8.563
X14.2913Y-8.6516
X14.2913Y-8.7402
X14.2913Y-8.8287
X14.2913Y-8.9173
X14.2913Y-8.9862
X14.4393Y-8.8232
X14.4687Y-8.7242
X14.4737Y-8.9205
X14.494Y-8.7824
X14.494Y-8.8554
X14.5369Y-8.7233
X14.5369Y-8.9145
X14.5506Y-8.6614
X14.5588Y-8.979
X14.6063Y-8.7008
X14.6063Y-8.937
X14.6538Y-8.6588
X14.662Y-8.9764
X14.6757Y-8.7233
X14.6757Y-8.9145
X14.7186Y-8.7824
X14.7186Y-8.8554
X14.7389Y-8.7173
X14.7439Y-8.9136
X14.7733Y-8.8146
X4.6654Y-8.4941
X4.6654Y-8.563
X4.6654Y-8.6516
X4.6654Y-8.7402
X4.6654Y-8.8287
X4.6654Y-8.9173
X4.6654Y-8.9862
X4.7343Y-8.6909
X4.7343Y-8.7795
X4.7441Y-8.4941
X4.7441Y-8.6122
X4.7441Y-8.8583
X4.7441Y-8.9862
X4.7638Y-8.9173
X4.7736Y-8.563
X4.7933Y-8.6122
X4.7933Y-8.6909
X4.7933Y-8.7795
X4.7933Y-8.8583
X4.813Y-8.5138
X4.813Y-8.9665
X4.9705Y-8.5138
X4.9705Y-8.9665
X4.9902Y-8.6122
X4.9902Y-8.6909
X4.9902Y-8.7795
X4.9902Y-8.8583
X5.0098Y-8.5531
X5.0098Y-8.9173
X5.0394Y-8.6122
X5.0394Y-8.8583
X5.0492Y-8.4941
X5.0492Y-8.6909
X5.0492Y-8.7795
X5.0492Y-8.9862
X5.1181Y-8.4941
X5.1181Y-8.563
X5.1181Y-8.6516
X5.1181Y-8.7402
X5.1181Y-8.8287
X5.1181Y-8.9173
X5.1181Y-8.9862
X7.1716Y-0.9885
X7.201Y-0.8896
X7.206Y-1.0859
X7.2263Y-0.9478
X7.2263Y-1.0208
X7.2692Y-0.8887
X7.2692Y-1.0798
X7.2829Y-0.8268
X7.2911Y-1.1444
X7.3386Y-0.8661
X7.3386Y-1.1024
X7.3861Y-0.8241
X7.3943Y-1.1417
X7.408Y-0.8887
X7.408Y-1.0798
X7.4509Y-0.9478
X7.4509Y-1.0208
X7.4711Y-0.8826
X7.4762Y-1.0789
X7.5056Y-0.98
X11.0728Y-8.4941
X11.0728Y-8.563
X11.0728Y-8.6516
X11.0728Y-8.7402
X11.0728Y-8.8287
X11.0728Y-8.9173
X11.0728Y-8.9862
X11.1417Y-8.6909
X11.1417Y-8.7795
X11.1516Y-8.4941
X11.1516Y-8.6122
X11.1516Y-8.8583
X11.1516Y-8.9862
X11.1713Y-8.9173
X11.1811Y-8.563
X11.2008Y-8.6122
X11.2008Y-8.6909
X11.2008Y-8.7795
X11.2008Y-8.8583
X11.2205Y-8.5138
X11.2205Y-8.9665
X11.378Y-8.5138
X11.378Y-8.9665
X11.3976Y-8.6122
X11.3976Y-8.6909
X11.3976Y-8.7795
X11.3976Y-8.8583
X11.4173Y-8.5531
X11.4173Y-8.9173
X11.4469Y-8.6122
X11.4469Y-8.8583
X11.4567Y-8.4941
X11.4567Y-8.6909
X11.4567Y-8.7795
X11.4567Y-8.9862
X11.5256Y-8.4941
X11.5256Y-8.563
X11.5256Y-8.6516
X11.5256Y-8.7402
X11.5256Y-8.8287
X11.5256Y-8.9173
X11.5256Y-8.9862
X2.9724Y-0.8268
X2.9724Y-0.8957
X2.9724Y-0.9843
X2.9724Y-1.0728
X2.9724Y-1.1614
X2.9724Y-1.25
X2.9724Y-1.3189
X3.0413Y-1.0236
X3.0413Y-1.1122
X3.0512Y-0.8268
X3.0512Y-0.9449
X3.0512Y-1.1909
X3.0512Y-1.3189
X3.0709Y-1.25
X3.0807Y-0.8957
X3.1004Y-0.9449
X3.1004Y-1.0236
X3.1004Y-1.1122
X3.1004Y-1.1909
X3.1201Y-0.8465
X3.1201Y-1.2992
X3.2776Y-0.8465
X3.2776Y-1.2992
X3.2972Y-0.9449
X3.2972Y-1.0236
X3.2972Y-1.1122
X3.2972Y-1.1909
X3.3169Y-0.8858
X3.3169Y-1.25
X3.3465Y-0.9449
X3.3465Y-1.1909
X3.3563Y-0.8268
X3.3563Y-1.0236
X3.3563Y-1.1122
X3.3563Y-1.3189
X3.4252Y-0.8957
X3.4252Y-0.9843
X3.4252Y-1.0728
X3.4252Y-1.1614
X3.4252Y-1.25
X3.4252Y-1.3189
X10.5929Y-8.8232
X10.6222Y-8.7242
X10.6273Y-8.9205
X10.6475Y-8.7824
X10.6475Y-8.8554
X10.6904Y-8.7233
X10.6904Y-8.9145
X10.7042Y-8.6614
X10.7123Y-8.979
X10.7598Y-8.7008
X10.7598Y-8.937
X10.8074Y-8.6588
X10.8155Y-8.9764
X10.8293Y-8.7233
X10.8293Y-8.9145
X10.8722Y-8.7824
X10.8722Y-8.8554
X10.8924Y-8.7173
X10.8975Y-8.9136
X10.9268Y-8.8146
X2.585Y-8.8232
X2.6144Y-8.7242
X2.6194Y-8.9205
X2.6396Y-8.7824
X2.6396Y-8.8554
X2.6825Y-8.7233
X2.6825Y-8.9145
X2.6963Y-8.6614
X2.7044Y-8.979
X2.752Y-8.7008
X2.752Y-8.937
X2.7995Y-8.6588
X2.8076Y-8.9764
X2.8214Y-8.7233
X2.8214Y-8.9145
X2.8643Y-8.7824
X2.8643Y-8.8554
X2.8845Y-8.7173
X2.8896Y-8.9136
X2.9189Y-8.8146
X7.6575Y-0.8169
X7.6575Y-0.8858
X7.6575Y-0.9744
X7.6575Y-1.063
X7.6575Y-1.1516
X7.6575Y-1.2402
X7.6575Y-1.3091
X7.7264Y-1.0138
X7.7264Y-1.1024
X7.7362Y-0.8169
X7.7362Y-0.935
X7.7362Y-1.1811
X7.7362Y-1.3091
X7.7559Y-1.2402
X7.7657Y-0.8858
X7.7854Y-0.935
X7.7854Y-1.0138
X7.7854Y-1.1024
X7.7854Y-1.1811
X7.8051Y-0.8366
X7.8051Y-1.2894
X7.9626Y-0.8366
X7.9626Y-1.2894
X7.9823Y-0.935
X7.9823Y-1.0138
X7.9823Y-1.1024
X7.9823Y-1.1811
X8.002Y-0.876
X8.002Y-1.2402
X8.0315Y-0.935
X8.0315Y-1.1811
X8.0413Y-0.8169
X8.0413Y-1.0138
X8.0413Y-1.1024
X8.0413Y-1.3091
X8.1102Y-0.8169
X8.1102Y-0.8858
X8.1102Y-0.9744
X8.1102Y-1.063
X8.1102Y-1.1516
X8.1102Y-1.2402
X8.1102Y-1.3091
X11.9905Y-0.9885
X12.0199Y-0.8896
X12.0249Y-1.0859
X12.0452Y-0.9478
X12.0452Y-1.0208
X12.0881Y-0.8887
X12.0881Y-1.0798
X12.1018Y-0.8268
X12.11Y-1.1444
X12.1575Y-0.8661
X12.1575Y-1.1024
X12.205Y-0.8241
X12.2132Y-1.1417
X12.2269Y-0.8887
X12.2269Y-1.0798
X12.2698Y-0.9478
X12.2698Y-1.0208
X12.29Y-0.8826
X12.2951Y-1.0789
X12.3245Y-0.98
X6.0531Y-0.8169
X6.0531Y-0.8858
X6.0531Y-0.9744
X6.0531Y-1.063
X6.0531Y-1.1516
X6.0531Y-1.2402
X6.0531Y-1.3091
X6.122Y-1.0138
X6.122Y-1.1024
X6.1319Y-0.8169
X6.1319Y-0.935
X6.1319Y-1.1811
X6.1319Y-1.3091
X6.1516Y-1.2402
X6.1614Y-0.8858
X6.1811Y-0.935
X6.1811Y-1.0138
X6.1811Y-1.1024
X6.1811Y-1.1811
X6.2008Y-0.8366
X6.2008Y-1.2894
X6.3583Y-0.8366
X6.3583Y-1.2894
X6.378Y-0.935
X6.378Y-1.0138
X6.378Y-1.1024
X6.378Y-1.1811
X6.3976Y-0.876
X6.3976Y-1.2402
X6.4272Y-0.935
X6.4272Y-1.1811
X6.437Y-0.8169
X6.437Y-1.0138
X6.437Y-1.1024
X6.437Y-1.3091
X6.5059Y-0.8169
X6.5059Y-0.8858
X6.5059Y-0.9744
X6.5059Y-1.063
X6.5059Y-1.1516
X6.5059Y-1.2402
X6.5059Y-1.3091
X3.0709Y-8.4941
X3.0709Y-8.563
X3.0709Y-8.6516
X3.0709Y-8.7402
X3.0709Y-8.8287
X3.0709Y-8.9173
X3.0709Y-8.9862
X3.1398Y-8.6909
X3.1398Y-8.7795
X3.1496Y-8.4941
X3.1496Y-8.6122
X3.1496Y-8.8583
X3.1496Y-8.9862
X3.1693Y-8.9173
X3.1791Y-8.563
X3.1988Y-8.6122
X3.1988Y-8.6909
X3.1988Y-8.7795
X3.1988Y-8.8583
X3.2185Y-8.5138
X3.2185Y-8.9665
X3.376Y-8.5138
X3.376Y-8.9665
X3.3957Y-8.6122
X3.3957Y-8.6909
X3.3957Y-8.7795
X3.3957Y-8.8583
X3.4154Y-8.5531
X3.4154Y-8.9173
X3.4449Y-8.6122
X3.4449Y-8.8583
X3.4547Y-8.4941
X3.4547Y-8.6909
X3.4547Y-8.7795
X3.4547Y-8.9862
X3.5236Y-8.4941
X3.5236Y-8.563
X3.5236Y-8.6516
X3.5236Y-8.7402
X3.5236Y-8.8287
X3.5236Y-8.9173
X3.5236Y-8.9862
X10.8563Y-0.8169
X10.8563Y-0.8858
X10.8563Y-0.9744
X10.8563Y-1.063
X10.8563Y-1.1516
X10.8563Y-1.2402
X10.8563Y-1.3091
X10.9252Y-1.0138
X10.9252Y-1.1024
X10.935Y-0.8169
X10.935Y-0.935
X10.935Y-1.1811
X10.935Y-1.3091
X10.9547Y-1.2402
X10.9646Y-0.8858
X10.9843Y-0.935
X10.9843Y-1.0138
X10.9843Y-1.1024
X10.9843Y-1.1811
X11.0039Y-0.8366
X11.0039Y-1.2894
X11.1614Y-0.8366
X11.1614Y-1.2894
X11.1811Y-0.935
X11.1811Y-1.0138
X11.1811Y-1.1024
X11.1811Y-1.1811
X11.2008Y-0.876
X11.2008Y-1.2402
X11.2303Y-0.935
X11.2303Y-1.1811
X11.2402Y-0.8169
X11.2402Y-1.0138
X11.2402Y-1.1024
X11.2402Y-1.3091
X11.3091Y-0.8169
X11.3091Y-0.8858
X11.3091Y-0.9744
X11.3091Y-1.063
X11.3091Y-1.1516
X11.3091Y-1.2402
X11.3091Y-1.3091
X10.3763Y-0.9885
X10.4057Y-0.8896
X10.4107Y-1.0859
X10.431Y-0.9478
X10.431Y-1.0208
X10.4739Y-0.8887
X10.4739Y-1.0798
X10.4876Y-0.8268
X10.4958Y-1.1444
X10.5433Y-0.8661
X10.5433Y-1.1024
X10.5908Y-0.8241
X10.599Y-1.1417
X10.6127Y-0.8887
X10.6127Y-1.0798
X10.6556Y-0.9478
X10.6556Y-1.0208
X10.6759Y-0.8826
X10.6809Y-1.0789
X10.7103Y-0.98
X3.9669Y-0.9885
X3.9962Y-0.8896
X4.0013Y-1.0859
X4.0215Y-0.9478
X4.0215Y-1.0208
X4.0644Y-0.8887
X4.0644Y-1.0798
X4.0782Y-0.8268
X4.0863Y-1.1444
X4.1339Y-0.8661
X4.1339Y-1.1024
X4.1814Y-0.8241
X4.1895Y-1.1417
X4.2033Y-0.8887
X4.2033Y-1.0798
X4.2462Y-0.9478
X4.2462Y-1.0208
X4.2664Y-0.8826
X4.2715Y-1.0789
X4.3008Y-0.98
X8.774Y-0.9885
X8.8033Y-0.8896
X8.8084Y-1.0859
X8.8286Y-0.9478
X8.8286Y-1.0208
X8.8715Y-0.8887
X8.8715Y-1.0798
X8.8853Y-0.8268
X8.8934Y-1.1444
X8.9409Y-0.8661
X8.9409Y-1.1024
X8.9885Y-0.8241
X8.9966Y-1.1417
X9.0104Y-0.8887
X9.0104Y-1.0798
X9.0533Y-0.9478
X9.0533Y-1.0208
X9.0735Y-0.8826
X9.0786Y-1.0789
X9.1079Y-0.98
X12.4803Y-0.8169
X12.4803Y-0.8858
X12.4803Y-0.9744
X12.4803Y-1.063
X12.4803Y-1.1516
X12.4803Y-1.2402
X12.4803Y-1.3091
X12.5492Y-1.0138
X12.5492Y-1.1024
X12.5591Y-0.8169
X12.5591Y-0.935
X12.5591Y-1.1811
X12.5591Y-1.3091
X12.5787Y-1.2402
X12.5886Y-0.8858
X12.6083Y-0.935
X12.6083Y-1.0138
X12.6083Y-1.1024
X12.6083Y-1.1811
X12.628Y-0.8366
X12.628Y-1.2894
X12.7854Y-0.8366
X12.7854Y-1.2894
X12.8051Y-0.935
X12.8051Y-1.0138
X12.8051Y-1.1024
X12.8051Y-1.1811
X12.8248Y-0.876
X12.8248Y-1.2402
X12.8543Y-0.935
X12.8543Y-1.1811
X12.8642Y-0.8169
X12.8642Y-1.0138
X12.8642Y-1.1024
X12.8642Y-1.3091
X12.9331Y-0.8169
X12.9331Y-0.8858
X12.9331Y-0.9744
X12.9331Y-1.063
X12.9331Y-1.1516
X12.9331Y-1.2402
X12.9331Y-1.3091
X5.7858Y-8.8232
X5.8151Y-8.7242
X5.8202Y-8.9205
X5.8404Y-8.7824
X5.8404Y-8.8554
X5.8833Y-8.7233
X5.8833Y-8.9145
X5.8971Y-8.6614
X5.9052Y-8.979
X5.9528Y-8.7008
X5.9528Y-8.937
X6.0003Y-8.6588
X6.0084Y-8.9764
X6.0222Y-8.7233
X6.0222Y-8.9145
X6.0651Y-8.7824
X6.0651Y-8.8554
X6.0853Y-8.7173
X6.0904Y-8.9136
X6.1197Y-8.8146
X6.2697Y-8.4941
X6.2697Y-8.563
X6.2697Y-8.6516
X6.2697Y-8.7402
X6.2697Y-8.8287
X6.2697Y-8.9173
X6.2697Y-8.9862
X6.3386Y-8.6909
X6.3386Y-8.7795
X6.3484Y-8.4941
X6.3484Y-8.6122
X6.3484Y-8.8583
X6.3484Y-8.9862
X6.3681Y-8.9173
X6.378Y-8.563
X6.3976Y-8.6122
X6.3976Y-8.6909
X6.3976Y-8.7795
X6.3976Y-8.8583
X6.4173Y-8.5138
X6.4173Y-8.9665
X6.5748Y-8.5138
X6.5748Y-8.9665
X6.5945Y-8.6122
X6.5945Y-8.6909
X6.5945Y-8.7795
X6.5945Y-8.8583
X6.6142Y-8.5531
X6.6142Y-8.9173
X6.6437Y-8.6122
X6.6437Y-8.8583
X6.6535Y-8.4941
X6.6535Y-8.6909
X6.6535Y-8.7795
X6.6535Y-8.9862
X6.7224Y-8.4941
X6.7224Y-8.563
X6.7224Y-8.6516
X6.7224Y-8.7402
X6.7224Y-8.8287
X6.7224Y-8.9173
X6.7224Y-8.9862
X7.3803Y-8.8232
X7.4096Y-8.7242
X7.4147Y-8.9205
X7.4349Y-8.7824
X7.4349Y-8.8554
X7.4778Y-8.7233
X7.4778Y-8.9145
X7.4916Y-8.6614
X7.4997Y-8.979
X7.5472Y-8.7008
X7.5472Y-8.937
X7.5948Y-8.6588
X7.6029Y-8.9764
X7.6167Y-8.7233
X7.6167Y-8.9145
X7.6596Y-8.7824
X7.6596Y-8.8554
X7.6798Y-8.7173
X7.6849Y-8.9136
X7.7142Y-8.8146
X8.9984Y-8.8232
X9.0277Y-8.7242
X9.0328Y-8.9205
X9.053Y-8.7824
X9.053Y-8.8554
X9.0959Y-8.7233
X9.0959Y-8.9145
X9.1097Y-8.6614
X9.1178Y-8.979
X9.1654Y-8.7008
X9.1654Y-8.937
X9.2129Y-8.6588
X9.221Y-8.9764
X9.2348Y-8.7233
X9.2348Y-8.9145
X9.2777Y-8.7824
X9.2777Y-8.8554
X9.2979Y-8.7173
X9.303Y-8.9136
X9.3323Y-8.8146
T2
X3.5433Y-5.9154
X11.5024Y-0.8268
X11.6024Y-0.8268
X11.8799Y-0.9252
X11.8799Y-1.9882
X11.7224Y-7.815
X11.7224Y-8.878
X12.0Y-8.9764
X12.1Y-8.9764
X4.0945Y-6.8406
X9.8882Y-0.8268
X9.9882Y-0.8268
X10.2657Y-0.9252
X10.2657Y-1.9882
X8.2839Y-0.8268
X8.3839Y-0.8268
X8.6614Y-0.9252
X8.6614Y-1.9882
X3.7303Y-5.9154
X4.3091Y-6.3583
X4.3091Y-6.4583
X5.2067Y-7.1299
X5.2067Y-7.2299
X6.6795Y-0.8268
X6.7795Y-0.8268
X7.0571Y-0.9252
X7.0571Y-1.9882
X4.111Y-6.0827
X4.211Y-6.0827
X4.311Y-6.0827
X10.1181Y-7.815
X10.1181Y-8.878
X10.3957Y-8.9764
X10.4957Y-8.9764
X13.1165Y-0.8268
X13.2165Y-0.8268
X13.4941Y-0.9252
X13.4941Y-1.9882
X4.0945Y-6.7421
X13.8843Y-4.2677
X13.9843Y-4.2677
X14.2618Y-4.3661
X14.2618Y-5.4291
X4.1122Y-6.3567
X4.1122Y-6.4567
X6.9094Y-7.815
X6.9094Y-8.878
X7.187Y-8.9764
X7.287Y-8.9764
X5.2067Y-7.0
X4.498Y-6.3567
X4.498Y-6.4567
X3.7205Y-7.815
X3.7205Y-8.878
X3.998Y-8.9764
X4.098Y-8.9764
X3.9154Y-6.3583
X3.9154Y-6.4583
X5.315Y-7.815
X5.315Y-8.878
X5.5925Y-8.9764
X5.6925Y-8.9764
X13.3268Y-7.815
X13.3268Y-8.878
X13.6043Y-8.9764
X13.7043Y-8.9764
X8.5236Y-7.815
X8.5236Y-8.878
X8.8012Y-8.9764
X8.9012Y-8.9764
X4.1929Y-6.7421
X5.0752Y-0.8268
X5.1752Y-0.8268
X5.4528Y-0.9252
X5.4528Y-1.9882
X3.3563Y-5.9154
X3.4709Y-0.8268
X3.5709Y-0.8268
X3.8484Y-0.9252
X3.8484Y-1.9882
X4.1929Y-6.8406
T3
X5.7382Y-1.3091
X5.7382Y-1.9091
X12.3622Y-7.8941
X12.3622Y-8.4941
X4.3602Y-7.8941
X4.3602Y-8.4941
X7.3425Y-1.3091
X7.3425Y-1.9091
X5.9547Y-7.8941
X5.9547Y-8.4941
X4.4866Y-7.0
X5.0866Y-7.0
X7.5492Y-7.8941
X7.5492Y-8.4941
X5.8074Y-7.1487
X5.8074Y-7.2963
X5.9452Y-7.1487
X5.9452Y-7.2963
X6.083Y-7.1487
X6.083Y-7.2963
X6.2208Y-7.1487
X6.2208Y-7.2963
X6.3586Y-7.1487
X6.3586Y-7.2963
X6.4964Y-7.1487
X6.4964Y-7.2963
X6.6342Y-7.1487
X6.6342Y-7.2963
X6.772Y-7.1487
X6.772Y-7.2963
X6.9098Y-7.1487
X6.9098Y-7.2963
X7.2046Y-7.1487
X7.2046Y-7.2963
X7.3424Y-7.1487
X7.3424Y-7.2963
X7.4802Y-7.1487
X7.4802Y-7.2963
X7.618Y-7.1487
X7.618Y-7.2963
X7.7558Y-7.1487
X7.7558Y-7.2963
X7.8936Y-7.1487
X7.8936Y-7.2963
X8.0314Y-7.1487
X8.0314Y-7.2963
X8.1692Y-7.1487
X8.1692Y-7.2963
X8.307Y-7.1487
X8.307Y-7.2963
X14.498Y-7.8941
X14.498Y-8.4941
X12.1555Y-1.3091
X12.1555Y-1.9091
X9.1634Y-7.8941
X9.1634Y-8.4941
X8.937Y-1.3091
X8.937Y-1.9091
X10.7579Y-7.8941
X10.7579Y-8.4941
X14.498Y-1.3091
X14.498Y-1.9091
X2.8642Y-7.8941
X2.8642Y-8.4941
X10.5413Y-1.3091
X10.5413Y-1.9091
X4.1339Y-1.3091
X4.1339Y-1.9091
X2.8642Y-1.3091
X2.8642Y-1.9091
T4
X3.3465Y-4.3532
X3.3465Y-5.4556
T5
X3.6713Y-0.9449
X3.6713Y-1.9685
X11.7028Y-0.9449
X11.7028Y-1.9685
X11.8996Y-7.8346
X11.8996Y-8.8583
X10.0886Y-0.9449
X10.0886Y-1.9685
X8.4843Y-0.9449
X8.4843Y-1.9685
X6.8799Y-0.9449
X6.8799Y-1.9685
X10.2953Y-7.8346
X10.2953Y-8.8583
X13.3169Y-0.9449
X13.3169Y-1.9685
X14.0846Y-4.3858
X14.0846Y-5.4094
X7.0866Y-7.8346
X7.0866Y-8.8583
X3.8976Y-7.8346
X3.8976Y-8.8583
X5.4921Y-7.8346
X5.4921Y-8.8583
X13.5039Y-7.8346
X13.5039Y-8.8583
X8.7008Y-7.8346
X8.7008Y-8.8583
X5.2756Y-0.9449
X5.2756Y-1.9685
T6
X5.4921Y-2.6969
X5.4921Y-7.1063
X11.8701Y-2.6969
X11.8701Y-7.1063
T8
X2.6772Y-4.8819
X14.5413Y-4.8819
T9
X14.6063Y-0.9843
X5.7362Y-0.9882
X12.3583Y-8.8189
X4.3583Y-8.8189
X14.6063Y-8.8189
X7.3386Y-0.9843
X10.7598Y-8.8189
X2.752Y-8.8189
X12.1575Y-0.9843
X10.5433Y-0.9843
X4.1339Y-0.9843
X8.9409Y-0.9843
X5.9528Y-8.8189
X7.5472Y-8.8189
X9.1654Y-8.8189
X2.7559Y-0.9843
T10
X6.4272Y-4.9705
X6.4272Y-6.2303
X7.687Y-4.9705
X7.687Y-6.2303
T7
G00X3.2972Y-8.9037
M15
G01X3.2972Y-8.5767
M16
G05
G00X11.0827Y-1.2265
M15
G01X11.0827Y-0.8995
M16
G05
G00X12.7067Y-1.2265
M15
G01X12.7067Y-0.8995
M16
G05
G00X6.4961Y-8.9037
M15
G01X6.4961Y-8.5767
M16
G05
G00X4.6752Y-1.2265
M15
G01X4.6752Y-0.8995
M16
G05
G00X8.0906Y-8.9037
M15
G01X8.0906Y-8.5767
M16
G05
G00X9.7047Y-8.9037
M15
G01X9.7047Y-8.5767
M16
G05
G00X12.9035Y-8.9037
M15
G01X12.9035Y-8.5767
M16
G05
G00X9.4783Y-1.2265
M15
G01X9.4783Y-0.8995
M16
G05
G00X14.065Y-1.2265
M15
G01X14.065Y-0.8995
M16
G05
G00X14.065Y-8.9037
M15
G01X14.065Y-8.5767
M16
G05
G00X4.8917Y-8.9037
M15
G01X4.8917Y-8.5767
M16
G05
G00X11.2992Y-8.9037
M15
G01X11.2992Y-8.5767
M16
G05
G00X3.1988Y-1.2363
M15
G01X3.1988Y-0.9093
M16
G05
G00X7.8839Y-1.2265
M15
G01X7.8839Y-0.8995
M16
G05
G00X6.2795Y-1.2265
M15
G01X6.2795Y-0.8995
M16
G05
T0
M30
