  0
SECTION
  2
HEADER
  9
$ANGBASE
  50
0.0
  9
$ANGDIR
  70
  1
  9
$MEASUREMENT
  70
0
  0
ENDSEC
  0
SECTION
  2
TABLES
  0
TABLE
  2
LTYPE
  70
4
  0
LTYPE
  5
40F
  2
CONTINUOUS
  70
0
  3
Solid line
  72
65
  73
0
  40
0.0
  0
LTYPE
  5
410
  2
DASHDOT
 70
0
  3
Dash Dot ____ _ ____ _
 72
65
 73
4
 40
2.0
 49
1.25
 49
-0.25
 49
0.25
 49
-0.25
  0
LTYPE
  5
411
  2
DASHED
 70
0
  3
Dashed __ __ __ __ __
 72
65
 73
2
 40
0.75
 49
0.5
 49
-0.25
  0
LTYPE
  5
43B
  2
DOTTED
 70
0
  3
Dotted .  .  .  .
 72
65
 73
2
 40
0.2
 49
0.0
 49
-0.2
  0
ENDTAB
  0
TABLE
  2
STYLE
  70
4
  0
STYLE
  2
KICAD
  70
0
  40
0
  41
1
  42
1
  50
0
  71
0
  3
isocp.shx
  0
STYLE
  2
KICADB
  70
0
  40
0
  41
1
  42
1
  50
0
  71
0
  3
isocp.shx
  0
STYLE
  2
KICADI
  70
0
  40
0
  41
1
  42
1
  50
15
  71
0
  3
isocp.shx
  0
STYLE
  2
KICADBI
  70
0
  40
0
  41
1
  42
1
  50
15
  71
0
  3
isocp.shx
  0
ENDTAB
  0
TABLE
  2
LAYER
  70
30
  0
LAYER
  2
BLACK
  70
0
  62
7
  6
CONTINUOUS
  0
LAYER
  2
GRAY1
  70
0
  62
251
  6
CONTINUOUS
  0
LAYER
  2
GRAY2
  70
0
  62
8
  6
CONTINUOUS
  0
LAYER
  2
GRAY3
  70
0
  62
9
  6
CONTINUOUS
  0
LAYER
  2
WHITE
  70
0
  62
7
  6
CONTINUOUS
  0
LAYER
  2
LYELLOW
  70
0
  62
51
  6
CONTINUOUS
  0
LAYER
  2
BLUE1
  70
0
  62
178
  6
CONTINUOUS
  0
LAYER
  2
GREEN1
  70
0
  62
98
  6
CONTINUOUS
  0
LAYER
  2
CYAN1
  70
0
  62
138
  6
CONTINUOUS
  0
LAYER
  2
RED1
  70
0
  62
18
  6
CONTINUOUS
  0
LAYER
  2
MAGENTA1
  70
0
  62
228
  6
CONTINUOUS
  0
LAYER
  2
BROWN1
  70
0
  62
58
  6
CONTINUOUS
  0
LAYER
  2
BLUE2
  70
0
  62
5
  6
CONTINUOUS
  0
LAYER
  2
GREEN2
  70
0
  62
3
  6
CONTINUOUS
  0
LAYER
  2
CYAN2
  70
0
  62
4
  6
CONTINUOUS
  0
LAYER
  2
RED2
  70
0
  62
1
  6
CONTINUOUS
  0
LAYER
  2
MAGENTA2
  70
0
  62
6
  6
CONTINUOUS
  0
LAYER
  2
BROWN2
  70
0
  62
54
  6
CONTINUOUS
  0
LAYER
  2
BLUE3
  70
0
  62
171
  6
CONTINUOUS
  0
LAYER
  2
GREEN3
  70
0
  62
91
  6
CONTINUOUS
  0
LAYER
  2
CYAN3
  70
0
  62
131
  6
CONTINUOUS
  0
LAYER
  2
RED3
  70
0
  62
11
  6
CONTINUOUS
  0
LAYER
  2
MAGENTA3
  70
0
  62
221
  6
CONTINUOUS
  0
LAYER
  2
YELLOW3
  70
0
  62
2
  6
CONTINUOUS
  0
LAYER
  2
BLUE4
  70
0
  62
5
  6
CONTINUOUS
  0
LAYER
  2
GREEN4
  70
0
  62
3
  6
CONTINUOUS
  0
LAYER
  2
CYAN4
  70
0
  62
4
  6
CONTINUOUS
  0
LAYER
  2
RED4
  70
0
  62
1
  6
CONTINUOUS
  0
LAYER
  2
MAGENTA4
  70
0
  62
6
  6
CONTINUOUS
  0
LAYER
  2
YELLOW4
  70
0
  62
2
  6
CONTINUOUS
  0
ENDTAB
  0
ENDSEC
  0
SECTION
  2
ENTITIES
0
LINE
8
BLACK
6
CONTINUOUS
10
170.005
20
0.1
11
170.02
21
0.098552
0
LINE
8
BLACK
6
CONTINUOUS
10
170.02
20
0.098552
11
170.038
21
0.092834
0
LINE
8
BLACK
6
CONTINUOUS
10
170.038
20
0.092834
11
170.056
21
0.083549
0
LINE
8
BLACK
6
CONTINUOUS
10
170.056
20
0.083549
11
170.071
21
0.071052
0
LINE
8
BLACK
6
CONTINUOUS
10
170.071
20
0.071052
11
170.084
21
0.055825
0
LINE
8
BLACK
6
CONTINUOUS
10
170.084
20
0.055825
11
170.093
21
0.038453
0
LINE
8
BLACK
6
CONTINUOUS
10
170.093
20
0.038453
11
170.099
21
0.019603
0
LINE
8
BLACK
6
CONTINUOUS
10
170.099
20
0.019603
11
170.1
21
0
0
LINE
8
BLACK
6
CONTINUOUS
10
170.1
20
0
11
170.1
21
-0.004903
0
LINE
8
BLACK
6
CONTINUOUS
10
170.1
20
-0.004903
11
170.1
21
-119.995
0
LINE
8
BLACK
6
CONTINUOUS
10
170.1
20
-119.995
11
170.1
21
-120
0
LINE
8
BLACK
6
CONTINUOUS
10
170.1
20
-120
11
170.099
21
-120.02
0
LINE
8
BLACK
6
CONTINUOUS
10
170.099
20
-120.02
11
170.093
21
-120.038
0
LINE
8
BLACK
6
CONTINUOUS
10
170.093
20
-120.038
11
170.084
21
-120.056
0
LINE
8
BLACK
6
CONTINUOUS
10
170.084
20
-120.056
11
170.071
21
-120.071
0
LINE
8
BLACK
6
CONTINUOUS
10
170.071
20
-120.071
11
170.056
21
-120.084
0
LINE
8
BLACK
6
CONTINUOUS
10
170.056
20
-120.084
11
170.038
21
-120.093
0
LINE
8
BLACK
6
CONTINUOUS
10
170.038
20
-120.093
11
170.02
21
-120.099
0
LINE
8
BLACK
6
CONTINUOUS
10
170.02
20
-120.099
11
170.005
21
-120.1
0
LINE
8
BLACK
6
CONTINUOUS
10
170.005
20
-120.1
11
170
21
-120.1
0
LINE
8
BLACK
6
CONTINUOUS
10
170
20
-120.1
11
169.995
21
-120.1
0
LINE
8
BLACK
6
CONTINUOUS
10
169.995
20
-120.1
11
0.004903
21
-120.1
0
LINE
8
BLACK
6
CONTINUOUS
10
0.004903
20
-120.1
11
0
21
-120.1
0
LINE
8
BLACK
6
CONTINUOUS
10
0
20
-120.1
11
-0.019603
21
-120.099
0
LINE
8
BLACK
6
CONTINUOUS
10
-0.019603
20
-120.099
11
-0.038453
21
-120.093
0
LINE
8
BLACK
6
CONTINUOUS
10
-0.038453
20
-120.093
11
-0.055825
21
-120.084
0
LINE
8
BLACK
6
CONTINUOUS
10
-0.055825
20
-120.084
11
-0.071052
21
-120.071
0
LINE
8
BLACK
6
CONTINUOUS
10
-0.071052
20
-120.071
11
-0.083549
21
-120.056
0
LINE
8
BLACK
6
CONTINUOUS
10
-0.083549
20
-120.056
11
-0.092834
21
-120.038
0
LINE
8
BLACK
6
CONTINUOUS
10
-0.092834
20
-120.038
11
-0.098552
21
-120.02
0
LINE
8
BLACK
6
CONTINUOUS
10
-0.098552
20
-120.02
11
-0.100483
21
-120
0
LINE
8
BLACK
6
CONTINUOUS
10
-0.100483
20
-120
11
-0.1
21
-119.995
0
LINE
8
BLACK
6
CONTINUOUS
10
-0.1
20
-119.995
11
-0.099999
21
-0.004913
0
LINE
8
BLACK
6
CONTINUOUS
10
-0.099999
20
-0.004913
11
-0.100483
21
0
0
LINE
8
BLACK
6
CONTINUOUS
10
-0.100483
20
0
11
-0.098552
21
0.019603
0
LINE
8
BLACK
6
CONTINUOUS
10
-0.098552
20
0.019603
11
-0.092834
21
0.038453
0
LINE
8
BLACK
6
CONTINUOUS
10
-0.092834
20
0.038453
11
-0.083549
21
0.055825
0
LINE
8
BLACK
6
CONTINUOUS
10
-0.083549
20
0.055825
11
-0.071052
21
0.071052
0
LINE
8
BLACK
6
CONTINUOUS
10
-0.071052
20
0.071052
11
-0.055825
21
0.083549
0
LINE
8
BLACK
6
CONTINUOUS
10
-0.055825
20
0.083549
11
-0.038453
21
0.092834
0
LINE
8
BLACK
6
CONTINUOUS
10
-0.038453
20
0.092834
11
-0.019603
21
0.098552
0
LINE
8
BLACK
6
CONTINUOUS
10
-0.019603
20
0.098552
11
-0.004903
21
0.1
0
LINE
8
BLACK
6
CONTINUOUS
10
-0.004903
20
0.1
11
0
21
0.100483
0
LINE
8
BLACK
6
CONTINUOUS
10
0
20
0.100483
11
0.004903
21
0.1
0
LINE
8
BLACK
6
CONTINUOUS
10
0.004903
20
0.1
11
102.595
21
0.1
0
LINE
8
BLACK
6
CONTINUOUS
10
102.595
20
0.1
11
102.6
21
0.100483
0
LINE
8
BLACK
6
CONTINUOUS
10
102.6
20
0.100483
11
102.605
21
0.1
0
LINE
8
BLACK
6
CONTINUOUS
10
102.605
20
0.1
11
102.62
21
0.098552
0
LINE
8
BLACK
6
CONTINUOUS
10
102.62
20
0.098552
11
102.638
21
0.092834
0
LINE
8
BLACK
6
CONTINUOUS
10
102.638
20
0.092834
11
102.656
21
0.083549
0
LINE
8
BLACK
6
CONTINUOUS
10
102.656
20
0.083549
11
102.671
21
0.071052
0
LINE
8
BLACK
6
CONTINUOUS
10
102.671
20
0.071052
11
102.684
21
0.055825
0
LINE
8
BLACK
6
CONTINUOUS
10
102.684
20
0.055825
11
102.693
21
0.038453
0
LINE
8
BLACK
6
CONTINUOUS
10
102.693
20
0.038453
11
102.699
21
0.019603
0
LINE
8
BLACK
6
CONTINUOUS
10
102.699
20
0.019603
11
102.7
21
0
0
LINE
8
BLACK
6
CONTINUOUS
10
102.7
20
0
11
102.7
21
-0.004903
0
LINE
8
BLACK
6
CONTINUOUS
10
102.7
20
-0.004903
11
102.7
21
-5.9
0
LINE
8
BLACK
6
CONTINUOUS
10
102.7
20
-5.9
11
130.5
21
-5.9
0
LINE
8
BLACK
6
CONTINUOUS
10
130.5
20
-5.9
11
130.5
21
-0.004903
0
LINE
8
BLACK
6
CONTINUOUS
10
130.5
20
-0.004903
11
130.5
21
0
0
LINE
8
BLACK
6
CONTINUOUS
10
130.5
20
0
11
130.501
21
0.019603
0
LINE
8
BLACK
6
CONTINUOUS
10
130.501
20
0.019603
11
130.507
21
0.038453
0
LINE
8
BLACK
6
CONTINUOUS
10
130.507
20
0.038453
11
130.516
21
0.055825
0
LINE
8
BLACK
6
CONTINUOUS
10
130.516
20
0.055825
11
130.529
21
0.071052
0
LINE
8
BLACK
6
CONTINUOUS
10
130.529
20
0.071052
11
130.544
21
0.083549
0
LINE
8
BLACK
6
CONTINUOUS
10
130.544
20
0.083549
11
130.562
21
0.092834
0
LINE
8
BLACK
6
CONTINUOUS
10
130.562
20
0.092834
11
130.58
21
0.098552
0
LINE
8
BLACK
6
CONTINUOUS
10
130.58
20
0.098552
11
130.595
21
0.1
0
LINE
8
BLACK
6
CONTINUOUS
10
130.595
20
0.1
11
130.6
21
0.100483
0
LINE
8
BLACK
6
CONTINUOUS
10
130.6
20
0.100483
11
130.605
21
0.1
0
LINE
8
BLACK
6
CONTINUOUS
10
130.605
20
0.1
11
169.995
21
0.1
0
LINE
8
BLACK
6
CONTINUOUS
10
169.995
20
0.1
11
170
21
0.100483
0
LINE
8
BLACK
6
CONTINUOUS
10
170
20
0.100483
11
170.005
21
0.1
0
LINE
8
BLACK
6
CONTINUOUS
10
130.7
20
-0.1
11
130.7
21
-5.9951
0
LINE
8
BLACK
6
CONTINUOUS
10
130.7
20
-5.9951
11
130.7
21
-6
0
LINE
8
BLACK
6
CONTINUOUS
10
130.7
20
-6
11
130.699
21
-6.0196
0
LINE
8
BLACK
6
CONTINUOUS
10
130.699
20
-6.0196
11
130.693
21
-6.03845
0
LINE
8
BLACK
6
CONTINUOUS
10
130.693
20
-6.03845
11
130.684
21
-6.05582
0
LINE
8
BLACK
6
CONTINUOUS
10
130.684
20
-6.05582
11
130.671
21
-6.07105
0
LINE
8
BLACK
6
CONTINUOUS
10
130.671
20
-6.07105
11
130.656
21
-6.08355
0
LINE
8
BLACK
6
CONTINUOUS
10
130.656
20
-6.08355
11
130.638
21
-6.09283
0
LINE
8
BLACK
6
CONTINUOUS
10
130.638
20
-6.09283
11
130.62
21
-6.09855
0
LINE
8
BLACK
6
CONTINUOUS
10
130.62
20
-6.09855
11
130.605
21
-6.1
0
LINE
8
BLACK
6
CONTINUOUS
10
130.605
20
-6.1
11
130.6
21
-6.10048
0
LINE
8
BLACK
6
CONTINUOUS
10
130.6
20
-6.10048
11
130.595
21
-6.1
0
LINE
8
BLACK
6
CONTINUOUS
10
130.595
20
-6.1
11
102.605
21
-6.1
0
LINE
8
BLACK
6
CONTINUOUS
10
102.605
20
-6.1
11
102.6
21
-6.10048
0
LINE
8
BLACK
6
CONTINUOUS
10
102.6
20
-6.10048
11
102.595
21
-6.1
0
LINE
8
BLACK
6
CONTINUOUS
10
102.595
20
-6.1
11
102.58
21
-6.09855
0
LINE
8
BLACK
6
CONTINUOUS
10
102.58
20
-6.09855
11
102.562
21
-6.09283
0
LINE
8
BLACK
6
CONTINUOUS
10
102.562
20
-6.09283
11
102.544
21
-6.08355
0
LINE
8
BLACK
6
CONTINUOUS
10
102.544
20
-6.08355
11
102.529
21
-6.07105
0
LINE
8
BLACK
6
CONTINUOUS
10
102.529
20
-6.07105
11
102.516
21
-6.05582
0
LINE
8
BLACK
6
CONTINUOUS
10
102.516
20
-6.05582
11
102.507
21
-6.03845
0
LINE
8
BLACK
6
CONTINUOUS
10
102.507
20
-6.03845
11
102.501
21
-6.0196
0
LINE
8
BLACK
6
CONTINUOUS
10
102.501
20
-6.0196
11
102.5
21
-6
0
LINE
8
BLACK
6
CONTINUOUS
10
102.5
20
-6
11
102.5
21
-5.99509
0
LINE
8
BLACK
6
CONTINUOUS
10
102.5
20
-5.99509
11
102.5
21
-0.1
0
LINE
8
BLACK
6
CONTINUOUS
10
102.5
20
-0.1
11
0.1
21
-0.1
0
LINE
8
BLACK
6
CONTINUOUS
10
0.1
20
-0.1
11
0.1
21
-119.9
0
LINE
8
BLACK
6
CONTINUOUS
10
0.1
20
-119.9
11
169.9
21
-119.9
0
LINE
8
BLACK
6
CONTINUOUS
10
169.9
20
-119.9
11
169.9
21
-0.1
0
LINE
8
BLACK
6
CONTINUOUS
10
169.9
20
-0.1
11
130.7
21
-0.1
  0
ENDSEC
  0
EOF
