  0
SECTION
  2
HEADER
  9
$ANGBASE
  50
0.0
  9
$ANGDIR
  70
  1
  9
$MEASUREMENT
  70
0
  0
ENDSEC
  0
SECTION
  2
TABLES
  0
TABLE
  2
LTYPE
  70
4
  0
LTYPE
  5
40F
  2
CONTINUOUS
  70
0
  3
Solid line
  72
65
  73
0
  40
0.0
  0
LTYPE
  5
410
  2
DASHDOT
 70
0
  3
Dash Dot ____ _ ____ _
 72
65
 73
4
 40
2.0
 49
1.25
 49
-0.25
 49
0.25
 49
-0.25
  0
LTYPE
  5
411
  2
DASHED
 70
0
  3
Dashed __ __ __ __ __
 72
65
 73
2
 40
0.75
 49
0.5
 49
-0.25
  0
LTYPE
  5
43B
  2
DOTTED
 70
0
  3
Dotted .  .  .  .
 72
65
 73
2
 40
0.2
 49
0.0
 49
-0.2
  0
ENDTAB
  0
TABLE
  2
STYLE
  70
4
  0
STYLE
  2
KICAD
  70
0
  40
0
  41
1
  42
1
  50
0
  71
0
  3
isocp.shx
  0
STYLE
  2
KICADB
  70
0
  40
0
  41
1
  42
1
  50
0
  71
0
  3
isocp.shx
  0
STYLE
  2
KICADI
  70
0
  40
0
  41
1
  42
1
  50
15
  71
0
  3
isocp.shx
  0
STYLE
  2
KICADBI
  70
0
  40
0
  41
1
  42
1
  50
15
  71
0
  3
isocp.shx
  0
ENDTAB
  0
TABLE
  2
LAYER
  70
30
  0
LAYER
  2
BLACK
  70
0
  62
7
  6
CONTINUOUS
  0
LAYER
  2
GRAY1
  70
0
  62
251
  6
CONTINUOUS
  0
LAYER
  2
GRAY2
  70
0
  62
8
  6
CONTINUOUS
  0
LAYER
  2
GRAY3
  70
0
  62
9
  6
CONTINUOUS
  0
LAYER
  2
WHITE
  70
0
  62
7
  6
CONTINUOUS
  0
LAYER
  2
LYELLOW
  70
0
  62
51
  6
CONTINUOUS
  0
LAYER
  2
BLUE1
  70
0
  62
178
  6
CONTINUOUS
  0
LAYER
  2
GREEN1
  70
0
  62
98
  6
CONTINUOUS
  0
LAYER
  2
CYAN1
  70
0
  62
138
  6
CONTINUOUS
  0
LAYER
  2
RED1
  70
0
  62
18
  6
CONTINUOUS
  0
LAYER
  2
MAGENTA1
  70
0
  62
228
  6
CONTINUOUS
  0
LAYER
  2
BROWN1
  70
0
  62
58
  6
CONTINUOUS
  0
LAYER
  2
BLUE2
  70
0
  62
5
  6
CONTINUOUS
  0
LAYER
  2
GREEN2
  70
0
  62
3
  6
CONTINUOUS
  0
LAYER
  2
CYAN2
  70
0
  62
4
  6
CONTINUOUS
  0
LAYER
  2
RED2
  70
0
  62
1
  6
CONTINUOUS
  0
LAYER
  2
MAGENTA2
  70
0
  62
6
  6
CONTINUOUS
  0
LAYER
  2
BROWN2
  70
0
  62
54
  6
CONTINUOUS
  0
LAYER
  2
BLUE3
  70
0
  62
171
  6
CONTINUOUS
  0
LAYER
  2
GREEN3
  70
0
  62
91
  6
CONTINUOUS
  0
LAYER
  2
CYAN3
  70
0
  62
131
  6
CONTINUOUS
  0
LAYER
  2
RED3
  70
0
  62
11
  6
CONTINUOUS
  0
LAYER
  2
MAGENTA3
  70
0
  62
221
  6
CONTINUOUS
  0
LAYER
  2
YELLOW3
  70
0
  62
2
  6
CONTINUOUS
  0
LAYER
  2
BLUE4
  70
0
  62
5
  6
CONTINUOUS
  0
LAYER
  2
GREEN4
  70
0
  62
3
  6
CONTINUOUS
  0
LAYER
  2
CYAN4
  70
0
  62
4
  6
CONTINUOUS
  0
LAYER
  2
RED4
  70
0
  62
1
  6
CONTINUOUS
  0
LAYER
  2
MAGENTA4
  70
0
  62
6
  6
CONTINUOUS
  0
LAYER
  2
YELLOW4
  70
0
  62
2
  6
CONTINUOUS
  0
ENDTAB
  0
ENDSEC
  0
SECTION
  2
ENTITIES
0
LINE
8
BLACK
6
CONTINUOUS
10
4.72922
20
-113.596
11
5.18419
21
-113.785
0
LINE
8
BLACK
6
CONTINUOUS
10
5.18419
20
-113.785
11
5.59366
21
-114.058
0
LINE
8
BLACK
6
CONTINUOUS
10
5.59366
20
-114.058
11
5.94188
21
-114.406
0
LINE
8
BLACK
6
CONTINUOUS
10
5.94188
20
-114.406
11
6.21547
21
-114.816
0
LINE
8
BLACK
6
CONTINUOUS
10
6.21547
20
-114.816
11
6.40393
21
-115.271
0
LINE
8
BLACK
6
CONTINUOUS
10
6.40393
20
-115.271
11
6.5
21
-115.754
0
LINE
8
BLACK
6
CONTINUOUS
10
6.5
20
-115.754
11
6.5
21
-116.246
0
LINE
8
BLACK
6
CONTINUOUS
10
6.5
20
-116.246
11
6.40393
21
-116.729
0
LINE
8
BLACK
6
CONTINUOUS
10
6.40393
20
-116.729
11
6.21547
21
-117.184
0
LINE
8
BLACK
6
CONTINUOUS
10
6.21547
20
-117.184
11
5.94188
21
-117.594
0
LINE
8
BLACK
6
CONTINUOUS
10
5.94188
20
-117.594
11
5.59366
21
-117.942
0
LINE
8
BLACK
6
CONTINUOUS
10
5.59366
20
-117.942
11
5.18419
21
-118.215
0
LINE
8
BLACK
6
CONTINUOUS
10
5.18419
20
-118.215
11
4.72922
21
-118.404
0
LINE
8
BLACK
6
CONTINUOUS
10
4.72922
20
-118.404
11
4.24623
21
-118.5
0
LINE
8
BLACK
6
CONTINUOUS
10
4.24623
20
-118.5
11
3.75377
21
-118.5
0
LINE
8
BLACK
6
CONTINUOUS
10
3.75377
20
-118.5
11
3.27078
21
-118.404
0
LINE
8
BLACK
6
CONTINUOUS
10
3.27078
20
-118.404
11
2.81581
21
-118.215
0
LINE
8
BLACK
6
CONTINUOUS
10
2.81581
20
-118.215
11
2.40634
21
-117.942
0
LINE
8
BLACK
6
CONTINUOUS
10
2.40634
20
-117.942
11
2.05812
21
-117.594
0
LINE
8
BLACK
6
CONTINUOUS
10
2.05812
20
-117.594
11
1.78453
21
-117.184
0
LINE
8
BLACK
6
CONTINUOUS
10
1.78453
20
-117.184
11
1.59607
21
-116.729
0
LINE
8
BLACK
6
CONTINUOUS
10
1.59607
20
-116.729
11
1.5
21
-116.246
0
LINE
8
BLACK
6
CONTINUOUS
10
1.5
20
-116.246
11
1.5
21
-115.754
0
LINE
8
BLACK
6
CONTINUOUS
10
1.5
20
-115.754
11
1.59607
21
-115.271
0
LINE
8
BLACK
6
CONTINUOUS
10
1.59607
20
-115.271
11
1.78453
21
-114.816
0
LINE
8
BLACK
6
CONTINUOUS
10
1.78453
20
-114.816
11
2.05812
21
-114.406
0
LINE
8
BLACK
6
CONTINUOUS
10
2.05812
20
-114.406
11
2.40634
21
-114.058
0
LINE
8
BLACK
6
CONTINUOUS
10
2.40634
20
-114.058
11
2.81581
21
-113.785
0
LINE
8
BLACK
6
CONTINUOUS
10
2.81581
20
-113.785
11
3.27078
21
-113.596
0
LINE
8
BLACK
6
CONTINUOUS
10
3.27078
20
-113.596
11
3.75377
21
-113.5
0
LINE
8
BLACK
6
CONTINUOUS
10
3.75377
20
-113.5
11
4.24623
21
-113.5
0
LINE
8
BLACK
6
CONTINUOUS
10
4.24623
20
-113.5
11
4.72922
21
-113.596
0
LINE
8
BLACK
6
CONTINUOUS
10
19.35
20
-115.921
11
19.5684
21
-116.012
0
LINE
8
BLACK
6
CONTINUOUS
10
19.5684
20
-116.012
11
19.765
21
-116.143
0
LINE
8
BLACK
6
CONTINUOUS
10
19.765
20
-116.143
11
19.9321
21
-116.31
0
LINE
8
BLACK
6
CONTINUOUS
10
19.9321
20
-116.31
11
20.0634
21
-116.507
0
LINE
8
BLACK
6
CONTINUOUS
10
20.0634
20
-116.507
11
20.1539
21
-116.725
0
LINE
8
BLACK
6
CONTINUOUS
10
20.1539
20
-116.725
11
20.2
21
-116.957
0
LINE
8
BLACK
6
CONTINUOUS
10
20.2
20
-116.957
11
20.2
21
-117.193
0
LINE
8
BLACK
6
CONTINUOUS
10
20.2
20
-117.193
11
20.1539
21
-117.425
0
LINE
8
BLACK
6
CONTINUOUS
10
20.1539
20
-117.425
11
20.0634
21
-117.643
0
LINE
8
BLACK
6
CONTINUOUS
10
20.0634
20
-117.643
11
19.9321
21
-117.84
0
LINE
8
BLACK
6
CONTINUOUS
10
19.9321
20
-117.84
11
19.765
21
-118.007
0
LINE
8
BLACK
6
CONTINUOUS
10
19.765
20
-118.007
11
19.5684
21
-118.138
0
LINE
8
BLACK
6
CONTINUOUS
10
19.5684
20
-118.138
11
19.35
21
-118.229
0
LINE
8
BLACK
6
CONTINUOUS
10
19.35
20
-118.229
11
19.1182
21
-118.275
0
LINE
8
BLACK
6
CONTINUOUS
10
19.1182
20
-118.275
11
18.8818
21
-118.275
0
LINE
8
BLACK
6
CONTINUOUS
10
18.8818
20
-118.275
11
18.65
21
-118.229
0
LINE
8
BLACK
6
CONTINUOUS
10
18.65
20
-118.229
11
18.4316
21
-118.138
0
LINE
8
BLACK
6
CONTINUOUS
10
18.4316
20
-118.138
11
18.235
21
-118.007
0
LINE
8
BLACK
6
CONTINUOUS
10
18.235
20
-118.007
11
18.0679
21
-117.84
0
LINE
8
BLACK
6
CONTINUOUS
10
18.0679
20
-117.84
11
17.9366
21
-117.643
0
LINE
8
BLACK
6
CONTINUOUS
10
17.9366
20
-117.643
11
17.8461
21
-117.425
0
LINE
8
BLACK
6
CONTINUOUS
10
17.8461
20
-117.425
11
17.8
21
-117.193
0
LINE
8
BLACK
6
CONTINUOUS
10
17.8
20
-117.193
11
17.8
21
-116.957
0
LINE
8
BLACK
6
CONTINUOUS
10
17.8
20
-116.957
11
17.8461
21
-116.725
0
LINE
8
BLACK
6
CONTINUOUS
10
17.8461
20
-116.725
11
17.9366
21
-116.507
0
LINE
8
BLACK
6
CONTINUOUS
10
17.9366
20
-116.507
11
18.0679
21
-116.31
0
LINE
8
BLACK
6
CONTINUOUS
10
18.0679
20
-116.31
11
18.235
21
-116.143
0
LINE
8
BLACK
6
CONTINUOUS
10
18.235
20
-116.143
11
18.4316
21
-116.012
0
LINE
8
BLACK
6
CONTINUOUS
10
18.4316
20
-116.012
11
18.65
21
-115.921
0
LINE
8
BLACK
6
CONTINUOUS
10
18.65
20
-115.921
11
18.8818
21
-115.875
0
LINE
8
BLACK
6
CONTINUOUS
10
18.8818
20
-115.875
11
19.1182
21
-115.875
0
LINE
8
BLACK
6
CONTINUOUS
10
19.1182
20
-115.875
11
19.35
21
-115.921
0
LINE
8
BLACK
6
CONTINUOUS
10
15.85
20
-115.921
11
16.0684
21
-116.012
0
LINE
8
BLACK
6
CONTINUOUS
10
16.0684
20
-116.012
11
16.265
21
-116.143
0
LINE
8
BLACK
6
CONTINUOUS
10
16.265
20
-116.143
11
16.4321
21
-116.31
0
LINE
8
BLACK
6
CONTINUOUS
10
16.4321
20
-116.31
11
16.5634
21
-116.507
0
LINE
8
BLACK
6
CONTINUOUS
10
16.5634
20
-116.507
11
16.6539
21
-116.725
0
LINE
8
BLACK
6
CONTINUOUS
10
16.6539
20
-116.725
11
16.7
21
-116.957
0
LINE
8
BLACK
6
CONTINUOUS
10
16.7
20
-116.957
11
16.7
21
-117.193
0
LINE
8
BLACK
6
CONTINUOUS
10
16.7
20
-117.193
11
16.6539
21
-117.425
0
LINE
8
BLACK
6
CONTINUOUS
10
16.6539
20
-117.425
11
16.5634
21
-117.643
0
LINE
8
BLACK
6
CONTINUOUS
10
16.5634
20
-117.643
11
16.4321
21
-117.84
0
LINE
8
BLACK
6
CONTINUOUS
10
16.4321
20
-117.84
11
16.265
21
-118.007
0
LINE
8
BLACK
6
CONTINUOUS
10
16.265
20
-118.007
11
16.0684
21
-118.138
0
LINE
8
BLACK
6
CONTINUOUS
10
16.0684
20
-118.138
11
15.85
21
-118.229
0
LINE
8
BLACK
6
CONTINUOUS
10
15.85
20
-118.229
11
15.6182
21
-118.275
0
LINE
8
BLACK
6
CONTINUOUS
10
15.6182
20
-118.275
11
15.3818
21
-118.275
0
LINE
8
BLACK
6
CONTINUOUS
10
15.3818
20
-118.275
11
15.15
21
-118.229
0
LINE
8
BLACK
6
CONTINUOUS
10
15.15
20
-118.229
11
14.9316
21
-118.138
0
LINE
8
BLACK
6
CONTINUOUS
10
14.9316
20
-118.138
11
14.735
21
-118.007
0
LINE
8
BLACK
6
CONTINUOUS
10
14.735
20
-118.007
11
14.5679
21
-117.84
0
LINE
8
BLACK
6
CONTINUOUS
10
14.5679
20
-117.84
11
14.4366
21
-117.643
0
LINE
8
BLACK
6
CONTINUOUS
10
14.4366
20
-117.643
11
14.3461
21
-117.425
0
LINE
8
BLACK
6
CONTINUOUS
10
14.3461
20
-117.425
11
14.3
21
-117.193
0
LINE
8
BLACK
6
CONTINUOUS
10
14.3
20
-117.193
11
14.3
21
-116.957
0
LINE
8
BLACK
6
CONTINUOUS
10
14.3
20
-116.957
11
14.3461
21
-116.725
0
LINE
8
BLACK
6
CONTINUOUS
10
14.3461
20
-116.725
11
14.4366
21
-116.507
0
LINE
8
BLACK
6
CONTINUOUS
10
14.4366
20
-116.507
11
14.5679
21
-116.31
0
LINE
8
BLACK
6
CONTINUOUS
10
14.5679
20
-116.31
11
14.735
21
-116.143
0
LINE
8
BLACK
6
CONTINUOUS
10
14.735
20
-116.143
11
14.9316
21
-116.012
0
LINE
8
BLACK
6
CONTINUOUS
10
14.9316
20
-116.012
11
15.15
21
-115.921
0
LINE
8
BLACK
6
CONTINUOUS
10
15.15
20
-115.921
11
15.3818
21
-115.875
0
LINE
8
BLACK
6
CONTINUOUS
10
15.3818
20
-115.875
11
15.6182
21
-115.875
0
LINE
8
BLACK
6
CONTINUOUS
10
15.6182
20
-115.875
11
15.85
21
-115.921
0
LINE
8
BLACK
6
CONTINUOUS
10
22.85
20
-115.921
11
23.0684
21
-116.012
0
LINE
8
BLACK
6
CONTINUOUS
10
23.0684
20
-116.012
11
23.265
21
-116.143
0
LINE
8
BLACK
6
CONTINUOUS
10
23.265
20
-116.143
11
23.4321
21
-116.31
0
LINE
8
BLACK
6
CONTINUOUS
10
23.4321
20
-116.31
11
23.5634
21
-116.507
0
LINE
8
BLACK
6
CONTINUOUS
10
23.5634
20
-116.507
11
23.6539
21
-116.725
0
LINE
8
BLACK
6
CONTINUOUS
10
23.6539
20
-116.725
11
23.7
21
-116.957
0
LINE
8
BLACK
6
CONTINUOUS
10
23.7
20
-116.957
11
23.7
21
-117.193
0
LINE
8
BLACK
6
CONTINUOUS
10
23.7
20
-117.193
11
23.6539
21
-117.425
0
LINE
8
BLACK
6
CONTINUOUS
10
23.6539
20
-117.425
11
23.5634
21
-117.643
0
LINE
8
BLACK
6
CONTINUOUS
10
23.5634
20
-117.643
11
23.4321
21
-117.84
0
LINE
8
BLACK
6
CONTINUOUS
10
23.4321
20
-117.84
11
23.265
21
-118.007
0
LINE
8
BLACK
6
CONTINUOUS
10
23.265
20
-118.007
11
23.0684
21
-118.138
0
LINE
8
BLACK
6
CONTINUOUS
10
23.0684
20
-118.138
11
22.85
21
-118.229
0
LINE
8
BLACK
6
CONTINUOUS
10
22.85
20
-118.229
11
22.6182
21
-118.275
0
LINE
8
BLACK
6
CONTINUOUS
10
22.6182
20
-118.275
11
22.3818
21
-118.275
0
LINE
8
BLACK
6
CONTINUOUS
10
22.3818
20
-118.275
11
22.15
21
-118.229
0
LINE
8
BLACK
6
CONTINUOUS
10
22.15
20
-118.229
11
21.9316
21
-118.138
0
LINE
8
BLACK
6
CONTINUOUS
10
21.9316
20
-118.138
11
21.735
21
-118.007
0
LINE
8
BLACK
6
CONTINUOUS
10
21.735
20
-118.007
11
21.5679
21
-117.84
0
LINE
8
BLACK
6
CONTINUOUS
10
21.5679
20
-117.84
11
21.4366
21
-117.643
0
LINE
8
BLACK
6
CONTINUOUS
10
21.4366
20
-117.643
11
21.3461
21
-117.425
0
LINE
8
BLACK
6
CONTINUOUS
10
21.3461
20
-117.425
11
21.3
21
-117.193
0
LINE
8
BLACK
6
CONTINUOUS
10
21.3
20
-117.193
11
21.3
21
-116.957
0
LINE
8
BLACK
6
CONTINUOUS
10
21.3
20
-116.957
11
21.3461
21
-116.725
0
LINE
8
BLACK
6
CONTINUOUS
10
21.3461
20
-116.725
11
21.4366
21
-116.507
0
LINE
8
BLACK
6
CONTINUOUS
10
21.4366
20
-116.507
11
21.5679
21
-116.31
0
LINE
8
BLACK
6
CONTINUOUS
10
21.5679
20
-116.31
11
21.735
21
-116.143
0
LINE
8
BLACK
6
CONTINUOUS
10
21.735
20
-116.143
11
21.9316
21
-116.012
0
LINE
8
BLACK
6
CONTINUOUS
10
21.9316
20
-116.012
11
22.15
21
-115.921
0
LINE
8
BLACK
6
CONTINUOUS
10
22.15
20
-115.921
11
22.3818
21
-115.875
0
LINE
8
BLACK
6
CONTINUOUS
10
22.3818
20
-115.875
11
22.6182
21
-115.875
0
LINE
8
BLACK
6
CONTINUOUS
10
22.6182
20
-115.875
11
22.85
21
-115.921
0
LINE
8
BLACK
6
CONTINUOUS
10
26.35
20
-115.921
11
26.5684
21
-116.012
0
LINE
8
BLACK
6
CONTINUOUS
10
26.5684
20
-116.012
11
26.765
21
-116.143
0
LINE
8
BLACK
6
CONTINUOUS
10
26.765
20
-116.143
11
26.9321
21
-116.31
0
LINE
8
BLACK
6
CONTINUOUS
10
26.9321
20
-116.31
11
27.0634
21
-116.507
0
LINE
8
BLACK
6
CONTINUOUS
10
27.0634
20
-116.507
11
27.1539
21
-116.725
0
LINE
8
BLACK
6
CONTINUOUS
10
27.1539
20
-116.725
11
27.2
21
-116.957
0
LINE
8
BLACK
6
CONTINUOUS
10
27.2
20
-116.957
11
27.2
21
-117.193
0
LINE
8
BLACK
6
CONTINUOUS
10
27.2
20
-117.193
11
27.1539
21
-117.425
0
LINE
8
BLACK
6
CONTINUOUS
10
27.1539
20
-117.425
11
27.0634
21
-117.643
0
LINE
8
BLACK
6
CONTINUOUS
10
27.0634
20
-117.643
11
26.9321
21
-117.84
0
LINE
8
BLACK
6
CONTINUOUS
10
26.9321
20
-117.84
11
26.765
21
-118.007
0
LINE
8
BLACK
6
CONTINUOUS
10
26.765
20
-118.007
11
26.5684
21
-118.138
0
LINE
8
BLACK
6
CONTINUOUS
10
26.5684
20
-118.138
11
26.35
21
-118.229
0
LINE
8
BLACK
6
CONTINUOUS
10
26.35
20
-118.229
11
26.1182
21
-118.275
0
LINE
8
BLACK
6
CONTINUOUS
10
26.1182
20
-118.275
11
25.8818
21
-118.275
0
LINE
8
BLACK
6
CONTINUOUS
10
25.8818
20
-118.275
11
25.65
21
-118.229
0
LINE
8
BLACK
6
CONTINUOUS
10
25.65
20
-118.229
11
25.4316
21
-118.138
0
LINE
8
BLACK
6
CONTINUOUS
10
25.4316
20
-118.138
11
25.235
21
-118.007
0
LINE
8
BLACK
6
CONTINUOUS
10
25.235
20
-118.007
11
25.0679
21
-117.84
0
LINE
8
BLACK
6
CONTINUOUS
10
25.0679
20
-117.84
11
24.9366
21
-117.643
0
LINE
8
BLACK
6
CONTINUOUS
10
24.9366
20
-117.643
11
24.8461
21
-117.425
0
LINE
8
BLACK
6
CONTINUOUS
10
24.8461
20
-117.425
11
24.8
21
-117.193
0
LINE
8
BLACK
6
CONTINUOUS
10
24.8
20
-117.193
11
24.8
21
-116.957
0
LINE
8
BLACK
6
CONTINUOUS
10
24.8
20
-116.957
11
24.8461
21
-116.725
0
LINE
8
BLACK
6
CONTINUOUS
10
24.8461
20
-116.725
11
24.9366
21
-116.507
0
LINE
8
BLACK
6
CONTINUOUS
10
24.9366
20
-116.507
11
25.0679
21
-116.31
0
LINE
8
BLACK
6
CONTINUOUS
10
25.0679
20
-116.31
11
25.235
21
-116.143
0
LINE
8
BLACK
6
CONTINUOUS
10
25.235
20
-116.143
11
25.4316
21
-116.012
0
LINE
8
BLACK
6
CONTINUOUS
10
25.4316
20
-116.012
11
25.65
21
-115.921
0
LINE
8
BLACK
6
CONTINUOUS
10
25.65
20
-115.921
11
25.8818
21
-115.875
0
LINE
8
BLACK
6
CONTINUOUS
10
25.8818
20
-115.875
11
26.1182
21
-115.875
0
LINE
8
BLACK
6
CONTINUOUS
10
26.1182
20
-115.875
11
26.35
21
-115.921
0
LINE
8
BLACK
6
CONTINUOUS
10
29.85
20
-115.921
11
30.0684
21
-116.012
0
LINE
8
BLACK
6
CONTINUOUS
10
30.0684
20
-116.012
11
30.265
21
-116.143
0
LINE
8
BLACK
6
CONTINUOUS
10
30.265
20
-116.143
11
30.4321
21
-116.31
0
LINE
8
BLACK
6
CONTINUOUS
10
30.4321
20
-116.31
11
30.5634
21
-116.507
0
LINE
8
BLACK
6
CONTINUOUS
10
30.5634
20
-116.507
11
30.6539
21
-116.725
0
LINE
8
BLACK
6
CONTINUOUS
10
30.6539
20
-116.725
11
30.7
21
-116.957
0
LINE
8
BLACK
6
CONTINUOUS
10
30.7
20
-116.957
11
30.7
21
-117.193
0
LINE
8
BLACK
6
CONTINUOUS
10
30.7
20
-117.193
11
30.6539
21
-117.425
0
LINE
8
BLACK
6
CONTINUOUS
10
30.6539
20
-117.425
11
30.5634
21
-117.643
0
LINE
8
BLACK
6
CONTINUOUS
10
30.5634
20
-117.643
11
30.4321
21
-117.84
0
LINE
8
BLACK
6
CONTINUOUS
10
30.4321
20
-117.84
11
30.265
21
-118.007
0
LINE
8
BLACK
6
CONTINUOUS
10
30.265
20
-118.007
11
30.0684
21
-118.138
0
LINE
8
BLACK
6
CONTINUOUS
10
30.0684
20
-118.138
11
29.85
21
-118.229
0
LINE
8
BLACK
6
CONTINUOUS
10
29.85
20
-118.229
11
29.6182
21
-118.275
0
LINE
8
BLACK
6
CONTINUOUS
10
29.6182
20
-118.275
11
29.3818
21
-118.275
0
LINE
8
BLACK
6
CONTINUOUS
10
29.3818
20
-118.275
11
29.15
21
-118.229
0
LINE
8
BLACK
6
CONTINUOUS
10
29.15
20
-118.229
11
28.9316
21
-118.138
0
LINE
8
BLACK
6
CONTINUOUS
10
28.9316
20
-118.138
11
28.735
21
-118.007
0
LINE
8
BLACK
6
CONTINUOUS
10
28.735
20
-118.007
11
28.5679
21
-117.84
0
LINE
8
BLACK
6
CONTINUOUS
10
28.5679
20
-117.84
11
28.4366
21
-117.643
0
LINE
8
BLACK
6
CONTINUOUS
10
28.4366
20
-117.643
11
28.3461
21
-117.425
0
LINE
8
BLACK
6
CONTINUOUS
10
28.3461
20
-117.425
11
28.3
21
-117.193
0
LINE
8
BLACK
6
CONTINUOUS
10
28.3
20
-117.193
11
28.3
21
-116.957
0
LINE
8
BLACK
6
CONTINUOUS
10
28.3
20
-116.957
11
28.3461
21
-116.725
0
LINE
8
BLACK
6
CONTINUOUS
10
28.3461
20
-116.725
11
28.4366
21
-116.507
0
LINE
8
BLACK
6
CONTINUOUS
10
28.4366
20
-116.507
11
28.5679
21
-116.31
0
LINE
8
BLACK
6
CONTINUOUS
10
28.5679
20
-116.31
11
28.735
21
-116.143
0
LINE
8
BLACK
6
CONTINUOUS
10
28.735
20
-116.143
11
28.9316
21
-116.012
0
LINE
8
BLACK
6
CONTINUOUS
10
28.9316
20
-116.012
11
29.15
21
-115.921
0
LINE
8
BLACK
6
CONTINUOUS
10
29.15
20
-115.921
11
29.3818
21
-115.875
0
LINE
8
BLACK
6
CONTINUOUS
10
29.3818
20
-115.875
11
29.6182
21
-115.875
0
LINE
8
BLACK
6
CONTINUOUS
10
29.6182
20
-115.875
11
29.85
21
-115.921
0
LINE
8
BLACK
6
CONTINUOUS
10
33.35
20
-115.921
11
33.5684
21
-116.012
0
LINE
8
BLACK
6
CONTINUOUS
10
33.5684
20
-116.012
11
33.765
21
-116.143
0
LINE
8
BLACK
6
CONTINUOUS
10
33.765
20
-116.143
11
33.9321
21
-116.31
0
LINE
8
BLACK
6
CONTINUOUS
10
33.9321
20
-116.31
11
34.0634
21
-116.507
0
LINE
8
BLACK
6
CONTINUOUS
10
34.0634
20
-116.507
11
34.1539
21
-116.725
0
LINE
8
BLACK
6
CONTINUOUS
10
34.1539
20
-116.725
11
34.2
21
-116.957
0
LINE
8
BLACK
6
CONTINUOUS
10
34.2
20
-116.957
11
34.2
21
-117.193
0
LINE
8
BLACK
6
CONTINUOUS
10
34.2
20
-117.193
11
34.1539
21
-117.425
0
LINE
8
BLACK
6
CONTINUOUS
10
34.1539
20
-117.425
11
34.0634
21
-117.643
0
LINE
8
BLACK
6
CONTINUOUS
10
34.0634
20
-117.643
11
33.9321
21
-117.84
0
LINE
8
BLACK
6
CONTINUOUS
10
33.9321
20
-117.84
11
33.765
21
-118.007
0
LINE
8
BLACK
6
CONTINUOUS
10
33.765
20
-118.007
11
33.5684
21
-118.138
0
LINE
8
BLACK
6
CONTINUOUS
10
33.5684
20
-118.138
11
33.35
21
-118.229
0
LINE
8
BLACK
6
CONTINUOUS
10
33.35
20
-118.229
11
33.1182
21
-118.275
0
LINE
8
BLACK
6
CONTINUOUS
10
33.1182
20
-118.275
11
32.8818
21
-118.275
0
LINE
8
BLACK
6
CONTINUOUS
10
32.8818
20
-118.275
11
32.65
21
-118.229
0
LINE
8
BLACK
6
CONTINUOUS
10
32.65
20
-118.229
11
32.4316
21
-118.138
0
LINE
8
BLACK
6
CONTINUOUS
10
32.4316
20
-118.138
11
32.235
21
-118.007
0
LINE
8
BLACK
6
CONTINUOUS
10
32.235
20
-118.007
11
32.0679
21
-117.84
0
LINE
8
BLACK
6
CONTINUOUS
10
32.0679
20
-117.84
11
31.9366
21
-117.643
0
LINE
8
BLACK
6
CONTINUOUS
10
31.9366
20
-117.643
11
31.8461
21
-117.425
0
LINE
8
BLACK
6
CONTINUOUS
10
31.8461
20
-117.425
11
31.8
21
-117.193
0
LINE
8
BLACK
6
CONTINUOUS
10
31.8
20
-117.193
11
31.8
21
-116.957
0
LINE
8
BLACK
6
CONTINUOUS
10
31.8
20
-116.957
11
31.8461
21
-116.725
0
LINE
8
BLACK
6
CONTINUOUS
10
31.8461
20
-116.725
11
31.9366
21
-116.507
0
LINE
8
BLACK
6
CONTINUOUS
10
31.9366
20
-116.507
11
32.0679
21
-116.31
0
LINE
8
BLACK
6
CONTINUOUS
10
32.0679
20
-116.31
11
32.235
21
-116.143
0
LINE
8
BLACK
6
CONTINUOUS
10
32.235
20
-116.143
11
32.4316
21
-116.012
0
LINE
8
BLACK
6
CONTINUOUS
10
32.4316
20
-116.012
11
32.65
21
-115.921
0
LINE
8
BLACK
6
CONTINUOUS
10
32.65
20
-115.921
11
32.8818
21
-115.875
0
LINE
8
BLACK
6
CONTINUOUS
10
32.8818
20
-115.875
11
33.1182
21
-115.875
0
LINE
8
BLACK
6
CONTINUOUS
10
33.1182
20
-115.875
11
33.35
21
-115.921
0
LINE
8
BLACK
6
CONTINUOUS
10
13.2
20
-118.275
11
10.8
21
-118.275
0
LINE
8
BLACK
6
CONTINUOUS
10
10.8
20
-118.275
11
10.8
21
-115.875
0
LINE
8
BLACK
6
CONTINUOUS
10
10.8
20
-115.875
11
13.2
21
-115.875
0
LINE
8
BLACK
6
CONTINUOUS
10
13.2
20
-115.875
11
13.2
21
-118.275
0
LINE
8
BLACK
6
CONTINUOUS
10
36.85
20
-115.921
11
37.0684
21
-116.012
0
LINE
8
BLACK
6
CONTINUOUS
10
37.0684
20
-116.012
11
37.265
21
-116.143
0
LINE
8
BLACK
6
CONTINUOUS
10
37.265
20
-116.143
11
37.4321
21
-116.31
0
LINE
8
BLACK
6
CONTINUOUS
10
37.4321
20
-116.31
11
37.5634
21
-116.507
0
LINE
8
BLACK
6
CONTINUOUS
10
37.5634
20
-116.507
11
37.6539
21
-116.725
0
LINE
8
BLACK
6
CONTINUOUS
10
37.6539
20
-116.725
11
37.7
21
-116.957
0
LINE
8
BLACK
6
CONTINUOUS
10
37.7
20
-116.957
11
37.7
21
-117.193
0
LINE
8
BLACK
6
CONTINUOUS
10
37.7
20
-117.193
11
37.6539
21
-117.425
0
LINE
8
BLACK
6
CONTINUOUS
10
37.6539
20
-117.425
11
37.5634
21
-117.643
0
LINE
8
BLACK
6
CONTINUOUS
10
37.5634
20
-117.643
11
37.4321
21
-117.84
0
LINE
8
BLACK
6
CONTINUOUS
10
37.4321
20
-117.84
11
37.265
21
-118.007
0
LINE
8
BLACK
6
CONTINUOUS
10
37.265
20
-118.007
11
37.0684
21
-118.138
0
LINE
8
BLACK
6
CONTINUOUS
10
37.0684
20
-118.138
11
36.85
21
-118.229
0
LINE
8
BLACK
6
CONTINUOUS
10
36.85
20
-118.229
11
36.6182
21
-118.275
0
LINE
8
BLACK
6
CONTINUOUS
10
36.6182
20
-118.275
11
36.3818
21
-118.275
0
LINE
8
BLACK
6
CONTINUOUS
10
36.3818
20
-118.275
11
36.15
21
-118.229
0
LINE
8
BLACK
6
CONTINUOUS
10
36.15
20
-118.229
11
35.9316
21
-118.138
0
LINE
8
BLACK
6
CONTINUOUS
10
35.9316
20
-118.138
11
35.735
21
-118.007
0
LINE
8
BLACK
6
CONTINUOUS
10
35.735
20
-118.007
11
35.5679
21
-117.84
0
LINE
8
BLACK
6
CONTINUOUS
10
35.5679
20
-117.84
11
35.4366
21
-117.643
0
LINE
8
BLACK
6
CONTINUOUS
10
35.4366
20
-117.643
11
35.3461
21
-117.425
0
LINE
8
BLACK
6
CONTINUOUS
10
35.3461
20
-117.425
11
35.3
21
-117.193
0
LINE
8
BLACK
6
CONTINUOUS
10
35.3
20
-117.193
11
35.3
21
-116.957
0
LINE
8
BLACK
6
CONTINUOUS
10
35.3
20
-116.957
11
35.3461
21
-116.725
0
LINE
8
BLACK
6
CONTINUOUS
10
35.3461
20
-116.725
11
35.4366
21
-116.507
0
LINE
8
BLACK
6
CONTINUOUS
10
35.4366
20
-116.507
11
35.5679
21
-116.31
0
LINE
8
BLACK
6
CONTINUOUS
10
35.5679
20
-116.31
11
35.735
21
-116.143
0
LINE
8
BLACK
6
CONTINUOUS
10
35.735
20
-116.143
11
35.9316
21
-116.012
0
LINE
8
BLACK
6
CONTINUOUS
10
35.9316
20
-116.012
11
36.15
21
-115.921
0
LINE
8
BLACK
6
CONTINUOUS
10
36.15
20
-115.921
11
36.3818
21
-115.875
0
LINE
8
BLACK
6
CONTINUOUS
10
36.3818
20
-115.875
11
36.6182
21
-115.875
0
LINE
8
BLACK
6
CONTINUOUS
10
36.6182
20
-115.875
11
36.85
21
-115.921
0
LINE
8
BLACK
6
CONTINUOUS
10
40.35
20
-115.921
11
40.5684
21
-116.012
0
LINE
8
BLACK
6
CONTINUOUS
10
40.5684
20
-116.012
11
40.765
21
-116.143
0
LINE
8
BLACK
6
CONTINUOUS
10
40.765
20
-116.143
11
40.9321
21
-116.31
0
LINE
8
BLACK
6
CONTINUOUS
10
40.9321
20
-116.31
11
41.0634
21
-116.507
0
LINE
8
BLACK
6
CONTINUOUS
10
41.0634
20
-116.507
11
41.1539
21
-116.725
0
LINE
8
BLACK
6
CONTINUOUS
10
41.1539
20
-116.725
11
41.2
21
-116.957
0
LINE
8
BLACK
6
CONTINUOUS
10
41.2
20
-116.957
11
41.2
21
-117.193
0
LINE
8
BLACK
6
CONTINUOUS
10
41.2
20
-117.193
11
41.1539
21
-117.425
0
LINE
8
BLACK
6
CONTINUOUS
10
41.1539
20
-117.425
11
41.0634
21
-117.643
0
LINE
8
BLACK
6
CONTINUOUS
10
41.0634
20
-117.643
11
40.9321
21
-117.84
0
LINE
8
BLACK
6
CONTINUOUS
10
40.9321
20
-117.84
11
40.765
21
-118.007
0
LINE
8
BLACK
6
CONTINUOUS
10
40.765
20
-118.007
11
40.5684
21
-118.138
0
LINE
8
BLACK
6
CONTINUOUS
10
40.5684
20
-118.138
11
40.35
21
-118.229
0
LINE
8
BLACK
6
CONTINUOUS
10
40.35
20
-118.229
11
40.1182
21
-118.275
0
LINE
8
BLACK
6
CONTINUOUS
10
40.1182
20
-118.275
11
39.8818
21
-118.275
0
LINE
8
BLACK
6
CONTINUOUS
10
39.8818
20
-118.275
11
39.65
21
-118.229
0
LINE
8
BLACK
6
CONTINUOUS
10
39.65
20
-118.229
11
39.4316
21
-118.138
0
LINE
8
BLACK
6
CONTINUOUS
10
39.4316
20
-118.138
11
39.235
21
-118.007
0
LINE
8
BLACK
6
CONTINUOUS
10
39.235
20
-118.007
11
39.0679
21
-117.84
0
LINE
8
BLACK
6
CONTINUOUS
10
39.0679
20
-117.84
11
38.9366
21
-117.643
0
LINE
8
BLACK
6
CONTINUOUS
10
38.9366
20
-117.643
11
38.8461
21
-117.425
0
LINE
8
BLACK
6
CONTINUOUS
10
38.8461
20
-117.425
11
38.8
21
-117.193
0
LINE
8
BLACK
6
CONTINUOUS
10
38.8
20
-117.193
11
38.8
21
-116.957
0
LINE
8
BLACK
6
CONTINUOUS
10
38.8
20
-116.957
11
38.8461
21
-116.725
0
LINE
8
BLACK
6
CONTINUOUS
10
38.8461
20
-116.725
11
38.9366
21
-116.507
0
LINE
8
BLACK
6
CONTINUOUS
10
38.9366
20
-116.507
11
39.0679
21
-116.31
0
LINE
8
BLACK
6
CONTINUOUS
10
39.0679
20
-116.31
11
39.235
21
-116.143
0
LINE
8
BLACK
6
CONTINUOUS
10
39.235
20
-116.143
11
39.4316
21
-116.012
0
LINE
8
BLACK
6
CONTINUOUS
10
39.4316
20
-116.012
11
39.65
21
-115.921
0
LINE
8
BLACK
6
CONTINUOUS
10
39.65
20
-115.921
11
39.8818
21
-115.875
0
LINE
8
BLACK
6
CONTINUOUS
10
39.8818
20
-115.875
11
40.1182
21
-115.875
0
LINE
8
BLACK
6
CONTINUOUS
10
40.1182
20
-115.875
11
40.35
21
-115.921
0
LINE
8
BLACK
6
CONTINUOUS
10
54.85
20
-115.896
11
55.0684
21
-115.987
0
LINE
8
BLACK
6
CONTINUOUS
10
55.0684
20
-115.987
11
55.265
21
-116.118
0
LINE
8
BLACK
6
CONTINUOUS
10
55.265
20
-116.118
11
55.4321
21
-116.285
0
LINE
8
BLACK
6
CONTINUOUS
10
55.4321
20
-116.285
11
55.5634
21
-116.482
0
LINE
8
BLACK
6
CONTINUOUS
10
55.5634
20
-116.482
11
55.6539
21
-116.7
0
LINE
8
BLACK
6
CONTINUOUS
10
55.6539
20
-116.7
11
55.7
21
-116.932
0
LINE
8
BLACK
6
CONTINUOUS
10
55.7
20
-116.932
11
55.7
21
-117.168
0
LINE
8
BLACK
6
CONTINUOUS
10
55.7
20
-117.168
11
55.6539
21
-117.4
0
LINE
8
BLACK
6
CONTINUOUS
10
55.6539
20
-117.4
11
55.5634
21
-117.618
0
LINE
8
BLACK
6
CONTINUOUS
10
55.5634
20
-117.618
11
55.4321
21
-117.815
0
LINE
8
BLACK
6
CONTINUOUS
10
55.4321
20
-117.815
11
55.265
21
-117.982
0
LINE
8
BLACK
6
CONTINUOUS
10
55.265
20
-117.982
11
55.0684
21
-118.113
0
LINE
8
BLACK
6
CONTINUOUS
10
55.0684
20
-118.113
11
54.85
21
-118.204
0
LINE
8
BLACK
6
CONTINUOUS
10
54.85
20
-118.204
11
54.6182
21
-118.25
0
LINE
8
BLACK
6
CONTINUOUS
10
54.6182
20
-118.25
11
54.3818
21
-118.25
0
LINE
8
BLACK
6
CONTINUOUS
10
54.3818
20
-118.25
11
54.15
21
-118.204
0
LINE
8
BLACK
6
CONTINUOUS
10
54.15
20
-118.204
11
53.9316
21
-118.113
0
LINE
8
BLACK
6
CONTINUOUS
10
53.9316
20
-118.113
11
53.735
21
-117.982
0
LINE
8
BLACK
6
CONTINUOUS
10
53.735
20
-117.982
11
53.5679
21
-117.815
0
LINE
8
BLACK
6
CONTINUOUS
10
53.5679
20
-117.815
11
53.4366
21
-117.618
0
LINE
8
BLACK
6
CONTINUOUS
10
53.4366
20
-117.618
11
53.3461
21
-117.4
0
LINE
8
BLACK
6
CONTINUOUS
10
53.3461
20
-117.4
11
53.3
21
-117.168
0
LINE
8
BLACK
6
CONTINUOUS
10
53.3
20
-117.168
11
53.3
21
-116.932
0
LINE
8
BLACK
6
CONTINUOUS
10
53.3
20
-116.932
11
53.3461
21
-116.7
0
LINE
8
BLACK
6
CONTINUOUS
10
53.3461
20
-116.7
11
53.4366
21
-116.482
0
LINE
8
BLACK
6
CONTINUOUS
10
53.4366
20
-116.482
11
53.5679
21
-116.285
0
LINE
8
BLACK
6
CONTINUOUS
10
53.5679
20
-116.285
11
53.735
21
-116.118
0
LINE
8
BLACK
6
CONTINUOUS
10
53.735
20
-116.118
11
53.9316
21
-115.987
0
LINE
8
BLACK
6
CONTINUOUS
10
53.9316
20
-115.987
11
54.15
21
-115.896
0
LINE
8
BLACK
6
CONTINUOUS
10
54.15
20
-115.896
11
54.3818
21
-115.85
0
LINE
8
BLACK
6
CONTINUOUS
10
54.3818
20
-115.85
11
54.6182
21
-115.85
0
LINE
8
BLACK
6
CONTINUOUS
10
54.6182
20
-115.85
11
54.85
21
-115.896
0
LINE
8
BLACK
6
CONTINUOUS
10
51.35
20
-115.896
11
51.5684
21
-115.987
0
LINE
8
BLACK
6
CONTINUOUS
10
51.5684
20
-115.987
11
51.765
21
-116.118
0
LINE
8
BLACK
6
CONTINUOUS
10
51.765
20
-116.118
11
51.9321
21
-116.285
0
LINE
8
BLACK
6
CONTINUOUS
10
51.9321
20
-116.285
11
52.0634
21
-116.482
0
LINE
8
BLACK
6
CONTINUOUS
10
52.0634
20
-116.482
11
52.1539
21
-116.7
0
LINE
8
BLACK
6
CONTINUOUS
10
52.1539
20
-116.7
11
52.2
21
-116.932
0
LINE
8
BLACK
6
CONTINUOUS
10
52.2
20
-116.932
11
52.2
21
-117.168
0
LINE
8
BLACK
6
CONTINUOUS
10
52.2
20
-117.168
11
52.1539
21
-117.4
0
LINE
8
BLACK
6
CONTINUOUS
10
52.1539
20
-117.4
11
52.0634
21
-117.618
0
LINE
8
BLACK
6
CONTINUOUS
10
52.0634
20
-117.618
11
51.9321
21
-117.815
0
LINE
8
BLACK
6
CONTINUOUS
10
51.9321
20
-117.815
11
51.765
21
-117.982
0
LINE
8
BLACK
6
CONTINUOUS
10
51.765
20
-117.982
11
51.5684
21
-118.113
0
LINE
8
BLACK
6
CONTINUOUS
10
51.5684
20
-118.113
11
51.35
21
-118.204
0
LINE
8
BLACK
6
CONTINUOUS
10
51.35
20
-118.204
11
51.1182
21
-118.25
0
LINE
8
BLACK
6
CONTINUOUS
10
51.1182
20
-118.25
11
50.8818
21
-118.25
0
LINE
8
BLACK
6
CONTINUOUS
10
50.8818
20
-118.25
11
50.65
21
-118.204
0
LINE
8
BLACK
6
CONTINUOUS
10
50.65
20
-118.204
11
50.4316
21
-118.113
0
LINE
8
BLACK
6
CONTINUOUS
10
50.4316
20
-118.113
11
50.235
21
-117.982
0
LINE
8
BLACK
6
CONTINUOUS
10
50.235
20
-117.982
11
50.0679
21
-117.815
0
LINE
8
BLACK
6
CONTINUOUS
10
50.0679
20
-117.815
11
49.9366
21
-117.618
0
LINE
8
BLACK
6
CONTINUOUS
10
49.9366
20
-117.618
11
49.8461
21
-117.4
0
LINE
8
BLACK
6
CONTINUOUS
10
49.8461
20
-117.4
11
49.8
21
-117.168
0
LINE
8
BLACK
6
CONTINUOUS
10
49.8
20
-117.168
11
49.8
21
-116.932
0
LINE
8
BLACK
6
CONTINUOUS
10
49.8
20
-116.932
11
49.8461
21
-116.7
0
LINE
8
BLACK
6
CONTINUOUS
10
49.8461
20
-116.7
11
49.9366
21
-116.482
0
LINE
8
BLACK
6
CONTINUOUS
10
49.9366
20
-116.482
11
50.0679
21
-116.285
0
LINE
8
BLACK
6
CONTINUOUS
10
50.0679
20
-116.285
11
50.235
21
-116.118
0
LINE
8
BLACK
6
CONTINUOUS
10
50.235
20
-116.118
11
50.4316
21
-115.987
0
LINE
8
BLACK
6
CONTINUOUS
10
50.4316
20
-115.987
11
50.65
21
-115.896
0
LINE
8
BLACK
6
CONTINUOUS
10
50.65
20
-115.896
11
50.8818
21
-115.85
0
LINE
8
BLACK
6
CONTINUOUS
10
50.8818
20
-115.85
11
51.1182
21
-115.85
0
LINE
8
BLACK
6
CONTINUOUS
10
51.1182
20
-115.85
11
51.35
21
-115.896
0
LINE
8
BLACK
6
CONTINUOUS
10
58.35
20
-115.896
11
58.5684
21
-115.987
0
LINE
8
BLACK
6
CONTINUOUS
10
58.5684
20
-115.987
11
58.765
21
-116.118
0
LINE
8
BLACK
6
CONTINUOUS
10
58.765
20
-116.118
11
58.7801
21
-116.133
0
LINE
8
BLACK
6
CONTINUOUS
10
58.7801
20
-116.133
11
58.8553
21
-116.195
0
LINE
8
BLACK
6
CONTINUOUS
10
58.8553
20
-116.195
11
58.9169
21
-116.27
0
LINE
8
BLACK
6
CONTINUOUS
10
58.9169
20
-116.27
11
58.9321
21
-116.285
0
LINE
8
BLACK
6
CONTINUOUS
10
58.9321
20
-116.285
11
59.0634
21
-116.482
0
LINE
8
BLACK
6
CONTINUOUS
10
59.0634
20
-116.482
11
59.1539
21
-116.7
0
LINE
8
BLACK
6
CONTINUOUS
10
59.1539
20
-116.7
11
59.2
21
-116.932
0
LINE
8
BLACK
6
CONTINUOUS
10
59.2
20
-116.932
11
59.2
21
-117.168
0
LINE
8
BLACK
6
CONTINUOUS
10
59.2
20
-117.168
11
59.1539
21
-117.4
0
LINE
8
BLACK
6
CONTINUOUS
10
59.1539
20
-117.4
11
59.0634
21
-117.618
0
LINE
8
BLACK
6
CONTINUOUS
10
59.0634
20
-117.618
11
58.9321
21
-117.815
0
LINE
8
BLACK
6
CONTINUOUS
10
58.9321
20
-117.815
11
58.765
21
-117.982
0
LINE
8
BLACK
6
CONTINUOUS
10
58.765
20
-117.982
11
58.5684
21
-118.113
0
LINE
8
BLACK
6
CONTINUOUS
10
58.5684
20
-118.113
11
58.35
21
-118.204
0
LINE
8
BLACK
6
CONTINUOUS
10
58.35
20
-118.204
11
58.1182
21
-118.25
0
LINE
8
BLACK
6
CONTINUOUS
10
58.1182
20
-118.25
11
57.8818
21
-118.25
0
LINE
8
BLACK
6
CONTINUOUS
10
57.8818
20
-118.25
11
57.65
21
-118.204
0
LINE
8
BLACK
6
CONTINUOUS
10
57.65
20
-118.204
11
57.4316
21
-118.113
0
LINE
8
BLACK
6
CONTINUOUS
10
57.4316
20
-118.113
11
57.235
21
-117.982
0
LINE
8
BLACK
6
CONTINUOUS
10
57.235
20
-117.982
11
57.0679
21
-117.815
0
LINE
8
BLACK
6
CONTINUOUS
10
57.0679
20
-117.815
11
56.9366
21
-117.618
0
LINE
8
BLACK
6
CONTINUOUS
10
56.9366
20
-117.618
11
56.8461
21
-117.4
0
LINE
8
BLACK
6
CONTINUOUS
10
56.8461
20
-117.4
11
56.8
21
-117.168
0
LINE
8
BLACK
6
CONTINUOUS
10
56.8
20
-117.168
11
56.8
21
-116.932
0
LINE
8
BLACK
6
CONTINUOUS
10
56.8
20
-116.932
11
56.8461
21
-116.7
0
LINE
8
BLACK
6
CONTINUOUS
10
56.8461
20
-116.7
11
56.9366
21
-116.482
0
LINE
8
BLACK
6
CONTINUOUS
10
56.9366
20
-116.482
11
57.0679
21
-116.285
0
LINE
8
BLACK
6
CONTINUOUS
10
57.0679
20
-116.285
11
57.235
21
-116.118
0
LINE
8
BLACK
6
CONTINUOUS
10
57.235
20
-116.118
11
57.4316
21
-115.987
0
LINE
8
BLACK
6
CONTINUOUS
10
57.4316
20
-115.987
11
57.65
21
-115.896
0
LINE
8
BLACK
6
CONTINUOUS
10
57.65
20
-115.896
11
57.8818
21
-115.85
0
LINE
8
BLACK
6
CONTINUOUS
10
57.8818
20
-115.85
11
58.1182
21
-115.85
0
LINE
8
BLACK
6
CONTINUOUS
10
58.1182
20
-115.85
11
58.35
21
-115.896
0
LINE
8
BLACK
6
CONTINUOUS
10
61.85
20
-115.896
11
62.0684
21
-115.987
0
LINE
8
BLACK
6
CONTINUOUS
10
62.0684
20
-115.987
11
62.265
21
-116.118
0
LINE
8
BLACK
6
CONTINUOUS
10
62.265
20
-116.118
11
62.4321
21
-116.285
0
LINE
8
BLACK
6
CONTINUOUS
10
62.4321
20
-116.285
11
62.5634
21
-116.482
0
LINE
8
BLACK
6
CONTINUOUS
10
62.5634
20
-116.482
11
62.6539
21
-116.7
0
LINE
8
BLACK
6
CONTINUOUS
10
62.6539
20
-116.7
11
62.7
21
-116.932
0
LINE
8
BLACK
6
CONTINUOUS
10
62.7
20
-116.932
11
62.7
21
-117.168
0
LINE
8
BLACK
6
CONTINUOUS
10
62.7
20
-117.168
11
62.6539
21
-117.4
0
LINE
8
BLACK
6
CONTINUOUS
10
62.6539
20
-117.4
11
62.5634
21
-117.618
0
LINE
8
BLACK
6
CONTINUOUS
10
62.5634
20
-117.618
11
62.4321
21
-117.815
0
LINE
8
BLACK
6
CONTINUOUS
10
62.4321
20
-117.815
11
62.265
21
-117.982
0
LINE
8
BLACK
6
CONTINUOUS
10
62.265
20
-117.982
11
62.0684
21
-118.113
0
LINE
8
BLACK
6
CONTINUOUS
10
62.0684
20
-118.113
11
61.85
21
-118.204
0
LINE
8
BLACK
6
CONTINUOUS
10
61.85
20
-118.204
11
61.6182
21
-118.25
0
LINE
8
BLACK
6
CONTINUOUS
10
61.6182
20
-118.25
11
61.3818
21
-118.25
0
LINE
8
BLACK
6
CONTINUOUS
10
61.3818
20
-118.25
11
61.15
21
-118.204
0
LINE
8
BLACK
6
CONTINUOUS
10
61.15
20
-118.204
11
60.9316
21
-118.113
0
LINE
8
BLACK
6
CONTINUOUS
10
60.9316
20
-118.113
11
60.735
21
-117.982
0
LINE
8
BLACK
6
CONTINUOUS
10
60.735
20
-117.982
11
60.5679
21
-117.815
0
LINE
8
BLACK
6
CONTINUOUS
10
60.5679
20
-117.815
11
60.4366
21
-117.618
0
LINE
8
BLACK
6
CONTINUOUS
10
60.4366
20
-117.618
11
60.3461
21
-117.4
0
LINE
8
BLACK
6
CONTINUOUS
10
60.3461
20
-117.4
11
60.3
21
-117.168
0
LINE
8
BLACK
6
CONTINUOUS
10
60.3
20
-117.168
11
60.3
21
-116.932
0
LINE
8
BLACK
6
CONTINUOUS
10
60.3
20
-116.932
11
60.3461
21
-116.7
0
LINE
8
BLACK
6
CONTINUOUS
10
60.3461
20
-116.7
11
60.4366
21
-116.482
0
LINE
8
BLACK
6
CONTINUOUS
10
60.4366
20
-116.482
11
60.5679
21
-116.285
0
LINE
8
BLACK
6
CONTINUOUS
10
60.5679
20
-116.285
11
60.735
21
-116.118
0
LINE
8
BLACK
6
CONTINUOUS
10
60.735
20
-116.118
11
60.9316
21
-115.987
0
LINE
8
BLACK
6
CONTINUOUS
10
60.9316
20
-115.987
11
61.15
21
-115.896
0
LINE
8
BLACK
6
CONTINUOUS
10
61.15
20
-115.896
11
61.3818
21
-115.85
0
LINE
8
BLACK
6
CONTINUOUS
10
61.3818
20
-115.85
11
61.6182
21
-115.85
0
LINE
8
BLACK
6
CONTINUOUS
10
61.6182
20
-115.85
11
61.85
21
-115.896
0
LINE
8
BLACK
6
CONTINUOUS
10
65.35
20
-115.896
11
65.5684
21
-115.987
0
LINE
8
BLACK
6
CONTINUOUS
10
65.5684
20
-115.987
11
65.765
21
-116.118
0
LINE
8
BLACK
6
CONTINUOUS
10
65.765
20
-116.118
11
65.9321
21
-116.285
0
LINE
8
BLACK
6
CONTINUOUS
10
65.9321
20
-116.285
11
66.0634
21
-116.482
0
LINE
8
BLACK
6
CONTINUOUS
10
66.0634
20
-116.482
11
66.1539
21
-116.7
0
LINE
8
BLACK
6
CONTINUOUS
10
66.1539
20
-116.7
11
66.2
21
-116.932
0
LINE
8
BLACK
6
CONTINUOUS
10
66.2
20
-116.932
11
66.2
21
-117.168
0
LINE
8
BLACK
6
CONTINUOUS
10
66.2
20
-117.168
11
66.1539
21
-117.4
0
LINE
8
BLACK
6
CONTINUOUS
10
66.1539
20
-117.4
11
66.0634
21
-117.618
0
LINE
8
BLACK
6
CONTINUOUS
10
66.0634
20
-117.618
11
65.9321
21
-117.815
0
LINE
8
BLACK
6
CONTINUOUS
10
65.9321
20
-117.815
11
65.765
21
-117.982
0
LINE
8
BLACK
6
CONTINUOUS
10
65.765
20
-117.982
11
65.5684
21
-118.113
0
LINE
8
BLACK
6
CONTINUOUS
10
65.5684
20
-118.113
11
65.35
21
-118.204
0
LINE
8
BLACK
6
CONTINUOUS
10
65.35
20
-118.204
11
65.1182
21
-118.25
0
LINE
8
BLACK
6
CONTINUOUS
10
65.1182
20
-118.25
11
64.8818
21
-118.25
0
LINE
8
BLACK
6
CONTINUOUS
10
64.8818
20
-118.25
11
64.65
21
-118.204
0
LINE
8
BLACK
6
CONTINUOUS
10
64.65
20
-118.204
11
64.4316
21
-118.113
0
LINE
8
BLACK
6
CONTINUOUS
10
64.4316
20
-118.113
11
64.235
21
-117.982
0
LINE
8
BLACK
6
CONTINUOUS
10
64.235
20
-117.982
11
64.0679
21
-117.815
0
LINE
8
BLACK
6
CONTINUOUS
10
64.0679
20
-117.815
11
63.9366
21
-117.618
0
LINE
8
BLACK
6
CONTINUOUS
10
63.9366
20
-117.618
11
63.8461
21
-117.4
0
LINE
8
BLACK
6
CONTINUOUS
10
63.8461
20
-117.4
11
63.8
21
-117.168
0
LINE
8
BLACK
6
CONTINUOUS
10
63.8
20
-117.168
11
63.8
21
-116.932
0
LINE
8
BLACK
6
CONTINUOUS
10
63.8
20
-116.932
11
63.8461
21
-116.7
0
LINE
8
BLACK
6
CONTINUOUS
10
63.8461
20
-116.7
11
63.9366
21
-116.482
0
LINE
8
BLACK
6
CONTINUOUS
10
63.9366
20
-116.482
11
64.0679
21
-116.285
0
LINE
8
BLACK
6
CONTINUOUS
10
64.0679
20
-116.285
11
64.235
21
-116.118
0
LINE
8
BLACK
6
CONTINUOUS
10
64.235
20
-116.118
11
64.4316
21
-115.987
0
LINE
8
BLACK
6
CONTINUOUS
10
64.4316
20
-115.987
11
64.65
21
-115.896
0
LINE
8
BLACK
6
CONTINUOUS
10
64.65
20
-115.896
11
64.8818
21
-115.85
0
LINE
8
BLACK
6
CONTINUOUS
10
64.8818
20
-115.85
11
65.1182
21
-115.85
0
LINE
8
BLACK
6
CONTINUOUS
10
65.1182
20
-115.85
11
65.35
21
-115.896
0
LINE
8
BLACK
6
CONTINUOUS
10
68.85
20
-115.896
11
69.0684
21
-115.987
0
LINE
8
BLACK
6
CONTINUOUS
10
69.0684
20
-115.987
11
69.265
21
-116.118
0
LINE
8
BLACK
6
CONTINUOUS
10
69.265
20
-116.118
11
69.4321
21
-116.285
0
LINE
8
BLACK
6
CONTINUOUS
10
69.4321
20
-116.285
11
69.5634
21
-116.482
0
LINE
8
BLACK
6
CONTINUOUS
10
69.5634
20
-116.482
11
69.6539
21
-116.7
0
LINE
8
BLACK
6
CONTINUOUS
10
69.6539
20
-116.7
11
69.7
21
-116.932
0
LINE
8
BLACK
6
CONTINUOUS
10
69.7
20
-116.932
11
69.7
21
-117.168
0
LINE
8
BLACK
6
CONTINUOUS
10
69.7
20
-117.168
11
69.6539
21
-117.4
0
LINE
8
BLACK
6
CONTINUOUS
10
69.6539
20
-117.4
11
69.5634
21
-117.618
0
LINE
8
BLACK
6
CONTINUOUS
10
69.5634
20
-117.618
11
69.4321
21
-117.815
0
LINE
8
BLACK
6
CONTINUOUS
10
69.4321
20
-117.815
11
69.265
21
-117.982
0
LINE
8
BLACK
6
CONTINUOUS
10
69.265
20
-117.982
11
69.0684
21
-118.113
0
LINE
8
BLACK
6
CONTINUOUS
10
69.0684
20
-118.113
11
68.85
21
-118.204
0
LINE
8
BLACK
6
CONTINUOUS
10
68.85
20
-118.204
11
68.6182
21
-118.25
0
LINE
8
BLACK
6
CONTINUOUS
10
68.6182
20
-118.25
11
68.3818
21
-118.25
0
LINE
8
BLACK
6
CONTINUOUS
10
68.3818
20
-118.25
11
68.15
21
-118.204
0
LINE
8
BLACK
6
CONTINUOUS
10
68.15
20
-118.204
11
67.9316
21
-118.113
0
LINE
8
BLACK
6
CONTINUOUS
10
67.9316
20
-118.113
11
67.735
21
-117.982
0
LINE
8
BLACK
6
CONTINUOUS
10
67.735
20
-117.982
11
67.5679
21
-117.815
0
LINE
8
BLACK
6
CONTINUOUS
10
67.5679
20
-117.815
11
67.4366
21
-117.618
0
LINE
8
BLACK
6
CONTINUOUS
10
67.4366
20
-117.618
11
67.3461
21
-117.4
0
LINE
8
BLACK
6
CONTINUOUS
10
67.3461
20
-117.4
11
67.3
21
-117.168
0
LINE
8
BLACK
6
CONTINUOUS
10
67.3
20
-117.168
11
67.3
21
-116.932
0
LINE
8
BLACK
6
CONTINUOUS
10
67.3
20
-116.932
11
67.3461
21
-116.7
0
LINE
8
BLACK
6
CONTINUOUS
10
67.3461
20
-116.7
11
67.4366
21
-116.482
0
LINE
8
BLACK
6
CONTINUOUS
10
67.4366
20
-116.482
11
67.5679
21
-116.285
0
LINE
8
BLACK
6
CONTINUOUS
10
67.5679
20
-116.285
11
67.735
21
-116.118
0
LINE
8
BLACK
6
CONTINUOUS
10
67.735
20
-116.118
11
67.9316
21
-115.987
0
LINE
8
BLACK
6
CONTINUOUS
10
67.9316
20
-115.987
11
68.15
21
-115.896
0
LINE
8
BLACK
6
CONTINUOUS
10
68.15
20
-115.896
11
68.3818
21
-115.85
0
LINE
8
BLACK
6
CONTINUOUS
10
68.3818
20
-115.85
11
68.6182
21
-115.85
0
LINE
8
BLACK
6
CONTINUOUS
10
68.6182
20
-115.85
11
68.85
21
-115.896
0
LINE
8
BLACK
6
CONTINUOUS
10
48.7
20
-118.25
11
46.3
21
-118.25
0
LINE
8
BLACK
6
CONTINUOUS
10
46.3
20
-118.25
11
46.3
21
-115.85
0
LINE
8
BLACK
6
CONTINUOUS
10
46.3
20
-115.85
11
48.7
21
-115.85
0
LINE
8
BLACK
6
CONTINUOUS
10
48.7
20
-115.85
11
48.7
21
-118.25
0
LINE
8
BLACK
6
CONTINUOUS
10
72.35
20
-115.896
11
72.5684
21
-115.987
0
LINE
8
BLACK
6
CONTINUOUS
10
72.5684
20
-115.987
11
72.765
21
-116.118
0
LINE
8
BLACK
6
CONTINUOUS
10
72.765
20
-116.118
11
72.9321
21
-116.285
0
LINE
8
BLACK
6
CONTINUOUS
10
72.9321
20
-116.285
11
73.0634
21
-116.482
0
LINE
8
BLACK
6
CONTINUOUS
10
73.0634
20
-116.482
11
73.1539
21
-116.7
0
LINE
8
BLACK
6
CONTINUOUS
10
73.1539
20
-116.7
11
73.2
21
-116.932
0
LINE
8
BLACK
6
CONTINUOUS
10
73.2
20
-116.932
11
73.2
21
-117.168
0
LINE
8
BLACK
6
CONTINUOUS
10
73.2
20
-117.168
11
73.1539
21
-117.4
0
LINE
8
BLACK
6
CONTINUOUS
10
73.1539
20
-117.4
11
73.0634
21
-117.618
0
LINE
8
BLACK
6
CONTINUOUS
10
73.0634
20
-117.618
11
72.9321
21
-117.815
0
LINE
8
BLACK
6
CONTINUOUS
10
72.9321
20
-117.815
11
72.765
21
-117.982
0
LINE
8
BLACK
6
CONTINUOUS
10
72.765
20
-117.982
11
72.5684
21
-118.113
0
LINE
8
BLACK
6
CONTINUOUS
10
72.5684
20
-118.113
11
72.35
21
-118.204
0
LINE
8
BLACK
6
CONTINUOUS
10
72.35
20
-118.204
11
72.1182
21
-118.25
0
LINE
8
BLACK
6
CONTINUOUS
10
72.1182
20
-118.25
11
71.8818
21
-118.25
0
LINE
8
BLACK
6
CONTINUOUS
10
71.8818
20
-118.25
11
71.65
21
-118.204
0
LINE
8
BLACK
6
CONTINUOUS
10
71.65
20
-118.204
11
71.4316
21
-118.113
0
LINE
8
BLACK
6
CONTINUOUS
10
71.4316
20
-118.113
11
71.235
21
-117.982
0
LINE
8
BLACK
6
CONTINUOUS
10
71.235
20
-117.982
11
71.0679
21
-117.815
0
LINE
8
BLACK
6
CONTINUOUS
10
71.0679
20
-117.815
11
70.9366
21
-117.618
0
LINE
8
BLACK
6
CONTINUOUS
10
70.9366
20
-117.618
11
70.8461
21
-117.4
0
LINE
8
BLACK
6
CONTINUOUS
10
70.8461
20
-117.4
11
70.8
21
-117.168
0
LINE
8
BLACK
6
CONTINUOUS
10
70.8
20
-117.168
11
70.8
21
-116.932
0
LINE
8
BLACK
6
CONTINUOUS
10
70.8
20
-116.932
11
70.8461
21
-116.7
0
LINE
8
BLACK
6
CONTINUOUS
10
70.8461
20
-116.7
11
70.9366
21
-116.482
0
LINE
8
BLACK
6
CONTINUOUS
10
70.9366
20
-116.482
11
71.0679
21
-116.285
0
LINE
8
BLACK
6
CONTINUOUS
10
71.0679
20
-116.285
11
71.235
21
-116.118
0
LINE
8
BLACK
6
CONTINUOUS
10
71.235
20
-116.118
11
71.4316
21
-115.987
0
LINE
8
BLACK
6
CONTINUOUS
10
71.4316
20
-115.987
11
71.65
21
-115.896
0
LINE
8
BLACK
6
CONTINUOUS
10
71.65
20
-115.896
11
71.8818
21
-115.85
0
LINE
8
BLACK
6
CONTINUOUS
10
71.8818
20
-115.85
11
72.1182
21
-115.85
0
LINE
8
BLACK
6
CONTINUOUS
10
72.1182
20
-115.85
11
72.35
21
-115.896
0
LINE
8
BLACK
6
CONTINUOUS
10
81.45
20
-118.2
11
79.05
21
-118.2
0
LINE
8
BLACK
6
CONTINUOUS
10
79.05
20
-118.2
11
79.05
21
-115.8
0
LINE
8
BLACK
6
CONTINUOUS
10
79.05
20
-115.8
11
81.45
21
-115.8
0
LINE
8
BLACK
6
CONTINUOUS
10
81.45
20
-115.8
11
81.45
21
-118.2
0
LINE
8
BLACK
6
CONTINUOUS
10
84.1
20
-115.846
11
84.3184
21
-115.937
0
LINE
8
BLACK
6
CONTINUOUS
10
84.3184
20
-115.937
11
84.515
21
-116.068
0
LINE
8
BLACK
6
CONTINUOUS
10
84.515
20
-116.068
11
84.6821
21
-116.235
0
LINE
8
BLACK
6
CONTINUOUS
10
84.6821
20
-116.235
11
84.8134
21
-116.432
0
LINE
8
BLACK
6
CONTINUOUS
10
84.8134
20
-116.432
11
84.9039
21
-116.65
0
LINE
8
BLACK
6
CONTINUOUS
10
84.9039
20
-116.65
11
84.95
21
-116.882
0
LINE
8
BLACK
6
CONTINUOUS
10
84.95
20
-116.882
11
84.95
21
-117.118
0
LINE
8
BLACK
6
CONTINUOUS
10
84.95
20
-117.118
11
84.9039
21
-117.35
0
LINE
8
BLACK
6
CONTINUOUS
10
84.9039
20
-117.35
11
84.8134
21
-117.568
0
LINE
8
BLACK
6
CONTINUOUS
10
84.8134
20
-117.568
11
84.6821
21
-117.765
0
LINE
8
BLACK
6
CONTINUOUS
10
84.6821
20
-117.765
11
84.515
21
-117.932
0
LINE
8
BLACK
6
CONTINUOUS
10
84.515
20
-117.932
11
84.3184
21
-118.063
0
LINE
8
BLACK
6
CONTINUOUS
10
84.3184
20
-118.063
11
84.1
21
-118.154
0
LINE
8
BLACK
6
CONTINUOUS
10
84.1
20
-118.154
11
83.8682
21
-118.2
0
LINE
8
BLACK
6
CONTINUOUS
10
83.8682
20
-118.2
11
83.6318
21
-118.2
0
LINE
8
BLACK
6
CONTINUOUS
10
83.6318
20
-118.2
11
83.4
21
-118.154
0
LINE
8
BLACK
6
CONTINUOUS
10
83.4
20
-118.154
11
83.1816
21
-118.063
0
LINE
8
BLACK
6
CONTINUOUS
10
83.1816
20
-118.063
11
82.985
21
-117.932
0
LINE
8
BLACK
6
CONTINUOUS
10
82.985
20
-117.932
11
82.8179
21
-117.765
0
LINE
8
BLACK
6
CONTINUOUS
10
82.8179
20
-117.765
11
82.6866
21
-117.568
0
LINE
8
BLACK
6
CONTINUOUS
10
82.6866
20
-117.568
11
82.5961
21
-117.35
0
LINE
8
BLACK
6
CONTINUOUS
10
82.5961
20
-117.35
11
82.55
21
-117.118
0
LINE
8
BLACK
6
CONTINUOUS
10
82.55
20
-117.118
11
82.55
21
-116.882
0
LINE
8
BLACK
6
CONTINUOUS
10
82.55
20
-116.882
11
82.5961
21
-116.65
0
LINE
8
BLACK
6
CONTINUOUS
10
82.5961
20
-116.65
11
82.6866
21
-116.432
0
LINE
8
BLACK
6
CONTINUOUS
10
82.6866
20
-116.432
11
82.8179
21
-116.235
0
LINE
8
BLACK
6
CONTINUOUS
10
82.8179
20
-116.235
11
82.985
21
-116.068
0
LINE
8
BLACK
6
CONTINUOUS
10
82.985
20
-116.068
11
83.1816
21
-115.937
0
LINE
8
BLACK
6
CONTINUOUS
10
83.1816
20
-115.937
11
83.4
21
-115.846
0
LINE
8
BLACK
6
CONTINUOUS
10
83.4
20
-115.846
11
83.6318
21
-115.8
0
LINE
8
BLACK
6
CONTINUOUS
10
83.6318
20
-115.8
11
83.8682
21
-115.8
0
LINE
8
BLACK
6
CONTINUOUS
10
83.8682
20
-115.8
11
84.1
21
-115.846
0
LINE
8
BLACK
6
CONTINUOUS
10
87.6
20
-115.846
11
87.8184
21
-115.937
0
LINE
8
BLACK
6
CONTINUOUS
10
87.8184
20
-115.937
11
88.015
21
-116.068
0
LINE
8
BLACK
6
CONTINUOUS
10
88.015
20
-116.068
11
88.1821
21
-116.235
0
LINE
8
BLACK
6
CONTINUOUS
10
88.1821
20
-116.235
11
88.3134
21
-116.432
0
LINE
8
BLACK
6
CONTINUOUS
10
88.3134
20
-116.432
11
88.4039
21
-116.65
0
LINE
8
BLACK
6
CONTINUOUS
10
88.4039
20
-116.65
11
88.45
21
-116.882
0
LINE
8
BLACK
6
CONTINUOUS
10
88.45
20
-116.882
11
88.45
21
-117.118
0
LINE
8
BLACK
6
CONTINUOUS
10
88.45
20
-117.118
11
88.4039
21
-117.35
0
LINE
8
BLACK
6
CONTINUOUS
10
88.4039
20
-117.35
11
88.3134
21
-117.568
0
LINE
8
BLACK
6
CONTINUOUS
10
88.3134
20
-117.568
11
88.1821
21
-117.765
0
LINE
8
BLACK
6
CONTINUOUS
10
88.1821
20
-117.765
11
88.015
21
-117.932
0
LINE
8
BLACK
6
CONTINUOUS
10
88.015
20
-117.932
11
87.8184
21
-118.063
0
LINE
8
BLACK
6
CONTINUOUS
10
87.8184
20
-118.063
11
87.6
21
-118.154
0
LINE
8
BLACK
6
CONTINUOUS
10
87.6
20
-118.154
11
87.3682
21
-118.2
0
LINE
8
BLACK
6
CONTINUOUS
10
87.3682
20
-118.2
11
87.1318
21
-118.2
0
LINE
8
BLACK
6
CONTINUOUS
10
87.1318
20
-118.2
11
86.9
21
-118.154
0
LINE
8
BLACK
6
CONTINUOUS
10
86.9
20
-118.154
11
86.6816
21
-118.063
0
LINE
8
BLACK
6
CONTINUOUS
10
86.6816
20
-118.063
11
86.485
21
-117.932
0
LINE
8
BLACK
6
CONTINUOUS
10
86.485
20
-117.932
11
86.3179
21
-117.765
0
LINE
8
BLACK
6
CONTINUOUS
10
86.3179
20
-117.765
11
86.1866
21
-117.568
0
LINE
8
BLACK
6
CONTINUOUS
10
86.1866
20
-117.568
11
86.0961
21
-117.35
0
LINE
8
BLACK
6
CONTINUOUS
10
86.0961
20
-117.35
11
86.05
21
-117.118
0
LINE
8
BLACK
6
CONTINUOUS
10
86.05
20
-117.118
11
86.05
21
-116.882
0
LINE
8
BLACK
6
CONTINUOUS
10
86.05
20
-116.882
11
86.0961
21
-116.65
0
LINE
8
BLACK
6
CONTINUOUS
10
86.0961
20
-116.65
11
86.1866
21
-116.432
0
LINE
8
BLACK
6
CONTINUOUS
10
86.1866
20
-116.432
11
86.3179
21
-116.235
0
LINE
8
BLACK
6
CONTINUOUS
10
86.3179
20
-116.235
11
86.485
21
-116.068
0
LINE
8
BLACK
6
CONTINUOUS
10
86.485
20
-116.068
11
86.6816
21
-115.937
0
LINE
8
BLACK
6
CONTINUOUS
10
86.6816
20
-115.937
11
86.9
21
-115.846
0
LINE
8
BLACK
6
CONTINUOUS
10
86.9
20
-115.846
11
87.1318
21
-115.8
0
LINE
8
BLACK
6
CONTINUOUS
10
87.1318
20
-115.8
11
87.3682
21
-115.8
0
LINE
8
BLACK
6
CONTINUOUS
10
87.3682
20
-115.8
11
87.6
21
-115.846
0
LINE
8
BLACK
6
CONTINUOUS
10
118.7
20
-104.083
11
119.017
21
-104.558
0
LINE
8
BLACK
6
CONTINUOUS
10
119.017
20
-104.558
11
119.469
21
-105.65
0
LINE
8
BLACK
6
CONTINUOUS
10
119.469
20
-105.65
11
119.7
21
-106.809
0
LINE
8
BLACK
6
CONTINUOUS
10
119.7
20
-106.809
11
119.7
21
-107.991
0
LINE
8
BLACK
6
CONTINUOUS
10
119.7
20
-107.991
11
119.469
21
-109.15
0
LINE
8
BLACK
6
CONTINUOUS
10
119.469
20
-109.15
11
119.017
21
-110.242
0
LINE
8
BLACK
6
CONTINUOUS
10
119.017
20
-110.242
11
118.361
21
-111.225
0
LINE
8
BLACK
6
CONTINUOUS
10
118.361
20
-111.225
11
117.525
21
-112.061
0
LINE
8
BLACK
6
CONTINUOUS
10
117.525
20
-112.061
11
116.542
21
-112.717
0
LINE
8
BLACK
6
CONTINUOUS
10
116.542
20
-112.717
11
115.45
21
-113.169
0
LINE
8
BLACK
6
CONTINUOUS
10
115.45
20
-113.169
11
114.291
21
-113.4
0
LINE
8
BLACK
6
CONTINUOUS
10
114.291
20
-113.4
11
113.109
21
-113.4
0
LINE
8
BLACK
6
CONTINUOUS
10
113.109
20
-113.4
11
111.95
21
-113.169
0
LINE
8
BLACK
6
CONTINUOUS
10
111.95
20
-113.169
11
110.858
21
-112.717
0
LINE
8
BLACK
6
CONTINUOUS
10
110.858
20
-112.717
11
109.875
21
-112.061
0
LINE
8
BLACK
6
CONTINUOUS
10
109.875
20
-112.061
11
109.039
21
-111.225
0
LINE
8
BLACK
6
CONTINUOUS
10
109.039
20
-111.225
11
108.383
21
-110.242
0
LINE
8
BLACK
6
CONTINUOUS
10
108.383
20
-110.242
11
107.931
21
-109.15
0
LINE
8
BLACK
6
CONTINUOUS
10
107.931
20
-109.15
11
107.7
21
-107.991
0
LINE
8
BLACK
6
CONTINUOUS
10
107.7
20
-107.991
11
107.7
21
-106.809
0
LINE
8
BLACK
6
CONTINUOUS
10
107.7
20
-106.809
11
107.931
21
-105.65
0
LINE
8
BLACK
6
CONTINUOUS
10
107.931
20
-105.65
11
108.383
21
-104.558
0
LINE
8
BLACK
6
CONTINUOUS
10
108.383
20
-104.558
11
108.7
21
-104.083
0
LINE
8
BLACK
6
CONTINUOUS
10
108.7
20
-104.083
11
108.7
21
-97.9
0
LINE
8
BLACK
6
CONTINUOUS
10
108.7
20
-97.9
11
118.7
21
-97.9
0
LINE
8
BLACK
6
CONTINUOUS
10
118.7
20
-97.9
11
118.7
21
-104.083
0
LINE
8
BLACK
6
CONTINUOUS
10
143.4
20
-104.083
11
143.717
21
-104.558
0
LINE
8
BLACK
6
CONTINUOUS
10
143.717
20
-104.558
11
144.169
21
-105.65
0
LINE
8
BLACK
6
CONTINUOUS
10
144.169
20
-105.65
11
144.4
21
-106.809
0
LINE
8
BLACK
6
CONTINUOUS
10
144.4
20
-106.809
11
144.4
21
-107.991
0
LINE
8
BLACK
6
CONTINUOUS
10
144.4
20
-107.991
11
144.169
21
-109.15
0
LINE
8
BLACK
6
CONTINUOUS
10
144.169
20
-109.15
11
143.717
21
-110.242
0
LINE
8
BLACK
6
CONTINUOUS
10
143.717
20
-110.242
11
143.061
21
-111.225
0
LINE
8
BLACK
6
CONTINUOUS
10
143.061
20
-111.225
11
142.225
21
-112.061
0
LINE
8
BLACK
6
CONTINUOUS
10
142.225
20
-112.061
11
141.242
21
-112.717
0
LINE
8
BLACK
6
CONTINUOUS
10
141.242
20
-112.717
11
140.15
21
-113.169
0
LINE
8
BLACK
6
CONTINUOUS
10
140.15
20
-113.169
11
138.991
21
-113.4
0
LINE
8
BLACK
6
CONTINUOUS
10
138.991
20
-113.4
11
137.809
21
-113.4
0
LINE
8
BLACK
6
CONTINUOUS
10
137.809
20
-113.4
11
136.65
21
-113.169
0
LINE
8
BLACK
6
CONTINUOUS
10
136.65
20
-113.169
11
135.558
21
-112.717
0
LINE
8
BLACK
6
CONTINUOUS
10
135.558
20
-112.717
11
134.575
21
-112.061
0
LINE
8
BLACK
6
CONTINUOUS
10
134.575
20
-112.061
11
133.739
21
-111.225
0
LINE
8
BLACK
6
CONTINUOUS
10
133.739
20
-111.225
11
133.083
21
-110.242
0
LINE
8
BLACK
6
CONTINUOUS
10
133.083
20
-110.242
11
132.631
21
-109.15
0
LINE
8
BLACK
6
CONTINUOUS
10
132.631
20
-109.15
11
132.4
21
-107.991
0
LINE
8
BLACK
6
CONTINUOUS
10
132.4
20
-107.991
11
132.4
21
-106.809
0
LINE
8
BLACK
6
CONTINUOUS
10
132.4
20
-106.809
11
132.631
21
-105.65
0
LINE
8
BLACK
6
CONTINUOUS
10
132.631
20
-105.65
11
133.083
21
-104.558
0
LINE
8
BLACK
6
CONTINUOUS
10
133.083
20
-104.558
11
133.4
21
-104.083
0
LINE
8
BLACK
6
CONTINUOUS
10
133.4
20
-104.083
11
133.4
21
-97.9
0
LINE
8
BLACK
6
CONTINUOUS
10
133.4
20
-97.9
11
143.4
21
-97.9
0
LINE
8
BLACK
6
CONTINUOUS
10
143.4
20
-97.9
11
143.4
21
-104.083
0
LINE
8
BLACK
6
CONTINUOUS
10
157.5
20
-104.083
11
157.817
21
-104.558
0
LINE
8
BLACK
6
CONTINUOUS
10
157.817
20
-104.558
11
158.269
21
-105.65
0
LINE
8
BLACK
6
CONTINUOUS
10
158.269
20
-105.65
11
158.5
21
-106.809
0
LINE
8
BLACK
6
CONTINUOUS
10
158.5
20
-106.809
11
158.5
21
-107.991
0
LINE
8
BLACK
6
CONTINUOUS
10
158.5
20
-107.991
11
158.269
21
-109.15
0
LINE
8
BLACK
6
CONTINUOUS
10
158.269
20
-109.15
11
157.817
21
-110.242
0
LINE
8
BLACK
6
CONTINUOUS
10
157.817
20
-110.242
11
157.161
21
-111.225
0
LINE
8
BLACK
6
CONTINUOUS
10
157.161
20
-111.225
11
156.325
21
-112.061
0
LINE
8
BLACK
6
CONTINUOUS
10
156.325
20
-112.061
11
155.342
21
-112.717
0
LINE
8
BLACK
6
CONTINUOUS
10
155.342
20
-112.717
11
154.25
21
-113.169
0
LINE
8
BLACK
6
CONTINUOUS
10
154.25
20
-113.169
11
153.091
21
-113.4
0
LINE
8
BLACK
6
CONTINUOUS
10
153.091
20
-113.4
11
151.909
21
-113.4
0
LINE
8
BLACK
6
CONTINUOUS
10
151.909
20
-113.4
11
150.75
21
-113.169
0
LINE
8
BLACK
6
CONTINUOUS
10
150.75
20
-113.169
11
149.658
21
-112.717
0
LINE
8
BLACK
6
CONTINUOUS
10
149.658
20
-112.717
11
148.675
21
-112.061
0
LINE
8
BLACK
6
CONTINUOUS
10
148.675
20
-112.061
11
147.839
21
-111.225
0
LINE
8
BLACK
6
CONTINUOUS
10
147.839
20
-111.225
11
147.183
21
-110.242
0
LINE
8
BLACK
6
CONTINUOUS
10
147.183
20
-110.242
11
146.731
21
-109.15
0
LINE
8
BLACK
6
CONTINUOUS
10
146.731
20
-109.15
11
146.5
21
-107.991
0
LINE
8
BLACK
6
CONTINUOUS
10
146.5
20
-107.991
11
146.5
21
-106.809
0
LINE
8
BLACK
6
CONTINUOUS
10
146.5
20
-106.809
11
146.731
21
-105.65
0
LINE
8
BLACK
6
CONTINUOUS
10
146.731
20
-105.65
11
147.183
21
-104.558
0
LINE
8
BLACK
6
CONTINUOUS
10
147.183
20
-104.558
11
147.5
21
-104.083
0
LINE
8
BLACK
6
CONTINUOUS
10
147.5
20
-104.083
11
147.5
21
-97.9
0
LINE
8
BLACK
6
CONTINUOUS
10
147.5
20
-97.9
11
157.5
21
-97.9
0
LINE
8
BLACK
6
CONTINUOUS
10
157.5
20
-97.9
11
157.5
21
-104.083
0
LINE
8
BLACK
6
CONTINUOUS
10
105
20
-104.083
11
105.317
21
-104.558
0
LINE
8
BLACK
6
CONTINUOUS
10
105.317
20
-104.558
11
105.769
21
-105.65
0
LINE
8
BLACK
6
CONTINUOUS
10
105.769
20
-105.65
11
106
21
-106.809
0
LINE
8
BLACK
6
CONTINUOUS
10
106
20
-106.809
11
106
21
-107.991
0
LINE
8
BLACK
6
CONTINUOUS
10
106
20
-107.991
11
105.769
21
-109.15
0
LINE
8
BLACK
6
CONTINUOUS
10
105.769
20
-109.15
11
105.317
21
-110.242
0
LINE
8
BLACK
6
CONTINUOUS
10
105.317
20
-110.242
11
104.661
21
-111.225
0
LINE
8
BLACK
6
CONTINUOUS
10
104.661
20
-111.225
11
103.825
21
-112.061
0
LINE
8
BLACK
6
CONTINUOUS
10
103.825
20
-112.061
11
102.842
21
-112.717
0
LINE
8
BLACK
6
CONTINUOUS
10
102.842
20
-112.717
11
101.75
21
-113.169
0
LINE
8
BLACK
6
CONTINUOUS
10
101.75
20
-113.169
11
100.591
21
-113.4
0
LINE
8
BLACK
6
CONTINUOUS
10
100.591
20
-113.4
11
99.4091
21
-113.4
0
LINE
8
BLACK
6
CONTINUOUS
10
99.4091
20
-113.4
11
98.2499
21
-113.169
0
LINE
8
BLACK
6
CONTINUOUS
10
98.2499
20
-113.169
11
97.1579
21
-112.717
0
LINE
8
BLACK
6
CONTINUOUS
10
97.1579
20
-112.717
11
96.1752
21
-112.061
0
LINE
8
BLACK
6
CONTINUOUS
10
96.1752
20
-112.061
11
95.3395
21
-111.225
0
LINE
8
BLACK
6
CONTINUOUS
10
95.3395
20
-111.225
11
94.6829
21
-110.242
0
LINE
8
BLACK
6
CONTINUOUS
10
94.6829
20
-110.242
11
94.2306
21
-109.15
0
LINE
8
BLACK
6
CONTINUOUS
10
94.2306
20
-109.15
11
94
21
-107.991
0
LINE
8
BLACK
6
CONTINUOUS
10
94
20
-107.991
11
94
21
-106.809
0
LINE
8
BLACK
6
CONTINUOUS
10
94
20
-106.809
11
94.2306
21
-105.65
0
LINE
8
BLACK
6
CONTINUOUS
10
94.2306
20
-105.65
11
94.6829
21
-104.558
0
LINE
8
BLACK
6
CONTINUOUS
10
94.6829
20
-104.558
11
95
21
-104.083
0
LINE
8
BLACK
6
CONTINUOUS
10
95
20
-104.083
11
95
21
-97.9
0
LINE
8
BLACK
6
CONTINUOUS
10
95
20
-97.9
11
105
21
-97.9
0
LINE
8
BLACK
6
CONTINUOUS
10
105
20
-97.9
11
105
21
-104.083
0
LINE
8
BLACK
6
CONTINUOUS
10
2.71877
20
-47.2788
11
2.85526
21
-47.3354
0
LINE
8
BLACK
6
CONTINUOUS
10
2.85526
20
-47.3354
11
2.9781
21
-47.4174
0
LINE
8
BLACK
6
CONTINUOUS
10
2.9781
20
-47.4174
11
3.08256
21
-47.5219
0
LINE
8
BLACK
6
CONTINUOUS
10
3.08256
20
-47.5219
11
3.16464
21
-47.6447
0
LINE
8
BLACK
6
CONTINUOUS
10
3.16464
20
-47.6447
11
3.22118
21
-47.7812
0
LINE
8
BLACK
6
CONTINUOUS
10
3.22118
20
-47.7812
11
3.25
21
-47.9261
0
LINE
8
BLACK
6
CONTINUOUS
10
3.25
20
-47.9261
11
3.25
21
-48.0739
0
LINE
8
BLACK
6
CONTINUOUS
10
3.25
20
-48.0739
11
3.22118
21
-48.2188
0
LINE
8
BLACK
6
CONTINUOUS
10
3.22118
20
-48.2188
11
3.16464
21
-48.3553
0
LINE
8
BLACK
6
CONTINUOUS
10
3.16464
20
-48.3553
11
3.08256
21
-48.4781
0
LINE
8
BLACK
6
CONTINUOUS
10
3.08256
20
-48.4781
11
2.9781
21
-48.5826
0
LINE
8
BLACK
6
CONTINUOUS
10
2.9781
20
-48.5826
11
2.85526
21
-48.6646
0
LINE
8
BLACK
6
CONTINUOUS
10
2.85526
20
-48.6646
11
2.71877
21
-48.7212
0
LINE
8
BLACK
6
CONTINUOUS
10
2.71877
20
-48.7212
11
2.57387
21
-48.75
0
LINE
8
BLACK
6
CONTINUOUS
10
2.57387
20
-48.75
11
2.42613
21
-48.75
0
LINE
8
BLACK
6
CONTINUOUS
10
2.42613
20
-48.75
11
2.28123
21
-48.7212
0
LINE
8
BLACK
6
CONTINUOUS
10
2.28123
20
-48.7212
11
2.14474
21
-48.6646
0
LINE
8
BLACK
6
CONTINUOUS
10
2.14474
20
-48.6646
11
2.0219
21
-48.5826
0
LINE
8
BLACK
6
CONTINUOUS
10
2.0219
20
-48.5826
11
1.91744
21
-48.4781
0
LINE
8
BLACK
6
CONTINUOUS
10
1.91744
20
-48.4781
11
1.83536
21
-48.3553
0
LINE
8
BLACK
6
CONTINUOUS
10
1.83536
20
-48.3553
11
1.77882
21
-48.2188
0
LINE
8
BLACK
6
CONTINUOUS
10
1.77882
20
-48.2188
11
1.75
21
-48.0739
0
LINE
8
BLACK
6
CONTINUOUS
10
1.75
20
-48.0739
11
1.75
21
-47.9261
0
LINE
8
BLACK
6
CONTINUOUS
10
1.75
20
-47.9261
11
1.77882
21
-47.7812
0
LINE
8
BLACK
6
CONTINUOUS
10
1.77882
20
-47.7812
11
1.83536
21
-47.6447
0
LINE
8
BLACK
6
CONTINUOUS
10
1.83536
20
-47.6447
11
1.91744
21
-47.5219
0
LINE
8
BLACK
6
CONTINUOUS
10
1.91744
20
-47.5219
11
2.0219
21
-47.4174
0
LINE
8
BLACK
6
CONTINUOUS
10
2.0219
20
-47.4174
11
2.14474
21
-47.3354
0
LINE
8
BLACK
6
CONTINUOUS
10
2.14474
20
-47.3354
11
2.28123
21
-47.2788
0
LINE
8
BLACK
6
CONTINUOUS
10
2.28123
20
-47.2788
11
2.42613
21
-47.25
0
LINE
8
BLACK
6
CONTINUOUS
10
2.42613
20
-47.25
11
2.57387
21
-47.25
0
LINE
8
BLACK
6
CONTINUOUS
10
2.57387
20
-47.25
11
2.71877
21
-47.2788
0
LINE
8
BLACK
6
CONTINUOUS
10
32.9523
20
-7.86728
11
33.0909
21
-7.92472
0
LINE
8
BLACK
6
CONTINUOUS
10
33.0909
20
-7.92472
11
33.2157
21
-8.00812
0
LINE
8
BLACK
6
CONTINUOUS
10
33.2157
20
-8.00812
11
33.3219
21
-8.11425
0
LINE
8
BLACK
6
CONTINUOUS
10
33.3219
20
-8.11425
11
33.4053
21
-8.23906
0
LINE
8
BLACK
6
CONTINUOUS
10
33.4053
20
-8.23906
11
33.4627
21
-8.37773
0
LINE
8
BLACK
6
CONTINUOUS
10
33.4627
20
-8.37773
11
33.492
21
-8.52495
0
LINE
8
BLACK
6
CONTINUOUS
10
33.492
20
-8.52495
11
33.492
21
-8.67505
0
LINE
8
BLACK
6
CONTINUOUS
10
33.492
20
-8.67505
11
33.4627
21
-8.82227
0
LINE
8
BLACK
6
CONTINUOUS
10
33.4627
20
-8.82227
11
33.4053
21
-8.96094
0
LINE
8
BLACK
6
CONTINUOUS
10
33.4053
20
-8.96094
11
33.3219
21
-9.08575
0
LINE
8
BLACK
6
CONTINUOUS
10
33.3219
20
-9.08575
11
33.2157
21
-9.19188
0
LINE
8
BLACK
6
CONTINUOUS
10
33.2157
20
-9.19188
11
33.0909
21
-9.27528
0
LINE
8
BLACK
6
CONTINUOUS
10
33.0909
20
-9.27528
11
32.9523
21
-9.33272
0
LINE
8
BLACK
6
CONTINUOUS
10
32.9523
20
-9.33272
11
32.8051
21
-9.362
0
LINE
8
BLACK
6
CONTINUOUS
10
32.8051
20
-9.362
11
32.6549
21
-9.362
0
LINE
8
BLACK
6
CONTINUOUS
10
32.6549
20
-9.362
11
32.5077
21
-9.33272
0
LINE
8
BLACK
6
CONTINUOUS
10
32.5077
20
-9.33272
11
32.3691
21
-9.27528
0
LINE
8
BLACK
6
CONTINUOUS
10
32.3691
20
-9.27528
11
32.2443
21
-9.19188
0
LINE
8
BLACK
6
CONTINUOUS
10
32.2443
20
-9.19188
11
32.1381
21
-9.08575
0
LINE
8
BLACK
6
CONTINUOUS
10
32.1381
20
-9.08575
11
32.0547
21
-8.96094
0
LINE
8
BLACK
6
CONTINUOUS
10
32.0547
20
-8.96094
11
31.9973
21
-8.82227
0
LINE
8
BLACK
6
CONTINUOUS
10
31.9973
20
-8.82227
11
31.968
21
-8.67505
0
LINE
8
BLACK
6
CONTINUOUS
10
31.968
20
-8.67505
11
31.968
21
-8.52495
0
LINE
8
BLACK
6
CONTINUOUS
10
31.968
20
-8.52495
11
31.9973
21
-8.37773
0
LINE
8
BLACK
6
CONTINUOUS
10
31.9973
20
-8.37773
11
32.0547
21
-8.23906
0
LINE
8
BLACK
6
CONTINUOUS
10
32.0547
20
-8.23906
11
32.1381
21
-8.11425
0
LINE
8
BLACK
6
CONTINUOUS
10
32.1381
20
-8.11425
11
32.2443
21
-8.00812
0
LINE
8
BLACK
6
CONTINUOUS
10
32.2443
20
-8.00812
11
32.3691
21
-7.92472
0
LINE
8
BLACK
6
CONTINUOUS
10
32.3691
20
-7.92472
11
32.5077
21
-7.86728
0
LINE
8
BLACK
6
CONTINUOUS
10
32.5077
20
-7.86728
11
32.6549
21
-7.838
0
LINE
8
BLACK
6
CONTINUOUS
10
32.6549
20
-7.838
11
32.8051
21
-7.838
0
LINE
8
BLACK
6
CONTINUOUS
10
32.8051
20
-7.838
11
32.9523
21
-7.86728
0
LINE
8
BLACK
6
CONTINUOUS
10
20.2523
20
-7.86728
11
20.3909
21
-7.92472
0
LINE
8
BLACK
6
CONTINUOUS
10
20.3909
20
-7.92472
11
20.5157
21
-8.00812
0
LINE
8
BLACK
6
CONTINUOUS
10
20.5157
20
-8.00812
11
20.6219
21
-8.11425
0
LINE
8
BLACK
6
CONTINUOUS
10
20.6219
20
-8.11425
11
20.7053
21
-8.23906
0
LINE
8
BLACK
6
CONTINUOUS
10
20.7053
20
-8.23906
11
20.7627
21
-8.37773
0
LINE
8
BLACK
6
CONTINUOUS
10
20.7627
20
-8.37773
11
20.792
21
-8.52495
0
LINE
8
BLACK
6
CONTINUOUS
10
20.792
20
-8.52495
11
20.792
21
-8.67505
0
LINE
8
BLACK
6
CONTINUOUS
10
20.792
20
-8.67505
11
20.7627
21
-8.82227
0
LINE
8
BLACK
6
CONTINUOUS
10
20.7627
20
-8.82227
11
20.7053
21
-8.96094
0
LINE
8
BLACK
6
CONTINUOUS
10
20.7053
20
-8.96094
11
20.6219
21
-9.08575
0
LINE
8
BLACK
6
CONTINUOUS
10
20.6219
20
-9.08575
11
20.5157
21
-9.19188
0
LINE
8
BLACK
6
CONTINUOUS
10
20.5157
20
-9.19188
11
20.3909
21
-9.27528
0
LINE
8
BLACK
6
CONTINUOUS
10
20.3909
20
-9.27528
11
20.2523
21
-9.33272
0
LINE
8
BLACK
6
CONTINUOUS
10
20.2523
20
-9.33272
11
20.105
21
-9.362
0
LINE
8
BLACK
6
CONTINUOUS
10
20.105
20
-9.362
11
19.955
21
-9.362
0
LINE
8
BLACK
6
CONTINUOUS
10
19.955
20
-9.362
11
19.8077
21
-9.33272
0
LINE
8
BLACK
6
CONTINUOUS
10
19.8077
20
-9.33272
11
19.6691
21
-9.27528
0
LINE
8
BLACK
6
CONTINUOUS
10
19.6691
20
-9.27528
11
19.5443
21
-9.19188
0
LINE
8
BLACK
6
CONTINUOUS
10
19.5443
20
-9.19188
11
19.4381
21
-9.08575
0
LINE
8
BLACK
6
CONTINUOUS
10
19.4381
20
-9.08575
11
19.3547
21
-8.96094
0
LINE
8
BLACK
6
CONTINUOUS
10
19.3547
20
-8.96094
11
19.2973
21
-8.82227
0
LINE
8
BLACK
6
CONTINUOUS
10
19.2973
20
-8.82227
11
19.268
21
-8.67505
0
LINE
8
BLACK
6
CONTINUOUS
10
19.268
20
-8.67505
11
19.268
21
-8.52495
0
LINE
8
BLACK
6
CONTINUOUS
10
19.268
20
-8.52495
11
19.2973
21
-8.37773
0
LINE
8
BLACK
6
CONTINUOUS
10
19.2973
20
-8.37773
11
19.3547
21
-8.23906
0
LINE
8
BLACK
6
CONTINUOUS
10
19.3547
20
-8.23906
11
19.4381
21
-8.11425
0
LINE
8
BLACK
6
CONTINUOUS
10
19.4381
20
-8.11425
11
19.5443
21
-8.00812
0
LINE
8
BLACK
6
CONTINUOUS
10
19.5443
20
-8.00812
11
19.6691
21
-7.92472
0
LINE
8
BLACK
6
CONTINUOUS
10
19.6691
20
-7.92472
11
19.8077
21
-7.86728
0
LINE
8
BLACK
6
CONTINUOUS
10
19.8077
20
-7.86728
11
19.955
21
-7.838
0
LINE
8
BLACK
6
CONTINUOUS
10
19.955
20
-7.838
11
20.105
21
-7.838
0
LINE
8
BLACK
6
CONTINUOUS
10
20.105
20
-7.838
11
20.2523
21
-7.86728
0
LINE
8
BLACK
6
CONTINUOUS
10
17.7123
20
-7.86728
11
17.8509
21
-7.92472
0
LINE
8
BLACK
6
CONTINUOUS
10
17.8509
20
-7.92472
11
17.9757
21
-8.00812
0
LINE
8
BLACK
6
CONTINUOUS
10
17.9757
20
-8.00812
11
18.0819
21
-8.11425
0
LINE
8
BLACK
6
CONTINUOUS
10
18.0819
20
-8.11425
11
18.1653
21
-8.23906
0
LINE
8
BLACK
6
CONTINUOUS
10
18.1653
20
-8.23906
11
18.2227
21
-8.37773
0
LINE
8
BLACK
6
CONTINUOUS
10
18.2227
20
-8.37773
11
18.252
21
-8.52495
0
LINE
8
BLACK
6
CONTINUOUS
10
18.252
20
-8.52495
11
18.252
21
-8.67505
0
LINE
8
BLACK
6
CONTINUOUS
10
18.252
20
-8.67505
11
18.2227
21
-8.82227
0
LINE
8
BLACK
6
CONTINUOUS
10
18.2227
20
-8.82227
11
18.1653
21
-8.96094
0
LINE
8
BLACK
6
CONTINUOUS
10
18.1653
20
-8.96094
11
18.0819
21
-9.08575
0
LINE
8
BLACK
6
CONTINUOUS
10
18.0819
20
-9.08575
11
17.9757
21
-9.19188
0
LINE
8
BLACK
6
CONTINUOUS
10
17.9757
20
-9.19188
11
17.8509
21
-9.27528
0
LINE
8
BLACK
6
CONTINUOUS
10
17.8509
20
-9.27528
11
17.7123
21
-9.33272
0
LINE
8
BLACK
6
CONTINUOUS
10
17.7123
20
-9.33272
11
17.565
21
-9.362
0
LINE
8
BLACK
6
CONTINUOUS
10
17.565
20
-9.362
11
17.4149
21
-9.362
0
LINE
8
BLACK
6
CONTINUOUS
10
17.4149
20
-9.362
11
17.2677
21
-9.33272
0
LINE
8
BLACK
6
CONTINUOUS
10
17.2677
20
-9.33272
11
17.1291
21
-9.27528
0
LINE
8
BLACK
6
CONTINUOUS
10
17.1291
20
-9.27528
11
17.0043
21
-9.19188
0
LINE
8
BLACK
6
CONTINUOUS
10
17.0043
20
-9.19188
11
16.8981
21
-9.08575
0
LINE
8
BLACK
6
CONTINUOUS
10
16.8981
20
-9.08575
11
16.8147
21
-8.96094
0
LINE
8
BLACK
6
CONTINUOUS
10
16.8147
20
-8.96094
11
16.7573
21
-8.82227
0
LINE
8
BLACK
6
CONTINUOUS
10
16.7573
20
-8.82227
11
16.728
21
-8.67505
0
LINE
8
BLACK
6
CONTINUOUS
10
16.728
20
-8.67505
11
16.728
21
-8.52495
0
LINE
8
BLACK
6
CONTINUOUS
10
16.728
20
-8.52495
11
16.7573
21
-8.37773
0
LINE
8
BLACK
6
CONTINUOUS
10
16.7573
20
-8.37773
11
16.8147
21
-8.23906
0
LINE
8
BLACK
6
CONTINUOUS
10
16.8147
20
-8.23906
11
16.8981
21
-8.11425
0
LINE
8
BLACK
6
CONTINUOUS
10
16.8981
20
-8.11425
11
17.0043
21
-8.00812
0
LINE
8
BLACK
6
CONTINUOUS
10
17.0043
20
-8.00812
11
17.1291
21
-7.92472
0
LINE
8
BLACK
6
CONTINUOUS
10
17.1291
20
-7.92472
11
17.2677
21
-7.86728
0
LINE
8
BLACK
6
CONTINUOUS
10
17.2677
20
-7.86728
11
17.4149
21
-7.838
0
LINE
8
BLACK
6
CONTINUOUS
10
17.4149
20
-7.838
11
17.565
21
-7.838
0
LINE
8
BLACK
6
CONTINUOUS
10
17.565
20
-7.838
11
17.7123
21
-7.86728
0
LINE
8
BLACK
6
CONTINUOUS
10
35.4923
20
-7.86728
11
35.6309
21
-7.92472
0
LINE
8
BLACK
6
CONTINUOUS
10
35.6309
20
-7.92472
11
35.7557
21
-8.00812
0
LINE
8
BLACK
6
CONTINUOUS
10
35.7557
20
-8.00812
11
35.8619
21
-8.11425
0
LINE
8
BLACK
6
CONTINUOUS
10
35.8619
20
-8.11425
11
35.9453
21
-8.23906
0
LINE
8
BLACK
6
CONTINUOUS
10
35.9453
20
-8.23906
11
36.0027
21
-8.37773
0
LINE
8
BLACK
6
CONTINUOUS
10
36.0027
20
-8.37773
11
36.032
21
-8.52495
0
LINE
8
BLACK
6
CONTINUOUS
10
36.032
20
-8.52495
11
36.032
21
-8.67505
0
LINE
8
BLACK
6
CONTINUOUS
10
36.032
20
-8.67505
11
36.0027
21
-8.82227
0
LINE
8
BLACK
6
CONTINUOUS
10
36.0027
20
-8.82227
11
35.9453
21
-8.96094
0
LINE
8
BLACK
6
CONTINUOUS
10
35.9453
20
-8.96094
11
35.8619
21
-9.08575
0
LINE
8
BLACK
6
CONTINUOUS
10
35.8619
20
-9.08575
11
35.7557
21
-9.19188
0
LINE
8
BLACK
6
CONTINUOUS
10
35.7557
20
-9.19188
11
35.6309
21
-9.27528
0
LINE
8
BLACK
6
CONTINUOUS
10
35.6309
20
-9.27528
11
35.4923
21
-9.33272
0
LINE
8
BLACK
6
CONTINUOUS
10
35.4923
20
-9.33272
11
35.3451
21
-9.362
0
LINE
8
BLACK
6
CONTINUOUS
10
35.3451
20
-9.362
11
35.1949
21
-9.362
0
LINE
8
BLACK
6
CONTINUOUS
10
35.1949
20
-9.362
11
35.0477
21
-9.33272
0
LINE
8
BLACK
6
CONTINUOUS
10
35.0477
20
-9.33272
11
34.9091
21
-9.27528
0
LINE
8
BLACK
6
CONTINUOUS
10
34.9091
20
-9.27528
11
34.7843
21
-9.19188
0
LINE
8
BLACK
6
CONTINUOUS
10
34.7843
20
-9.19188
11
34.6781
21
-9.08575
0
LINE
8
BLACK
6
CONTINUOUS
10
34.6781
20
-9.08575
11
34.5947
21
-8.96094
0
LINE
8
BLACK
6
CONTINUOUS
10
34.5947
20
-8.96094
11
34.5373
21
-8.82227
0
LINE
8
BLACK
6
CONTINUOUS
10
34.5373
20
-8.82227
11
34.508
21
-8.67505
0
LINE
8
BLACK
6
CONTINUOUS
10
34.508
20
-8.67505
11
34.508
21
-8.52495
0
LINE
8
BLACK
6
CONTINUOUS
10
34.508
20
-8.52495
11
34.5373
21
-8.37773
0
LINE
8
BLACK
6
CONTINUOUS
10
34.5373
20
-8.37773
11
34.5947
21
-8.23906
0
LINE
8
BLACK
6
CONTINUOUS
10
34.5947
20
-8.23906
11
34.6781
21
-8.11425
0
LINE
8
BLACK
6
CONTINUOUS
10
34.6781
20
-8.11425
11
34.7843
21
-8.00812
0
LINE
8
BLACK
6
CONTINUOUS
10
34.7843
20
-8.00812
11
34.9091
21
-7.92472
0
LINE
8
BLACK
6
CONTINUOUS
10
34.9091
20
-7.92472
11
35.0477
21
-7.86728
0
LINE
8
BLACK
6
CONTINUOUS
10
35.0477
20
-7.86728
11
35.1949
21
-7.838
0
LINE
8
BLACK
6
CONTINUOUS
10
35.1949
20
-7.838
11
35.3451
21
-7.838
0
LINE
8
BLACK
6
CONTINUOUS
10
35.3451
20
-7.838
11
35.4923
21
-7.86728
0
LINE
8
BLACK
6
CONTINUOUS
10
30.4123
20
-7.86728
11
30.5509
21
-7.92472
0
LINE
8
BLACK
6
CONTINUOUS
10
30.5509
20
-7.92472
11
30.6757
21
-8.00812
0
LINE
8
BLACK
6
CONTINUOUS
10
30.6757
20
-8.00812
11
30.7819
21
-8.11425
0
LINE
8
BLACK
6
CONTINUOUS
10
30.7819
20
-8.11425
11
30.8653
21
-8.23906
0
LINE
8
BLACK
6
CONTINUOUS
10
30.8653
20
-8.23906
11
30.9227
21
-8.37773
0
LINE
8
BLACK
6
CONTINUOUS
10
30.9227
20
-8.37773
11
30.952
21
-8.52495
0
LINE
8
BLACK
6
CONTINUOUS
10
30.952
20
-8.52495
11
30.952
21
-8.67505
0
LINE
8
BLACK
6
CONTINUOUS
10
30.952
20
-8.67505
11
30.9227
21
-8.82227
0
LINE
8
BLACK
6
CONTINUOUS
10
30.9227
20
-8.82227
11
30.8653
21
-8.96094
0
LINE
8
BLACK
6
CONTINUOUS
10
30.8653
20
-8.96094
11
30.7819
21
-9.08575
0
LINE
8
BLACK
6
CONTINUOUS
10
30.7819
20
-9.08575
11
30.6757
21
-9.19188
0
LINE
8
BLACK
6
CONTINUOUS
10
30.6757
20
-9.19188
11
30.5509
21
-9.27528
0
LINE
8
BLACK
6
CONTINUOUS
10
30.5509
20
-9.27528
11
30.4123
21
-9.33272
0
LINE
8
BLACK
6
CONTINUOUS
10
30.4123
20
-9.33272
11
30.265
21
-9.362
0
LINE
8
BLACK
6
CONTINUOUS
10
30.265
20
-9.362
11
30.115
21
-9.362
0
LINE
8
BLACK
6
CONTINUOUS
10
30.115
20
-9.362
11
29.9677
21
-9.33272
0
LINE
8
BLACK
6
CONTINUOUS
10
29.9677
20
-9.33272
11
29.8291
21
-9.27528
0
LINE
8
BLACK
6
CONTINUOUS
10
29.8291
20
-9.27528
11
29.7043
21
-9.19188
0
LINE
8
BLACK
6
CONTINUOUS
10
29.7043
20
-9.19188
11
29.5981
21
-9.08575
0
LINE
8
BLACK
6
CONTINUOUS
10
29.5981
20
-9.08575
11
29.5147
21
-8.96094
0
LINE
8
BLACK
6
CONTINUOUS
10
29.5147
20
-8.96094
11
29.4573
21
-8.82227
0
LINE
8
BLACK
6
CONTINUOUS
10
29.4573
20
-8.82227
11
29.428
21
-8.67505
0
LINE
8
BLACK
6
CONTINUOUS
10
29.428
20
-8.67505
11
29.428
21
-8.52495
0
LINE
8
BLACK
6
CONTINUOUS
10
29.428
20
-8.52495
11
29.4573
21
-8.37773
0
LINE
8
BLACK
6
CONTINUOUS
10
29.4573
20
-8.37773
11
29.5147
21
-8.23906
0
LINE
8
BLACK
6
CONTINUOUS
10
29.5147
20
-8.23906
11
29.5981
21
-8.11425
0
LINE
8
BLACK
6
CONTINUOUS
10
29.5981
20
-8.11425
11
29.7043
21
-8.00812
0
LINE
8
BLACK
6
CONTINUOUS
10
29.7043
20
-8.00812
11
29.8291
21
-7.92472
0
LINE
8
BLACK
6
CONTINUOUS
10
29.8291
20
-7.92472
11
29.9677
21
-7.86728
0
LINE
8
BLACK
6
CONTINUOUS
10
29.9677
20
-7.86728
11
30.115
21
-7.838
0
LINE
8
BLACK
6
CONTINUOUS
10
30.115
20
-7.838
11
30.265
21
-7.838
0
LINE
8
BLACK
6
CONTINUOUS
10
30.265
20
-7.838
11
30.4123
21
-7.86728
0
LINE
8
BLACK
6
CONTINUOUS
10
23.332
20
-9.362
11
21.808
21
-9.362
0
LINE
8
BLACK
6
CONTINUOUS
10
21.808
20
-9.362
11
21.808
21
-7.838
0
LINE
8
BLACK
6
CONTINUOUS
10
21.808
20
-7.838
11
23.332
21
-7.838
0
LINE
8
BLACK
6
CONTINUOUS
10
23.332
20
-7.838
11
23.332
21
-9.362
0
LINE
8
BLACK
6
CONTINUOUS
10
27.8723
20
-7.86728
11
28.0109
21
-7.92472
0
LINE
8
BLACK
6
CONTINUOUS
10
28.0109
20
-7.92472
11
28.1357
21
-8.00812
0
LINE
8
BLACK
6
CONTINUOUS
10
28.1357
20
-8.00812
11
28.2419
21
-8.11425
0
LINE
8
BLACK
6
CONTINUOUS
10
28.2419
20
-8.11425
11
28.3253
21
-8.23906
0
LINE
8
BLACK
6
CONTINUOUS
10
28.3253
20
-8.23906
11
28.3827
21
-8.37773
0
LINE
8
BLACK
6
CONTINUOUS
10
28.3827
20
-8.37773
11
28.412
21
-8.52495
0
LINE
8
BLACK
6
CONTINUOUS
10
28.412
20
-8.52495
11
28.412
21
-8.67505
0
LINE
8
BLACK
6
CONTINUOUS
10
28.412
20
-8.67505
11
28.3827
21
-8.82227
0
LINE
8
BLACK
6
CONTINUOUS
10
28.3827
20
-8.82227
11
28.3253
21
-8.96094
0
LINE
8
BLACK
6
CONTINUOUS
10
28.3253
20
-8.96094
11
28.2419
21
-9.08575
0
LINE
8
BLACK
6
CONTINUOUS
10
28.2419
20
-9.08575
11
28.1357
21
-9.19188
0
LINE
8
BLACK
6
CONTINUOUS
10
28.1357
20
-9.19188
11
28.0109
21
-9.27528
0
LINE
8
BLACK
6
CONTINUOUS
10
28.0109
20
-9.27528
11
27.8723
21
-9.33272
0
LINE
8
BLACK
6
CONTINUOUS
10
27.8723
20
-9.33272
11
27.725
21
-9.362
0
LINE
8
BLACK
6
CONTINUOUS
10
27.725
20
-9.362
11
27.5749
21
-9.362
0
LINE
8
BLACK
6
CONTINUOUS
10
27.5749
20
-9.362
11
27.4277
21
-9.33272
0
LINE
8
BLACK
6
CONTINUOUS
10
27.4277
20
-9.33272
11
27.2891
21
-9.27528
0
LINE
8
BLACK
6
CONTINUOUS
10
27.2891
20
-9.27528
11
27.1643
21
-9.19188
0
LINE
8
BLACK
6
CONTINUOUS
10
27.1643
20
-9.19188
11
27.0581
21
-9.08575
0
LINE
8
BLACK
6
CONTINUOUS
10
27.0581
20
-9.08575
11
26.9747
21
-8.96094
0
LINE
8
BLACK
6
CONTINUOUS
10
26.9747
20
-8.96094
11
26.9173
21
-8.82227
0
LINE
8
BLACK
6
CONTINUOUS
10
26.9173
20
-8.82227
11
26.888
21
-8.67505
0
LINE
8
BLACK
6
CONTINUOUS
10
26.888
20
-8.67505
11
26.888
21
-8.52495
0
LINE
8
BLACK
6
CONTINUOUS
10
26.888
20
-8.52495
11
26.9173
21
-8.37773
0
LINE
8
BLACK
6
CONTINUOUS
10
26.9173
20
-8.37773
11
26.9747
21
-8.23906
0
LINE
8
BLACK
6
CONTINUOUS
10
26.9747
20
-8.23906
11
27.0581
21
-8.11425
0
LINE
8
BLACK
6
CONTINUOUS
10
27.0581
20
-8.11425
11
27.1643
21
-8.00812
0
LINE
8
BLACK
6
CONTINUOUS
10
27.1643
20
-8.00812
11
27.2891
21
-7.92472
0
LINE
8
BLACK
6
CONTINUOUS
10
27.2891
20
-7.92472
11
27.4277
21
-7.86728
0
LINE
8
BLACK
6
CONTINUOUS
10
27.4277
20
-7.86728
11
27.5749
21
-7.838
0
LINE
8
BLACK
6
CONTINUOUS
10
27.5749
20
-7.838
11
27.725
21
-7.838
0
LINE
8
BLACK
6
CONTINUOUS
10
27.725
20
-7.838
11
27.8723
21
-7.86728
0
LINE
8
BLACK
6
CONTINUOUS
10
25.3323
20
-7.86728
11
25.4709
21
-7.92472
0
LINE
8
BLACK
6
CONTINUOUS
10
25.4709
20
-7.92472
11
25.5957
21
-8.00812
0
LINE
8
BLACK
6
CONTINUOUS
10
25.5957
20
-8.00812
11
25.7019
21
-8.11425
0
LINE
8
BLACK
6
CONTINUOUS
10
25.7019
20
-8.11425
11
25.7853
21
-8.23906
0
LINE
8
BLACK
6
CONTINUOUS
10
25.7853
20
-8.23906
11
25.8427
21
-8.37773
0
LINE
8
BLACK
6
CONTINUOUS
10
25.8427
20
-8.37773
11
25.872
21
-8.52495
0
LINE
8
BLACK
6
CONTINUOUS
10
25.872
20
-8.52495
11
25.872
21
-8.67505
0
LINE
8
BLACK
6
CONTINUOUS
10
25.872
20
-8.67505
11
25.8427
21
-8.82227
0
LINE
8
BLACK
6
CONTINUOUS
10
25.8427
20
-8.82227
11
25.7853
21
-8.96094
0
LINE
8
BLACK
6
CONTINUOUS
10
25.7853
20
-8.96094
11
25.7019
21
-9.08575
0
LINE
8
BLACK
6
CONTINUOUS
10
25.7019
20
-9.08575
11
25.5957
21
-9.19188
0
LINE
8
BLACK
6
CONTINUOUS
10
25.5957
20
-9.19188
11
25.4709
21
-9.27528
0
LINE
8
BLACK
6
CONTINUOUS
10
25.4709
20
-9.27528
11
25.3323
21
-9.33272
0
LINE
8
BLACK
6
CONTINUOUS
10
25.3323
20
-9.33272
11
25.1851
21
-9.362
0
LINE
8
BLACK
6
CONTINUOUS
10
25.1851
20
-9.362
11
25.0349
21
-9.362
0
LINE
8
BLACK
6
CONTINUOUS
10
25.0349
20
-9.362
11
24.8877
21
-9.33272
0
LINE
8
BLACK
6
CONTINUOUS
10
24.8877
20
-9.33272
11
24.7491
21
-9.27528
0
LINE
8
BLACK
6
CONTINUOUS
10
24.7491
20
-9.27528
11
24.6243
21
-9.19188
0
LINE
8
BLACK
6
CONTINUOUS
10
24.6243
20
-9.19188
11
24.5181
21
-9.08575
0
LINE
8
BLACK
6
CONTINUOUS
10
24.5181
20
-9.08575
11
24.4347
21
-8.96094
0
LINE
8
BLACK
6
CONTINUOUS
10
24.4347
20
-8.96094
11
24.3773
21
-8.82227
0
LINE
8
BLACK
6
CONTINUOUS
10
24.3773
20
-8.82227
11
24.348
21
-8.67505
0
LINE
8
BLACK
6
CONTINUOUS
10
24.348
20
-8.67505
11
24.348
21
-8.52495
0
LINE
8
BLACK
6
CONTINUOUS
10
24.348
20
-8.52495
11
24.3773
21
-8.37773
0
LINE
8
BLACK
6
CONTINUOUS
10
24.3773
20
-8.37773
11
24.4347
21
-8.23906
0
LINE
8
BLACK
6
CONTINUOUS
10
24.4347
20
-8.23906
11
24.5181
21
-8.11425
0
LINE
8
BLACK
6
CONTINUOUS
10
24.5181
20
-8.11425
11
24.6243
21
-8.00812
0
LINE
8
BLACK
6
CONTINUOUS
10
24.6243
20
-8.00812
11
24.7491
21
-7.92472
0
LINE
8
BLACK
6
CONTINUOUS
10
24.7491
20
-7.92472
11
24.8877
21
-7.86728
0
LINE
8
BLACK
6
CONTINUOUS
10
24.8877
20
-7.86728
11
25.0349
21
-7.838
0
LINE
8
BLACK
6
CONTINUOUS
10
25.0349
20
-7.838
11
25.1851
21
-7.838
0
LINE
8
BLACK
6
CONTINUOUS
10
25.1851
20
-7.838
11
25.3323
21
-7.86728
0
LINE
8
BLACK
6
CONTINUOUS
10
25.3123
20
-5.46728
11
25.4509
21
-5.52472
0
LINE
8
BLACK
6
CONTINUOUS
10
25.4509
20
-5.52472
11
25.5757
21
-5.60812
0
LINE
8
BLACK
6
CONTINUOUS
10
25.5757
20
-5.60812
11
25.6819
21
-5.71425
0
LINE
8
BLACK
6
CONTINUOUS
10
25.6819
20
-5.71425
11
25.7653
21
-5.83906
0
LINE
8
BLACK
6
CONTINUOUS
10
25.7653
20
-5.83906
11
25.8227
21
-5.97773
0
LINE
8
BLACK
6
CONTINUOUS
10
25.8227
20
-5.97773
11
25.852
21
-6.12495
0
LINE
8
BLACK
6
CONTINUOUS
10
25.852
20
-6.12495
11
25.852
21
-6.27505
0
LINE
8
BLACK
6
CONTINUOUS
10
25.852
20
-6.27505
11
25.8227
21
-6.42227
0
LINE
8
BLACK
6
CONTINUOUS
10
25.8227
20
-6.42227
11
25.7653
21
-6.56094
0
LINE
8
BLACK
6
CONTINUOUS
10
25.7653
20
-6.56094
11
25.6819
21
-6.68575
0
LINE
8
BLACK
6
CONTINUOUS
10
25.6819
20
-6.68575
11
25.5757
21
-6.79188
0
LINE
8
BLACK
6
CONTINUOUS
10
25.5757
20
-6.79188
11
25.4509
21
-6.87528
0
LINE
8
BLACK
6
CONTINUOUS
10
25.4509
20
-6.87528
11
25.3123
21
-6.93272
0
LINE
8
BLACK
6
CONTINUOUS
10
25.3123
20
-6.93272
11
25.165
21
-6.962
0
LINE
8
BLACK
6
CONTINUOUS
10
25.165
20
-6.962
11
25.0149
21
-6.962
0
LINE
8
BLACK
6
CONTINUOUS
10
25.0149
20
-6.962
11
24.8677
21
-6.93272
0
LINE
8
BLACK
6
CONTINUOUS
10
24.8677
20
-6.93272
11
24.7291
21
-6.87528
0
LINE
8
BLACK
6
CONTINUOUS
10
24.7291
20
-6.87528
11
24.6043
21
-6.79188
0
LINE
8
BLACK
6
CONTINUOUS
10
24.6043
20
-6.79188
11
24.4981
21
-6.68575
0
LINE
8
BLACK
6
CONTINUOUS
10
24.4981
20
-6.68575
11
24.4147
21
-6.56094
0
LINE
8
BLACK
6
CONTINUOUS
10
24.4147
20
-6.56094
11
24.3573
21
-6.42227
0
LINE
8
BLACK
6
CONTINUOUS
10
24.3573
20
-6.42227
11
24.328
21
-6.27505
0
LINE
8
BLACK
6
CONTINUOUS
10
24.328
20
-6.27505
11
24.328
21
-6.12495
0
LINE
8
BLACK
6
CONTINUOUS
10
24.328
20
-6.12495
11
24.3573
21
-5.97773
0
LINE
8
BLACK
6
CONTINUOUS
10
24.3573
20
-5.97773
11
24.4147
21
-5.83906
0
LINE
8
BLACK
6
CONTINUOUS
10
24.4147
20
-5.83906
11
24.4981
21
-5.71425
0
LINE
8
BLACK
6
CONTINUOUS
10
24.4981
20
-5.71425
11
24.6043
21
-5.60812
0
LINE
8
BLACK
6
CONTINUOUS
10
24.6043
20
-5.60812
11
24.7291
21
-5.52472
0
LINE
8
BLACK
6
CONTINUOUS
10
24.7291
20
-5.52472
11
24.8677
21
-5.46728
0
LINE
8
BLACK
6
CONTINUOUS
10
24.8677
20
-5.46728
11
25.0149
21
-5.438
0
LINE
8
BLACK
6
CONTINUOUS
10
25.0149
20
-5.438
11
25.165
21
-5.438
0
LINE
8
BLACK
6
CONTINUOUS
10
25.165
20
-5.438
11
25.3123
21
-5.46728
0
LINE
8
BLACK
6
CONTINUOUS
10
22.7723
20
-5.46728
11
22.9109
21
-5.52472
0
LINE
8
BLACK
6
CONTINUOUS
10
22.9109
20
-5.52472
11
23.0357
21
-5.60812
0
LINE
8
BLACK
6
CONTINUOUS
10
23.0357
20
-5.60812
11
23.1419
21
-5.71425
0
LINE
8
BLACK
6
CONTINUOUS
10
23.1419
20
-5.71425
11
23.2253
21
-5.83906
0
LINE
8
BLACK
6
CONTINUOUS
10
23.2253
20
-5.83906
11
23.2827
21
-5.97773
0
LINE
8
BLACK
6
CONTINUOUS
10
23.2827
20
-5.97773
11
23.312
21
-6.12495
0
LINE
8
BLACK
6
CONTINUOUS
10
23.312
20
-6.12495
11
23.312
21
-6.27505
0
LINE
8
BLACK
6
CONTINUOUS
10
23.312
20
-6.27505
11
23.2827
21
-6.42227
0
LINE
8
BLACK
6
CONTINUOUS
10
23.2827
20
-6.42227
11
23.2253
21
-6.56094
0
LINE
8
BLACK
6
CONTINUOUS
10
23.2253
20
-6.56094
11
23.1419
21
-6.68575
0
LINE
8
BLACK
6
CONTINUOUS
10
23.1419
20
-6.68575
11
23.0357
21
-6.79188
0
LINE
8
BLACK
6
CONTINUOUS
10
23.0357
20
-6.79188
11
22.9109
21
-6.87528
0
LINE
8
BLACK
6
CONTINUOUS
10
22.9109
20
-6.87528
11
22.7723
21
-6.93272
0
LINE
8
BLACK
6
CONTINUOUS
10
22.7723
20
-6.93272
11
22.625
21
-6.962
0
LINE
8
BLACK
6
CONTINUOUS
10
22.625
20
-6.962
11
22.4749
21
-6.962
0
LINE
8
BLACK
6
CONTINUOUS
10
22.4749
20
-6.962
11
22.3277
21
-6.93272
0
LINE
8
BLACK
6
CONTINUOUS
10
22.3277
20
-6.93272
11
22.1891
21
-6.87528
0
LINE
8
BLACK
6
CONTINUOUS
10
22.1891
20
-6.87528
11
22.0643
21
-6.79188
0
LINE
8
BLACK
6
CONTINUOUS
10
22.0643
20
-6.79188
11
21.9581
21
-6.68575
0
LINE
8
BLACK
6
CONTINUOUS
10
21.9581
20
-6.68575
11
21.8747
21
-6.56094
0
LINE
8
BLACK
6
CONTINUOUS
10
21.8747
20
-6.56094
11
21.8173
21
-6.42227
0
LINE
8
BLACK
6
CONTINUOUS
10
21.8173
20
-6.42227
11
21.788
21
-6.27505
0
LINE
8
BLACK
6
CONTINUOUS
10
21.788
20
-6.27505
11
21.788
21
-6.12495
0
LINE
8
BLACK
6
CONTINUOUS
10
21.788
20
-6.12495
11
21.8173
21
-5.97773
0
LINE
8
BLACK
6
CONTINUOUS
10
21.8173
20
-5.97773
11
21.8747
21
-5.83906
0
LINE
8
BLACK
6
CONTINUOUS
10
21.8747
20
-5.83906
11
21.9581
21
-5.71425
0
LINE
8
BLACK
6
CONTINUOUS
10
21.9581
20
-5.71425
11
22.0643
21
-5.60812
0
LINE
8
BLACK
6
CONTINUOUS
10
22.0643
20
-5.60812
11
22.1891
21
-5.52472
0
LINE
8
BLACK
6
CONTINUOUS
10
22.1891
20
-5.52472
11
22.3277
21
-5.46728
0
LINE
8
BLACK
6
CONTINUOUS
10
22.3277
20
-5.46728
11
22.4749
21
-5.438
0
LINE
8
BLACK
6
CONTINUOUS
10
22.4749
20
-5.438
11
22.625
21
-5.438
0
LINE
8
BLACK
6
CONTINUOUS
10
22.625
20
-5.438
11
22.7723
21
-5.46728
0
LINE
8
BLACK
6
CONTINUOUS
10
20.2323
20
-5.46728
11
20.3709
21
-5.52472
0
LINE
8
BLACK
6
CONTINUOUS
10
20.3709
20
-5.52472
11
20.4957
21
-5.60812
0
LINE
8
BLACK
6
CONTINUOUS
10
20.4957
20
-5.60812
11
20.6019
21
-5.71425
0
LINE
8
BLACK
6
CONTINUOUS
10
20.6019
20
-5.71425
11
20.6853
21
-5.83906
0
LINE
8
BLACK
6
CONTINUOUS
10
20.6853
20
-5.83906
11
20.7427
21
-5.97773
0
LINE
8
BLACK
6
CONTINUOUS
10
20.7427
20
-5.97773
11
20.772
21
-6.12495
0
LINE
8
BLACK
6
CONTINUOUS
10
20.772
20
-6.12495
11
20.772
21
-6.27505
0
LINE
8
BLACK
6
CONTINUOUS
10
20.772
20
-6.27505
11
20.7427
21
-6.42227
0
LINE
8
BLACK
6
CONTINUOUS
10
20.7427
20
-6.42227
11
20.6853
21
-6.56094
0
LINE
8
BLACK
6
CONTINUOUS
10
20.6853
20
-6.56094
11
20.6019
21
-6.68575
0
LINE
8
BLACK
6
CONTINUOUS
10
20.6019
20
-6.68575
11
20.4957
21
-6.79188
0
LINE
8
BLACK
6
CONTINUOUS
10
20.4957
20
-6.79188
11
20.3709
21
-6.87528
0
LINE
8
BLACK
6
CONTINUOUS
10
20.3709
20
-6.87528
11
20.2323
21
-6.93272
0
LINE
8
BLACK
6
CONTINUOUS
10
20.2323
20
-6.93272
11
20.085
21
-6.962
0
LINE
8
BLACK
6
CONTINUOUS
10
20.085
20
-6.962
11
19.935
21
-6.962
0
LINE
8
BLACK
6
CONTINUOUS
10
19.935
20
-6.962
11
19.7877
21
-6.93272
0
LINE
8
BLACK
6
CONTINUOUS
10
19.7877
20
-6.93272
11
19.6491
21
-6.87528
0
LINE
8
BLACK
6
CONTINUOUS
10
19.6491
20
-6.87528
11
19.5243
21
-6.79188
0
LINE
8
BLACK
6
CONTINUOUS
10
19.5243
20
-6.79188
11
19.4181
21
-6.68575
0
LINE
8
BLACK
6
CONTINUOUS
10
19.4181
20
-6.68575
11
19.3347
21
-6.56094
0
LINE
8
BLACK
6
CONTINUOUS
10
19.3347
20
-6.56094
11
19.2773
21
-6.42227
0
LINE
8
BLACK
6
CONTINUOUS
10
19.2773
20
-6.42227
11
19.248
21
-6.27505
0
LINE
8
BLACK
6
CONTINUOUS
10
19.248
20
-6.27505
11
19.248
21
-6.12495
0
LINE
8
BLACK
6
CONTINUOUS
10
19.248
20
-6.12495
11
19.2773
21
-5.97773
0
LINE
8
BLACK
6
CONTINUOUS
10
19.2773
20
-5.97773
11
19.3347
21
-5.83906
0
LINE
8
BLACK
6
CONTINUOUS
10
19.3347
20
-5.83906
11
19.4181
21
-5.71425
0
LINE
8
BLACK
6
CONTINUOUS
10
19.4181
20
-5.71425
11
19.5243
21
-5.60812
0
LINE
8
BLACK
6
CONTINUOUS
10
19.5243
20
-5.60812
11
19.6491
21
-5.52472
0
LINE
8
BLACK
6
CONTINUOUS
10
19.6491
20
-5.52472
11
19.7877
21
-5.46728
0
LINE
8
BLACK
6
CONTINUOUS
10
19.7877
20
-5.46728
11
19.935
21
-5.438
0
LINE
8
BLACK
6
CONTINUOUS
10
19.935
20
-5.438
11
20.085
21
-5.438
0
LINE
8
BLACK
6
CONTINUOUS
10
20.085
20
-5.438
11
20.2323
21
-5.46728
0
LINE
8
BLACK
6
CONTINUOUS
10
18.232
20
-6.962
11
16.708
21
-6.962
0
LINE
8
BLACK
6
CONTINUOUS
10
16.708
20
-6.962
11
16.708
21
-5.438
0
LINE
8
BLACK
6
CONTINUOUS
10
16.708
20
-5.438
11
18.232
21
-5.438
0
LINE
8
BLACK
6
CONTINUOUS
10
18.232
20
-5.438
11
18.232
21
-6.962
0
LINE
8
BLACK
6
CONTINUOUS
10
32.9323
20
-5.46728
11
33.0709
21
-5.52472
0
LINE
8
BLACK
6
CONTINUOUS
10
33.0709
20
-5.52472
11
33.1957
21
-5.60812
0
LINE
8
BLACK
6
CONTINUOUS
10
33.1957
20
-5.60812
11
33.3019
21
-5.71425
0
LINE
8
BLACK
6
CONTINUOUS
10
33.3019
20
-5.71425
11
33.3853
21
-5.83906
0
LINE
8
BLACK
6
CONTINUOUS
10
33.3853
20
-5.83906
11
33.4427
21
-5.97773
0
LINE
8
BLACK
6
CONTINUOUS
10
33.4427
20
-5.97773
11
33.472
21
-6.12495
0
LINE
8
BLACK
6
CONTINUOUS
10
33.472
20
-6.12495
11
33.472
21
-6.27505
0
LINE
8
BLACK
6
CONTINUOUS
10
33.472
20
-6.27505
11
33.4427
21
-6.42227
0
LINE
8
BLACK
6
CONTINUOUS
10
33.4427
20
-6.42227
11
33.3853
21
-6.56094
0
LINE
8
BLACK
6
CONTINUOUS
10
33.3853
20
-6.56094
11
33.3019
21
-6.68575
0
LINE
8
BLACK
6
CONTINUOUS
10
33.3019
20
-6.68575
11
33.1957
21
-6.79188
0
LINE
8
BLACK
6
CONTINUOUS
10
33.1957
20
-6.79188
11
33.0709
21
-6.87528
0
LINE
8
BLACK
6
CONTINUOUS
10
33.0709
20
-6.87528
11
32.9323
21
-6.93272
0
LINE
8
BLACK
6
CONTINUOUS
10
32.9323
20
-6.93272
11
32.785
21
-6.962
0
LINE
8
BLACK
6
CONTINUOUS
10
32.785
20
-6.962
11
32.6349
21
-6.962
0
LINE
8
BLACK
6
CONTINUOUS
10
32.6349
20
-6.962
11
32.4877
21
-6.93272
0
LINE
8
BLACK
6
CONTINUOUS
10
32.4877
20
-6.93272
11
32.3491
21
-6.87528
0
LINE
8
BLACK
6
CONTINUOUS
10
32.3491
20
-6.87528
11
32.2243
21
-6.79188
0
LINE
8
BLACK
6
CONTINUOUS
10
32.2243
20
-6.79188
11
32.1181
21
-6.68575
0
LINE
8
BLACK
6
CONTINUOUS
10
32.1181
20
-6.68575
11
32.0347
21
-6.56094
0
LINE
8
BLACK
6
CONTINUOUS
10
32.0347
20
-6.56094
11
31.9773
21
-6.42227
0
LINE
8
BLACK
6
CONTINUOUS
10
31.9773
20
-6.42227
11
31.948
21
-6.27505
0
LINE
8
BLACK
6
CONTINUOUS
10
31.948
20
-6.27505
11
31.948
21
-6.12495
0
LINE
8
BLACK
6
CONTINUOUS
10
31.948
20
-6.12495
11
31.9773
21
-5.97773
0
LINE
8
BLACK
6
CONTINUOUS
10
31.9773
20
-5.97773
11
32.0347
21
-5.83906
0
LINE
8
BLACK
6
CONTINUOUS
10
32.0347
20
-5.83906
11
32.1181
21
-5.71425
0
LINE
8
BLACK
6
CONTINUOUS
10
32.1181
20
-5.71425
11
32.2243
21
-5.60812
0
LINE
8
BLACK
6
CONTINUOUS
10
32.2243
20
-5.60812
11
32.3491
21
-5.52472
0
LINE
8
BLACK
6
CONTINUOUS
10
32.3491
20
-5.52472
11
32.4877
21
-5.46728
0
LINE
8
BLACK
6
CONTINUOUS
10
32.4877
20
-5.46728
11
32.6349
21
-5.438
0
LINE
8
BLACK
6
CONTINUOUS
10
32.6349
20
-5.438
11
32.785
21
-5.438
0
LINE
8
BLACK
6
CONTINUOUS
10
32.785
20
-5.438
11
32.9323
21
-5.46728
0
LINE
8
BLACK
6
CONTINUOUS
10
35.4723
20
-5.46728
11
35.6109
21
-5.52472
0
LINE
8
BLACK
6
CONTINUOUS
10
35.6109
20
-5.52472
11
35.7357
21
-5.60812
0
LINE
8
BLACK
6
CONTINUOUS
10
35.7357
20
-5.60812
11
35.8419
21
-5.71425
0
LINE
8
BLACK
6
CONTINUOUS
10
35.8419
20
-5.71425
11
35.9253
21
-5.83906
0
LINE
8
BLACK
6
CONTINUOUS
10
35.9253
20
-5.83906
11
35.9827
21
-5.97773
0
LINE
8
BLACK
6
CONTINUOUS
10
35.9827
20
-5.97773
11
36.012
21
-6.12495
0
LINE
8
BLACK
6
CONTINUOUS
10
36.012
20
-6.12495
11
36.012
21
-6.27505
0
LINE
8
BLACK
6
CONTINUOUS
10
36.012
20
-6.27505
11
35.9827
21
-6.42227
0
LINE
8
BLACK
6
CONTINUOUS
10
35.9827
20
-6.42227
11
35.9253
21
-6.56094
0
LINE
8
BLACK
6
CONTINUOUS
10
35.9253
20
-6.56094
11
35.8419
21
-6.68575
0
LINE
8
BLACK
6
CONTINUOUS
10
35.8419
20
-6.68575
11
35.7357
21
-6.79188
0
LINE
8
BLACK
6
CONTINUOUS
10
35.7357
20
-6.79188
11
35.6109
21
-6.87528
0
LINE
8
BLACK
6
CONTINUOUS
10
35.6109
20
-6.87528
11
35.4723
21
-6.93272
0
LINE
8
BLACK
6
CONTINUOUS
10
35.4723
20
-6.93272
11
35.325
21
-6.962
0
LINE
8
BLACK
6
CONTINUOUS
10
35.325
20
-6.962
11
35.1749
21
-6.962
0
LINE
8
BLACK
6
CONTINUOUS
10
35.1749
20
-6.962
11
35.0277
21
-6.93272
0
LINE
8
BLACK
6
CONTINUOUS
10
35.0277
20
-6.93272
11
34.8891
21
-6.87528
0
LINE
8
BLACK
6
CONTINUOUS
10
34.8891
20
-6.87528
11
34.7643
21
-6.79188
0
LINE
8
BLACK
6
CONTINUOUS
10
34.7643
20
-6.79188
11
34.6581
21
-6.68575
0
LINE
8
BLACK
6
CONTINUOUS
10
34.6581
20
-6.68575
11
34.5747
21
-6.56094
0
LINE
8
BLACK
6
CONTINUOUS
10
34.5747
20
-6.56094
11
34.5173
21
-6.42227
0
LINE
8
BLACK
6
CONTINUOUS
10
34.5173
20
-6.42227
11
34.488
21
-6.27505
0
LINE
8
BLACK
6
CONTINUOUS
10
34.488
20
-6.27505
11
34.488
21
-6.12495
0
LINE
8
BLACK
6
CONTINUOUS
10
34.488
20
-6.12495
11
34.5173
21
-5.97773
0
LINE
8
BLACK
6
CONTINUOUS
10
34.5173
20
-5.97773
11
34.5747
21
-5.83906
0
LINE
8
BLACK
6
CONTINUOUS
10
34.5747
20
-5.83906
11
34.6581
21
-5.71425
0
LINE
8
BLACK
6
CONTINUOUS
10
34.6581
20
-5.71425
11
34.7643
21
-5.60812
0
LINE
8
BLACK
6
CONTINUOUS
10
34.7643
20
-5.60812
11
34.8891
21
-5.52472
0
LINE
8
BLACK
6
CONTINUOUS
10
34.8891
20
-5.52472
11
35.0277
21
-5.46728
0
LINE
8
BLACK
6
CONTINUOUS
10
35.0277
20
-5.46728
11
35.1749
21
-5.438
0
LINE
8
BLACK
6
CONTINUOUS
10
35.1749
20
-5.438
11
35.325
21
-5.438
0
LINE
8
BLACK
6
CONTINUOUS
10
35.325
20
-5.438
11
35.4723
21
-5.46728
0
LINE
8
BLACK
6
CONTINUOUS
10
27.8523
20
-5.46728
11
27.9909
21
-5.52472
0
LINE
8
BLACK
6
CONTINUOUS
10
27.9909
20
-5.52472
11
28.1157
21
-5.60812
0
LINE
8
BLACK
6
CONTINUOUS
10
28.1157
20
-5.60812
11
28.2219
21
-5.71425
0
LINE
8
BLACK
6
CONTINUOUS
10
28.2219
20
-5.71425
11
28.3053
21
-5.83906
0
LINE
8
BLACK
6
CONTINUOUS
10
28.3053
20
-5.83906
11
28.3627
21
-5.97773
0
LINE
8
BLACK
6
CONTINUOUS
10
28.3627
20
-5.97773
11
28.392
21
-6.12495
0
LINE
8
BLACK
6
CONTINUOUS
10
28.392
20
-6.12495
11
28.392
21
-6.27505
0
LINE
8
BLACK
6
CONTINUOUS
10
28.392
20
-6.27505
11
28.3627
21
-6.42227
0
LINE
8
BLACK
6
CONTINUOUS
10
28.3627
20
-6.42227
11
28.3053
21
-6.56094
0
LINE
8
BLACK
6
CONTINUOUS
10
28.3053
20
-6.56094
11
28.2219
21
-6.68575
0
LINE
8
BLACK
6
CONTINUOUS
10
28.2219
20
-6.68575
11
28.1157
21
-6.79188
0
LINE
8
BLACK
6
CONTINUOUS
10
28.1157
20
-6.79188
11
27.9909
21
-6.87528
0
LINE
8
BLACK
6
CONTINUOUS
10
27.9909
20
-6.87528
11
27.8523
21
-6.93272
0
LINE
8
BLACK
6
CONTINUOUS
10
27.8523
20
-6.93272
11
27.705
21
-6.962
0
LINE
8
BLACK
6
CONTINUOUS
10
27.705
20
-6.962
11
27.5549
21
-6.962
0
LINE
8
BLACK
6
CONTINUOUS
10
27.5549
20
-6.962
11
27.4077
21
-6.93272
0
LINE
8
BLACK
6
CONTINUOUS
10
27.4077
20
-6.93272
11
27.2691
21
-6.87528
0
LINE
8
BLACK
6
CONTINUOUS
10
27.2691
20
-6.87528
11
27.1443
21
-6.79188
0
LINE
8
BLACK
6
CONTINUOUS
10
27.1443
20
-6.79188
11
27.0381
21
-6.68575
0
LINE
8
BLACK
6
CONTINUOUS
10
27.0381
20
-6.68575
11
26.9547
21
-6.56094
0
LINE
8
BLACK
6
CONTINUOUS
10
26.9547
20
-6.56094
11
26.8973
21
-6.42227
0
LINE
8
BLACK
6
CONTINUOUS
10
26.8973
20
-6.42227
11
26.868
21
-6.27505
0
LINE
8
BLACK
6
CONTINUOUS
10
26.868
20
-6.27505
11
26.868
21
-6.12495
0
LINE
8
BLACK
6
CONTINUOUS
10
26.868
20
-6.12495
11
26.8973
21
-5.97773
0
LINE
8
BLACK
6
CONTINUOUS
10
26.8973
20
-5.97773
11
26.9547
21
-5.83906
0
LINE
8
BLACK
6
CONTINUOUS
10
26.9547
20
-5.83906
11
27.0381
21
-5.71425
0
LINE
8
BLACK
6
CONTINUOUS
10
27.0381
20
-5.71425
11
27.1443
21
-5.60812
0
LINE
8
BLACK
6
CONTINUOUS
10
27.1443
20
-5.60812
11
27.2691
21
-5.52472
0
LINE
8
BLACK
6
CONTINUOUS
10
27.2691
20
-5.52472
11
27.4077
21
-5.46728
0
LINE
8
BLACK
6
CONTINUOUS
10
27.4077
20
-5.46728
11
27.5549
21
-5.438
0
LINE
8
BLACK
6
CONTINUOUS
10
27.5549
20
-5.438
11
27.705
21
-5.438
0
LINE
8
BLACK
6
CONTINUOUS
10
27.705
20
-5.438
11
27.8523
21
-5.46728
0
LINE
8
BLACK
6
CONTINUOUS
10
30.3923
20
-5.46728
11
30.5309
21
-5.52472
0
LINE
8
BLACK
6
CONTINUOUS
10
30.5309
20
-5.52472
11
30.6557
21
-5.60812
0
LINE
8
BLACK
6
CONTINUOUS
10
30.6557
20
-5.60812
11
30.7619
21
-5.71425
0
LINE
8
BLACK
6
CONTINUOUS
10
30.7619
20
-5.71425
11
30.8453
21
-5.83906
0
LINE
8
BLACK
6
CONTINUOUS
10
30.8453
20
-5.83906
11
30.9027
21
-5.97773
0
LINE
8
BLACK
6
CONTINUOUS
10
30.9027
20
-5.97773
11
30.932
21
-6.12495
0
LINE
8
BLACK
6
CONTINUOUS
10
30.932
20
-6.12495
11
30.932
21
-6.27505
0
LINE
8
BLACK
6
CONTINUOUS
10
30.932
20
-6.27505
11
30.9027
21
-6.42227
0
LINE
8
BLACK
6
CONTINUOUS
10
30.9027
20
-6.42227
11
30.8453
21
-6.56094
0
LINE
8
BLACK
6
CONTINUOUS
10
30.8453
20
-6.56094
11
30.7619
21
-6.68575
0
LINE
8
BLACK
6
CONTINUOUS
10
30.7619
20
-6.68575
11
30.6557
21
-6.79188
0
LINE
8
BLACK
6
CONTINUOUS
10
30.6557
20
-6.79188
11
30.5309
21
-6.87528
0
LINE
8
BLACK
6
CONTINUOUS
10
30.5309
20
-6.87528
11
30.3923
21
-6.93272
0
LINE
8
BLACK
6
CONTINUOUS
10
30.3923
20
-6.93272
11
30.245
21
-6.962
0
LINE
8
BLACK
6
CONTINUOUS
10
30.245
20
-6.962
11
30.0949
21
-6.962
0
LINE
8
BLACK
6
CONTINUOUS
10
30.0949
20
-6.962
11
29.9477
21
-6.93272
0
LINE
8
BLACK
6
CONTINUOUS
10
29.9477
20
-6.93272
11
29.8091
21
-6.87528
0
LINE
8
BLACK
6
CONTINUOUS
10
29.8091
20
-6.87528
11
29.6843
21
-6.79188
0
LINE
8
BLACK
6
CONTINUOUS
10
29.6843
20
-6.79188
11
29.5781
21
-6.68575
0
LINE
8
BLACK
6
CONTINUOUS
10
29.5781
20
-6.68575
11
29.4947
21
-6.56094
0
LINE
8
BLACK
6
CONTINUOUS
10
29.4947
20
-6.56094
11
29.4373
21
-6.42227
0
LINE
8
BLACK
6
CONTINUOUS
10
29.4373
20
-6.42227
11
29.408
21
-6.27505
0
LINE
8
BLACK
6
CONTINUOUS
10
29.408
20
-6.27505
11
29.408
21
-6.12495
0
LINE
8
BLACK
6
CONTINUOUS
10
29.408
20
-6.12495
11
29.4373
21
-5.97773
0
LINE
8
BLACK
6
CONTINUOUS
10
29.4373
20
-5.97773
11
29.4947
21
-5.83906
0
LINE
8
BLACK
6
CONTINUOUS
10
29.4947
20
-5.83906
11
29.5781
21
-5.71425
0
LINE
8
BLACK
6
CONTINUOUS
10
29.5781
20
-5.71425
11
29.6843
21
-5.60812
0
LINE
8
BLACK
6
CONTINUOUS
10
29.6843
20
-5.60812
11
29.8091
21
-5.52472
0
LINE
8
BLACK
6
CONTINUOUS
10
29.8091
20
-5.52472
11
29.9477
21
-5.46728
0
LINE
8
BLACK
6
CONTINUOUS
10
29.9477
20
-5.46728
11
30.0949
21
-5.438
0
LINE
8
BLACK
6
CONTINUOUS
10
30.0949
20
-5.438
11
30.245
21
-5.438
0
LINE
8
BLACK
6
CONTINUOUS
10
30.245
20
-5.438
11
30.3923
21
-5.46728
0
LINE
8
BLACK
6
CONTINUOUS
10
166.729
20
-1.59607
11
167.184
21
-1.78453
0
LINE
8
BLACK
6
CONTINUOUS
10
167.184
20
-1.78453
11
167.594
21
-2.05812
0
LINE
8
BLACK
6
CONTINUOUS
10
167.594
20
-2.05812
11
167.942
21
-2.40634
0
LINE
8
BLACK
6
CONTINUOUS
10
167.942
20
-2.40634
11
168.215
21
-2.81581
0
LINE
8
BLACK
6
CONTINUOUS
10
168.215
20
-2.81581
11
168.404
21
-3.27078
0
LINE
8
BLACK
6
CONTINUOUS
10
168.404
20
-3.27078
11
168.5
21
-3.75377
0
LINE
8
BLACK
6
CONTINUOUS
10
168.5
20
-3.75377
11
168.5
21
-4.24623
0
LINE
8
BLACK
6
CONTINUOUS
10
168.5
20
-4.24623
11
168.404
21
-4.72922
0
LINE
8
BLACK
6
CONTINUOUS
10
168.404
20
-4.72922
11
168.215
21
-5.18419
0
LINE
8
BLACK
6
CONTINUOUS
10
168.215
20
-5.18419
11
167.942
21
-5.59366
0
LINE
8
BLACK
6
CONTINUOUS
10
167.942
20
-5.59366
11
167.594
21
-5.94188
0
LINE
8
BLACK
6
CONTINUOUS
10
167.594
20
-5.94188
11
167.184
21
-6.21547
0
LINE
8
BLACK
6
CONTINUOUS
10
167.184
20
-6.21547
11
166.729
21
-6.40393
0
LINE
8
BLACK
6
CONTINUOUS
10
166.729
20
-6.40393
11
166.246
21
-6.5
0
LINE
8
BLACK
6
CONTINUOUS
10
166.246
20
-6.5
11
165.754
21
-6.5
0
LINE
8
BLACK
6
CONTINUOUS
10
165.754
20
-6.5
11
165.271
21
-6.40393
0
LINE
8
BLACK
6
CONTINUOUS
10
165.271
20
-6.40393
11
164.816
21
-6.21547
0
LINE
8
BLACK
6
CONTINUOUS
10
164.816
20
-6.21547
11
164.406
21
-5.94188
0
LINE
8
BLACK
6
CONTINUOUS
10
164.406
20
-5.94188
11
164.058
21
-5.59366
0
LINE
8
BLACK
6
CONTINUOUS
10
164.058
20
-5.59366
11
163.785
21
-5.18419
0
LINE
8
BLACK
6
CONTINUOUS
10
163.785
20
-5.18419
11
163.596
21
-4.72922
0
LINE
8
BLACK
6
CONTINUOUS
10
163.596
20
-4.72922
11
163.5
21
-4.24623
0
LINE
8
BLACK
6
CONTINUOUS
10
163.5
20
-4.24623
11
163.5
21
-3.75377
0
LINE
8
BLACK
6
CONTINUOUS
10
163.5
20
-3.75377
11
163.596
21
-3.27078
0
LINE
8
BLACK
6
CONTINUOUS
10
163.596
20
-3.27078
11
163.785
21
-2.81581
0
LINE
8
BLACK
6
CONTINUOUS
10
163.785
20
-2.81581
11
164.058
21
-2.40634
0
LINE
8
BLACK
6
CONTINUOUS
10
164.058
20
-2.40634
11
164.406
21
-2.05812
0
LINE
8
BLACK
6
CONTINUOUS
10
164.406
20
-2.05812
11
164.816
21
-1.78453
0
LINE
8
BLACK
6
CONTINUOUS
10
164.816
20
-1.78453
11
165.271
21
-1.59607
0
LINE
8
BLACK
6
CONTINUOUS
10
165.271
20
-1.59607
11
165.754
21
-1.5
0
LINE
8
BLACK
6
CONTINUOUS
10
165.754
20
-1.5
11
166.246
21
-1.5
0
LINE
8
BLACK
6
CONTINUOUS
10
166.246
20
-1.5
11
166.729
21
-1.59607
0
LINE
8
BLACK
6
CONTINUOUS
10
4.72922
20
-1.59607
11
5.18419
21
-1.78453
0
LINE
8
BLACK
6
CONTINUOUS
10
5.18419
20
-1.78453
11
5.59366
21
-2.05812
0
LINE
8
BLACK
6
CONTINUOUS
10
5.59366
20
-2.05812
11
5.94188
21
-2.40634
0
LINE
8
BLACK
6
CONTINUOUS
10
5.94188
20
-2.40634
11
6.21547
21
-2.81581
0
LINE
8
BLACK
6
CONTINUOUS
10
6.21547
20
-2.81581
11
6.40393
21
-3.27078
0
LINE
8
BLACK
6
CONTINUOUS
10
6.40393
20
-3.27078
11
6.5
21
-3.75377
0
LINE
8
BLACK
6
CONTINUOUS
10
6.5
20
-3.75377
11
6.5
21
-4.24623
0
LINE
8
BLACK
6
CONTINUOUS
10
6.5
20
-4.24623
11
6.40393
21
-4.72922
0
LINE
8
BLACK
6
CONTINUOUS
10
6.40393
20
-4.72922
11
6.21547
21
-5.18419
0
LINE
8
BLACK
6
CONTINUOUS
10
6.21547
20
-5.18419
11
5.94188
21
-5.59366
0
LINE
8
BLACK
6
CONTINUOUS
10
5.94188
20
-5.59366
11
5.59366
21
-5.94188
0
LINE
8
BLACK
6
CONTINUOUS
10
5.59366
20
-5.94188
11
5.18419
21
-6.21547
0
LINE
8
BLACK
6
CONTINUOUS
10
5.18419
20
-6.21547
11
4.72922
21
-6.40393
0
LINE
8
BLACK
6
CONTINUOUS
10
4.72922
20
-6.40393
11
4.24623
21
-6.5
0
LINE
8
BLACK
6
CONTINUOUS
10
4.24623
20
-6.5
11
3.75377
21
-6.5
0
LINE
8
BLACK
6
CONTINUOUS
10
3.75377
20
-6.5
11
3.27078
21
-6.40393
0
LINE
8
BLACK
6
CONTINUOUS
10
3.27078
20
-6.40393
11
2.81581
21
-6.21547
0
LINE
8
BLACK
6
CONTINUOUS
10
2.81581
20
-6.21547
11
2.40634
21
-5.94188
0
LINE
8
BLACK
6
CONTINUOUS
10
2.40634
20
-5.94188
11
2.05812
21
-5.59366
0
LINE
8
BLACK
6
CONTINUOUS
10
2.05812
20
-5.59366
11
1.78453
21
-5.18419
0
LINE
8
BLACK
6
CONTINUOUS
10
1.78453
20
-5.18419
11
1.59607
21
-4.72922
0
LINE
8
BLACK
6
CONTINUOUS
10
1.59607
20
-4.72922
11
1.5
21
-4.24623
0
LINE
8
BLACK
6
CONTINUOUS
10
1.5
20
-4.24623
11
1.5
21
-3.75377
0
LINE
8
BLACK
6
CONTINUOUS
10
1.5
20
-3.75377
11
1.59607
21
-3.27078
0
LINE
8
BLACK
6
CONTINUOUS
10
1.59607
20
-3.27078
11
1.78453
21
-2.81581
0
LINE
8
BLACK
6
CONTINUOUS
10
1.78453
20
-2.81581
11
2.05812
21
-2.40634
0
LINE
8
BLACK
6
CONTINUOUS
10
2.05812
20
-2.40634
11
2.40634
21
-2.05812
0
LINE
8
BLACK
6
CONTINUOUS
10
2.40634
20
-2.05812
11
2.81581
21
-1.78453
0
LINE
8
BLACK
6
CONTINUOUS
10
2.81581
20
-1.78453
11
3.27078
21
-1.59607
0
LINE
8
BLACK
6
CONTINUOUS
10
3.27078
20
-1.59607
11
3.75377
21
-1.5
0
LINE
8
BLACK
6
CONTINUOUS
10
3.75377
20
-1.5
11
4.24623
21
-1.5
0
LINE
8
BLACK
6
CONTINUOUS
10
4.24623
20
-1.5
11
4.72922
21
-1.59607
0
LINE
8
BLACK
6
CONTINUOUS
10
75.87
20
-1.84612
11
76.0884
21
-1.93657
0
LINE
8
BLACK
6
CONTINUOUS
10
76.0884
20
-1.93657
11
76.285
21
-2.0679
0
LINE
8
BLACK
6
CONTINUOUS
10
76.285
20
-2.0679
11
76.4521
21
-2.23504
0
LINE
8
BLACK
6
CONTINUOUS
10
76.4521
20
-2.23504
11
76.5834
21
-2.43159
0
LINE
8
BLACK
6
CONTINUOUS
10
76.5834
20
-2.43159
11
76.6739
21
-2.64997
0
LINE
8
BLACK
6
CONTINUOUS
10
76.6739
20
-2.64997
11
76.72
21
-2.88181
0
LINE
8
BLACK
6
CONTINUOUS
10
76.72
20
-2.88181
11
76.72
21
-3.11819
0
LINE
8
BLACK
6
CONTINUOUS
10
76.72
20
-3.11819
11
76.6739
21
-3.35003
0
LINE
8
BLACK
6
CONTINUOUS
10
76.6739
20
-3.35003
11
76.5834
21
-3.56841
0
LINE
8
BLACK
6
CONTINUOUS
10
76.5834
20
-3.56841
11
76.4521
21
-3.76496
0
LINE
8
BLACK
6
CONTINUOUS
10
76.4521
20
-3.76496
11
76.285
21
-3.9321
0
LINE
8
BLACK
6
CONTINUOUS
10
76.285
20
-3.9321
11
76.0884
21
-4.06343
0
LINE
8
BLACK
6
CONTINUOUS
10
76.0884
20
-4.06343
11
75.87
21
-4.15388
0
LINE
8
BLACK
6
CONTINUOUS
10
75.87
20
-4.15388
11
75.6382
21
-4.2
0
LINE
8
BLACK
6
CONTINUOUS
10
75.6382
20
-4.2
11
75.4018
21
-4.2
0
LINE
8
BLACK
6
CONTINUOUS
10
75.4018
20
-4.2
11
75.17
21
-4.15388
0
LINE
8
BLACK
6
CONTINUOUS
10
75.17
20
-4.15388
11
74.9516
21
-4.06343
0
LINE
8
BLACK
6
CONTINUOUS
10
74.9516
20
-4.06343
11
74.755
21
-3.9321
0
LINE
8
BLACK
6
CONTINUOUS
10
74.755
20
-3.9321
11
74.5879
21
-3.76496
0
LINE
8
BLACK
6
CONTINUOUS
10
74.5879
20
-3.76496
11
74.4566
21
-3.56841
0
LINE
8
BLACK
6
CONTINUOUS
10
74.4566
20
-3.56841
11
74.3661
21
-3.35003
0
LINE
8
BLACK
6
CONTINUOUS
10
74.3661
20
-3.35003
11
74.32
21
-3.11819
0
LINE
8
BLACK
6
CONTINUOUS
10
74.32
20
-3.11819
11
74.32
21
-2.88181
0
LINE
8
BLACK
6
CONTINUOUS
10
74.32
20
-2.88181
11
74.3661
21
-2.64997
0
LINE
8
BLACK
6
CONTINUOUS
10
74.3661
20
-2.64997
11
74.4566
21
-2.43159
0
LINE
8
BLACK
6
CONTINUOUS
10
74.4566
20
-2.43159
11
74.5879
21
-2.23504
0
LINE
8
BLACK
6
CONTINUOUS
10
74.5879
20
-2.23504
11
74.755
21
-2.0679
0
LINE
8
BLACK
6
CONTINUOUS
10
74.755
20
-2.0679
11
74.9516
21
-1.93657
0
LINE
8
BLACK
6
CONTINUOUS
10
74.9516
20
-1.93657
11
75.17
21
-1.84612
0
LINE
8
BLACK
6
CONTINUOUS
10
75.17
20
-1.84612
11
75.4018
21
-1.8
0
LINE
8
BLACK
6
CONTINUOUS
10
75.4018
20
-1.8
11
75.6382
21
-1.8
0
LINE
8
BLACK
6
CONTINUOUS
10
75.6382
20
-1.8
11
75.87
21
-1.84612
0
LINE
8
BLACK
6
CONTINUOUS
10
80.22
20
-4.2
11
77.82
21
-4.2
0
LINE
8
BLACK
6
CONTINUOUS
10
77.82
20
-4.2
11
77.82
21
-1.8
0
LINE
8
BLACK
6
CONTINUOUS
10
77.82
20
-1.8
11
80.22
21
-1.8
0
LINE
8
BLACK
6
CONTINUOUS
10
80.22
20
-1.8
11
80.22
21
-4.2
0
LINE
8
BLACK
6
CONTINUOUS
10
82.85
20
-1.84612
11
83.0684
21
-1.93657
0
LINE
8
BLACK
6
CONTINUOUS
10
83.0684
20
-1.93657
11
83.265
21
-2.0679
0
LINE
8
BLACK
6
CONTINUOUS
10
83.265
20
-2.0679
11
83.4321
21
-2.23504
0
LINE
8
BLACK
6
CONTINUOUS
10
83.4321
20
-2.23504
11
83.5634
21
-2.43159
0
LINE
8
BLACK
6
CONTINUOUS
10
83.5634
20
-2.43159
11
83.6539
21
-2.64997
0
LINE
8
BLACK
6
CONTINUOUS
10
83.6539
20
-2.64997
11
83.7
21
-2.88181
0
LINE
8
BLACK
6
CONTINUOUS
10
83.7
20
-2.88181
11
83.7
21
-3.11819
0
LINE
8
BLACK
6
CONTINUOUS
10
83.7
20
-3.11819
11
83.6539
21
-3.35003
0
LINE
8
BLACK
6
CONTINUOUS
10
83.6539
20
-3.35003
11
83.5634
21
-3.56841
0
LINE
8
BLACK
6
CONTINUOUS
10
83.5634
20
-3.56841
11
83.4321
21
-3.76496
0
LINE
8
BLACK
6
CONTINUOUS
10
83.4321
20
-3.76496
11
83.265
21
-3.9321
0
LINE
8
BLACK
6
CONTINUOUS
10
83.265
20
-3.9321
11
83.0684
21
-4.06343
0
LINE
8
BLACK
6
CONTINUOUS
10
83.0684
20
-4.06343
11
82.85
21
-4.15388
0
LINE
8
BLACK
6
CONTINUOUS
10
82.85
20
-4.15388
11
82.6182
21
-4.2
0
LINE
8
BLACK
6
CONTINUOUS
10
82.6182
20
-4.2
11
82.3818
21
-4.2
0
LINE
8
BLACK
6
CONTINUOUS
10
82.3818
20
-4.2
11
82.15
21
-4.15388
0
LINE
8
BLACK
6
CONTINUOUS
10
82.15
20
-4.15388
11
81.9316
21
-4.06343
0
LINE
8
BLACK
6
CONTINUOUS
10
81.9316
20
-4.06343
11
81.735
21
-3.9321
0
LINE
8
BLACK
6
CONTINUOUS
10
81.735
20
-3.9321
11
81.5679
21
-3.76496
0
LINE
8
BLACK
6
CONTINUOUS
10
81.5679
20
-3.76496
11
81.4366
21
-3.56841
0
LINE
8
BLACK
6
CONTINUOUS
10
81.4366
20
-3.56841
11
81.3461
21
-3.35003
0
LINE
8
BLACK
6
CONTINUOUS
10
81.3461
20
-3.35003
11
81.3
21
-3.11819
0
LINE
8
BLACK
6
CONTINUOUS
10
81.3
20
-3.11819
11
81.3
21
-2.88181
0
LINE
8
BLACK
6
CONTINUOUS
10
81.3
20
-2.88181
11
81.3461
21
-2.64997
0
LINE
8
BLACK
6
CONTINUOUS
10
81.3461
20
-2.64997
11
81.4366
21
-2.43159
0
LINE
8
BLACK
6
CONTINUOUS
10
81.4366
20
-2.43159
11
81.5679
21
-2.23504
0
LINE
8
BLACK
6
CONTINUOUS
10
81.5679
20
-2.23504
11
81.735
21
-2.0679
0
LINE
8
BLACK
6
CONTINUOUS
10
81.735
20
-2.0679
11
81.9316
21
-1.93657
0
LINE
8
BLACK
6
CONTINUOUS
10
81.9316
20
-1.93657
11
82.15
21
-1.84612
0
LINE
8
BLACK
6
CONTINUOUS
10
82.15
20
-1.84612
11
82.3818
21
-1.8
0
LINE
8
BLACK
6
CONTINUOUS
10
82.3818
20
-1.8
11
82.6182
21
-1.8
0
LINE
8
BLACK
6
CONTINUOUS
10
82.6182
20
-1.8
11
82.85
21
-1.84612
0
LINE
8
BLACK
6
CONTINUOUS
10
87.2
20
-4.2
11
84.8
21
-4.2
0
LINE
8
BLACK
6
CONTINUOUS
10
84.8
20
-4.2
11
84.8
21
-1.8
0
LINE
8
BLACK
6
CONTINUOUS
10
84.8
20
-1.8
11
87.2
21
-1.8
0
LINE
8
BLACK
6
CONTINUOUS
10
87.2
20
-1.8
11
87.2
21
-4.2
  0
ENDSEC
  0
EOF
